<svg xmlns="http://www.w3.org/2000/svg" width="422" height="198" viewBox="0 0 422 198">
  <g id="Grupo_26064" data-name="Grupo 26064" transform="translate(-489 -16928)">
    <g id="Rectángulo_26404" data-name="Rectángulo 26404" transform="translate(489 16928)" fill="#fff" stroke="#aed3f2" stroke-width="1">
      <rect width="138" height="36" stroke="none"/>
      <rect x="0.5" y="0.5" width="137" height="35" fill="none"/>
    </g>
    <g id="Rectángulo_26407" data-name="Rectángulo 26407" transform="translate(631 16928)" fill="#fff" stroke="#aed3f2" stroke-width="1">
      <rect width="138" height="36" stroke="none"/>
      <rect x="0.5" y="0.5" width="137" height="35" fill="none"/>
    </g>
    <g id="Rectángulo_26412" data-name="Rectángulo 26412" transform="translate(773 16928)" fill="#fff" stroke="#aed3f2" stroke-width="1">
      <rect width="138" height="36" stroke="none"/>
      <rect x="0.5" y="0.5" width="137" height="35" fill="none"/>
    </g>
    <g id="Rectángulo_26405" data-name="Rectángulo 26405" transform="translate(489 17008)" fill="#fff" stroke="#aed3f2" stroke-width="1">
      <rect width="138" height="36" stroke="none"/>
      <rect x="0.5" y="0.5" width="137" height="35" fill="none"/>
    </g>
    <g id="Rectángulo_26408" data-name="Rectángulo 26408" transform="translate(489 17048)" fill="#fff" stroke="#aed3f2" stroke-width="1">
      <rect width="138" height="36" stroke="none"/>
      <rect x="0.5" y="0.5" width="137" height="35" fill="none"/>
    </g>
    <g id="Rectángulo_26416" data-name="Rectángulo 26416" transform="translate(489 17088)" fill="#fff" stroke="#aed3f2" stroke-width="1">
      <rect width="138" height="36" stroke="none"/>
      <rect x="0.5" y="0.5" width="137" height="35" fill="none"/>
    </g>
    <g id="Rectángulo_26409" data-name="Rectángulo 26409" transform="translate(631 17008)" fill="#fff" stroke="#aed3f2" stroke-width="1">
      <rect width="138" height="36" stroke="none"/>
      <rect x="0.5" y="0.5" width="137" height="35" fill="none"/>
    </g>
    <g id="Rectángulo_26410" data-name="Rectángulo 26410" transform="translate(631 17048)" fill="#fff" stroke="#aed3f2" stroke-width="1">
      <rect width="138" height="36" stroke="none"/>
      <rect x="0.5" y="0.5" width="137" height="35" fill="none"/>
    </g>
    <g id="Rectángulo_26417" data-name="Rectángulo 26417" transform="translate(631 17088)" fill="#fff" stroke="#aed3f2" stroke-width="1">
      <rect width="138" height="36" stroke="none"/>
      <rect x="0.5" y="0.5" width="137" height="35" fill="none"/>
    </g>
    <g id="Rectángulo_26413" data-name="Rectángulo 26413" transform="translate(773 17008)" fill="#fff" stroke="#aed3f2" stroke-width="1">
      <rect width="138" height="36" stroke="none"/>
      <rect x="0.5" y="0.5" width="137" height="35" fill="none"/>
    </g>
    <g id="Rectángulo_26414" data-name="Rectángulo 26414" transform="translate(773 17048)" fill="#fff" stroke="#aed3f2" stroke-width="1">
      <rect width="138" height="36" stroke="none"/>
      <rect x="0.5" y="0.5" width="137" height="35" fill="none"/>
    </g>
    <g id="Rectángulo_26418" data-name="Rectángulo 26418" transform="translate(773 17088)" fill="#fff" stroke="#aed3f2" stroke-width="1">
      <rect width="138" height="36" stroke="none"/>
      <rect x="0.5" y="0.5" width="137" height="35" fill="none"/>
    </g>
    <g id="Rectángulo_26406" data-name="Rectángulo 26406" transform="translate(489 16968)" fill="#fff" stroke="#aed3f2" stroke-width="1">
      <rect width="138" height="36" stroke="none"/>
      <rect x="0.5" y="0.5" width="137" height="35" fill="none"/>
    </g>
    <g id="Rectángulo_26411" data-name="Rectángulo 26411" transform="translate(631 16968)" fill="#fff" stroke="#aed3f2" stroke-width="1">
      <rect width="138" height="36" stroke="none"/>
      <rect x="0.5" y="0.5" width="137" height="35" fill="none"/>
    </g>
    <g id="Rectángulo_26415" data-name="Rectángulo 26415" transform="translate(773 16968)" fill="#fff" stroke="#aed3f2" stroke-width="1">
      <rect width="138" height="36" stroke="none"/>
      <rect x="0.5" y="0.5" width="137" height="35" fill="none"/>
    </g>
    <text id="Préstamo" transform="translate(489 16937)" fill="#00223d" font-size="14" font-family="OpenSans-Semibold, Open Sans" font-weight="600"><tspan x="36.454" y="15">Préstamo</tspan></text>
    <text id="_12.000.000" data-name="$12.000.000" transform="translate(631 16937)" fill="#00223d" font-size="14" font-family="OpenSans-Semibold, Open Sans" font-weight="600"><tspan x="29.191" y="15">$12.000.000</tspan></text>
    <text id="Periodo" transform="translate(489 17017)" fill="#00223d" font-size="14" font-family="OpenSans-Semibold, Open Sans" font-weight="600"><tspan x="42.777" y="15">Periodo</tspan></text>
    <text id="Abono" transform="translate(489 17057)" fill="#00223d" font-size="14" font-family="OpenSans-Semibold, Open Sans" font-weight="600"><tspan x="47.016" y="15">Abono</tspan></text>
    <text id="Valor_abono" data-name="Valor abono" transform="translate(489 17097)" fill="#00223d" font-size="14" font-family="OpenSans-Semibold, Open Sans" font-weight="600"><tspan x="28.104" y="15">Valor abono</tspan></text>
    <text id="_6" data-name="6" transform="translate(631 17017)" fill="#00223d" font-size="14" font-family="OpenSans-Semibold, Open Sans" font-weight="600"><tspan x="65.004" y="15">6</tspan></text>
    <text id="_3" data-name="3" transform="translate(631 17057)" fill="#00223d" font-size="14" font-family="OpenSans-Semibold, Open Sans" font-weight="600"><tspan x="65.004" y="15">3</tspan></text>
    <text id="_2.000.000" data-name="$ 2.000.000" transform="translate(631 17097)" fill="#00223d" font-size="14" font-family="OpenSans-Semibold, Open Sans" font-weight="600"><tspan x="31.368" y="15">$ 2.000.000</tspan></text>
    <text id="Mes" transform="translate(773 17057)" fill="#00223d" font-size="14" font-family="OpenSans-Semibold, Open Sans" font-weight="600"><tspan x="55.099" y="15">Mes</tspan></text>
    <text id="Tasa" transform="translate(489 16977)" fill="#00223d" font-size="14" font-family="OpenSans-Semibold, Open Sans" font-weight="600"><tspan x="53.51" y="15">Tasa</tspan></text>
    <text id="_1.70_" data-name="1.70%" transform="translate(631 16977)" fill="#00223d" font-size="14" font-family="OpenSans-Semibold, Open Sans" font-weight="600"><tspan x="49.056" y="15">1.70%</tspan></text>
    <text id="Mensual" transform="translate(773 16977)" fill="#00223d" font-size="14" font-family="OpenSans-Semibold, Open Sans" font-weight="600"><tspan x="40.2" y="15">Mensual</tspan></text>
  </g>
</svg>
