<svg xmlns="http://www.w3.org/2000/svg" width="287.774" height="383.842" viewBox="0 0 287.774 383.842">
  <g id="Grupo_26042" data-name="Grupo 26042" transform="translate(-230.763 -215)">
    <g id="Grupo_25990" data-name="Grupo 25990" transform="translate(250.118 421.932)">
      <g id="Grupo_25989" data-name="Grupo 25989">
        <path id="Trazado_68158" data-name="Trazado 68158" d="M337.32,754.478l1.214,150.869-58.1-9.969s4.515-90.493,7.225-99.268,34.09-45.722,39.7-48.926a9.683,9.683,0,0,1,5.023-1.158,9.567,9.567,0,0,1,4.824,1.516l10.833,6.853Z" transform="translate(-280.43 -746.022)" fill="#f0ae74"/>
        <path id="Trazado_68159" data-name="Trazado 68159" d="M351.863,851.642s-5.019-10.063-.613-24.332,11.116-21.345,16.484-23.908,20.533,41.893,1.515,49.468C358.349,857.211,351.863,851.642,351.863,851.642Z" transform="translate(-322.547 -780.977)" fill="#dc9964" opacity="0.54"/>
        <path id="Trazado_68160" data-name="Trazado 68160" d="M354.423,874.134q-.341.932-.736,1.892c-2.714-.8-5.15-1.459-5.647-1.566-4.959-1.063-9.886-.922-14.835-1.5A60.3,60.3,0,0,1,354.423,874.134Z" transform="translate(-312.639 -823.21)" fill="#dc9964" opacity="0.85"/>
        <path id="Trazado_68161" data-name="Trazado 68161" d="M385.692,830.6c-.021.235-.042.47-.065.7-2.246-.661-4.488-1.363-6.74-2.089,1.348.318,2.755.546,4.012.817C383.827,830.232,384.76,830.422,385.692,830.6Z" transform="translate(-340.52 -796.796)" fill="#dc9964" opacity="0.85"/>
        <path id="Trazado_68162" data-name="Trazado 68162" d="M372.759,760.736c-.02.1-.038.191-.056.288l-2.037,11.161c-.571,2.318-2.4,9.78-2.671,11.413a70.36,70.36,0,0,1-3.217,12.4s0,.008,0,.012a99.8,99.8,0,0,1-13.24,24.406c-.152.213-.306.426-.461.641l-3.959,4A17.343,17.343,0,0,1,349.62,820c7.082-9.787,11.242-17.395,13.489-24.667.416-1.348.767-2.675,1.067-4v-.006a67.84,67.84,0,0,0,1.83-8.053c.209-1.274,1.254-5.644,2.123-9.2v-.007c.2-.827.394-1.611.565-2.3,0,0,2.068-11.333,2.091-11.438a13.383,13.383,0,0,1,2.53-5.5c1.63-2.1,5.6-3.254,5.6-3.254l1.146.726A11.477,11.477,0,0,0,372.759,760.736Z" transform="translate(-321.128 -749.41)" fill="#dc9964" opacity="0.85"/>
      </g>
      <path id="Trazado_68163" data-name="Trazado 68163" d="M456.9,850.559c.574-4.587.161-11.875-.115-15.6.761-4.267-.213-7.957-.273-10.656a94.606,94.606,0,0,0-1.3-10.751,58.7,58.7,0,0,0-.506-5.983c-.314-2.749-4.969-13.558-6.876-17.9,5.935,1.223,10.963-.828,11.97-5,.859-3.564-6.978-13.5-12.053-19.46-1.063-1.248-10.629-8.323-10.629-8.323l3.876,107.228C453.59,861.846,456.1,856.936,456.9,850.559Z" transform="translate(-376.057 -752.649)" fill="#e4a16a"/>
      <path id="Trazado_68164" data-name="Trazado 68164" d="M484.129,806.269a5.326,5.326,0,0,1-1.98-.111c-1.4-.418-4.489-4.371-4.752-5.455a13.077,13.077,0,0,1,.334-5.108c.045.053.087.105.131.156q.472.558.9,1.059c2.917,3.42,4.687,6.407,5.249,8.833,0,.011.006.024.009.035Q484.089,805.98,484.129,806.269Z" transform="translate(-400.566 -776.277)" fill="#f6e2ca"/>
      <path id="Trazado_68165" data-name="Trazado 68165" d="M457.7,867.351a114.686,114.686,0,0,1-.575,13.1q-.973.352-2.083.663a101.27,101.27,0,0,0-1.69-33.635,151.672,151.672,0,0,1,1.517-24.386c.226-1.61,2.539-17.335,2.812-18.5a134.62,134.62,0,0,0,2.561-18.306c.618.758,1.247,1.546,1.872,2.347a152.894,152.894,0,0,1-2.468,16.416c-.058.256-.23,1.309-.462,2.794-.481-.052-.972-.134-1.468-.235.309.7.689,1.576,1.114,2.557-.752,4.916-1.763,11.763-1.962,13.2a159.35,159.35,0,0,0-1.534,21.433,56.822,56.822,0,0,0,6.179-3.248c3.034-1.907,3.655-6.216,3.586-10.062.311,1.884.695,4.367.964,6.659a8.775,8.775,0,0,1-3.6,4.921,62.609,62.609,0,0,1-7.111,3.7c0,.191.007.34.01.446a95.271,95.271,0,0,1,2.3,18.159,14.687,14.687,0,0,0,4.725-3.682,18.473,18.473,0,0,0,4.287-8.8c.1,1.311.21,3.057.291,4.974a22.427,22.427,0,0,1-3.206,4.976A16.737,16.737,0,0,1,457.7,867.351Z" transform="translate(-385.945 -770.598)" fill="#dc9964" opacity="0.85"/>
    </g>
    <g id="Grupo_26031" data-name="Grupo 26031" transform="translate(287.59 215)">
      <path id="Rectángulo_26419" data-name="Rectángulo 26419" d="M21.337,0H249.911a21.336,21.336,0,0,1,21.336,21.336V180.361A21.336,21.336,0,0,1,249.912,201.7H21.336A21.336,21.336,0,0,1,0,180.361V21.337A21.337,21.337,0,0,1,21.337,0Z" transform="translate(201.697 18.944) rotate(90)" fill="#32526e"/>
      <rect id="Rectángulo_26420" data-name="Rectángulo 26420" width="172.988" height="241.457" transform="translate(20.239 31.872) rotate(1.896)" fill="#f2f2f2"/>
      <rect id="Rectángulo_26421" data-name="Rectángulo 26421" width="172.988" height="241.457" transform="matrix(0.999, -0.052, 0.052, 0.999, 6.927, 35.392)" fill="#e6e6e6"/>
      <rect id="Rectángulo_26422" data-name="Rectángulo 26422" width="172.988" height="241.457" transform="translate(182.123 273.305) rotate(-178.831)" fill="#f2f2f2"/>
      <rect id="Rectángulo_26423" data-name="Rectángulo 26423" width="172.988" height="241.457" transform="translate(14.327 31.872)" fill="#fff"/>
      <g id="Grupo_26029" data-name="Grupo 26029" transform="translate(20.477 31.872)">
        <rect id="Rectángulo_26424" data-name="Rectángulo 26424" width="172.988" height="241.457" fill="#fff"/>
        <rect id="Rectángulo_26425" data-name="Rectángulo 26425" width="53.222" height="53.222" transform="translate(6.151 55.174)" fill="#e6e6e6"/>
        <rect id="Rectángulo_26426" data-name="Rectángulo 26426" width="53.222" height="53.222" transform="translate(6.151 122.057)" fill="#e6e6e6"/>
        <g id="Grupo_25991" data-name="Grupo 25991" transform="translate(11.438 61.255)">
          <path id="Trazado_68166" data-name="Trazado 68166" d="M480.168,530.086a19.742,19.742,0,0,1-16.879-16.214l19.171-2.188L498.5,522.406A19.724,19.724,0,0,1,480.168,530.086Z" transform="translate(-461.419 -489.197)" fill="#e99610"/>
          <path id="Trazado_68167" data-name="Trazado 68167" d="M500.759,454.535a21.391,21.391,0,0,1,16.953,3.209,21.552,21.552,0,0,1,5.928,6.179L506.3,473.63Z" transform="translate(-484.288 -453.979)" fill="#ff856d"/>
          <path id="Trazado_68168" data-name="Trazado 68168" d="M535.705,484.527a21.36,21.36,0,0,1-.8,20.321l-16.18-10.817Z" transform="translate(-495.253 -472.623)" fill="#2790b0"/>
          <path id="Trazado_68169" data-name="Trazado 68169" d="M458.675,474.376A21.4,21.4,0,0,1,472.8,457.015l5.56,19.175-19.835,2.264A21.518,21.518,0,0,1,458.675,474.376Z" transform="translate(-458.49 -455.832)" fill="#3faa96"/>
        </g>
        <g id="Grupo_25992" data-name="Grupo 25992" transform="translate(11.439 127.344)">
          <path id="Trazado_68170" data-name="Trazado 68170" d="M481.9,703.389l-3.713,7.671a21.4,21.4,0,0,1-8.724-6.829l7.351-4.426A12.868,12.868,0,0,0,481.9,703.389Z" transform="translate(-465.184 -670.099)" fill="#ff856d"/>
          <path id="Trazado_68171" data-name="Trazado 68171" d="M468.859,672.533l-7.287,4.386a21.372,21.372,0,0,1-1.558-18.978l7.68,3.739a12.812,12.812,0,0,0,1.164,10.853Z" transform="translate(-458.491 -644.549)" fill="#3faa96"/>
          <path id="Trazado_68172" data-name="Trazado 68172" d="M496.8,628.159l-5.607,6.42a12.808,12.808,0,0,0-18.86,4.182l-7.653-3.725a21.329,21.329,0,0,1,32.121-6.878Z" transform="translate(-462.269 -623.575)" fill="#e99610"/>
          <path id="Trazado_68173" data-name="Trazado 68173" d="M524.636,654.269a21.34,21.34,0,0,1-27.643,20.371l3.776-7.8a12.819,12.819,0,0,0,11.746-21.492l5.607-6.419A21.258,21.258,0,0,1,524.636,654.269Z" transform="translate(-481.989 -632.946)" fill="#2790b0"/>
        </g>
        <rect id="Rectángulo_26427" data-name="Rectángulo 26427" width="25.16" height="5.94" transform="translate(13.308 112.483)" fill="gray"/>
        <rect id="Rectángulo_26428" data-name="Rectángulo 26428" width="33.586" height="5.94" transform="translate(13.308 45.196)" fill="gray"/>
        <rect id="Rectángulo_26429" data-name="Rectángulo 26429" width="74.376" height="12.51" transform="translate(13.308 10.383)" fill="gray"/>
        <rect id="Rectángulo_26430" data-name="Rectángulo 26430" width="33.586" height="8.259" transform="translate(13.308 28.604)" fill="#2790b0"/>
        <rect id="Rectángulo_26431" data-name="Rectángulo 26431" width="33.586" height="8.259" transform="translate(53.289 28.604)" fill="#ff856d"/>
        <rect id="Rectángulo_26432" data-name="Rectángulo 26432" width="33.586" height="8.259" transform="translate(93.27 28.604)" fill="#e99610"/>
        <rect id="Rectángulo_26433" data-name="Rectángulo 26433" width="33.586" height="8.259" transform="translate(133.252 28.604)" fill="#3faa96"/>
        <g id="Grupo_25994" data-name="Grupo 25994" transform="translate(50.679 109.909)">
          <g id="Grupo_25993" data-name="Grupo 25993">
            <rect id="Rectángulo_26434" data-name="Rectángulo 26434" width="1.83" height="5.777" transform="translate(8.694 10.067) rotate(180)" fill="#ff856d"/>
            <rect id="Rectángulo_26435" data-name="Rectángulo 26435" width="1.83" height="7.493" transform="translate(5.262 10.067) rotate(180)" fill="#ff856d"/>
            <rect id="Rectángulo_26436" data-name="Rectángulo 26436" width="1.83" height="10.067" transform="translate(1.83 10.067) rotate(180)" fill="#ff856d"/>
          </g>
        </g>
        <g id="Grupo_25996" data-name="Grupo 25996" transform="translate(50.679 40.696)">
          <g id="Grupo_25995" data-name="Grupo 25995">
            <rect id="Rectángulo_26437" data-name="Rectángulo 26437" width="1.83" height="5.777" transform="translate(0 4.29)" fill="#3faa96"/>
            <rect id="Rectángulo_26438" data-name="Rectángulo 26438" width="1.83" height="7.493" transform="translate(3.432 2.574)" fill="#3faa96"/>
            <rect id="Rectángulo_26439" data-name="Rectángulo 26439" width="1.83" height="10.067" transform="translate(6.864)" fill="#3faa96"/>
          </g>
        </g>
        <g id="Grupo_25998" data-name="Grupo 25998" transform="translate(151.246 9.46)">
          <g id="Grupo_25997" data-name="Grupo 25997">
            <rect id="Rectángulo_26440" data-name="Rectángulo 26440" width="1.83" height="5.777" transform="translate(0 4.29)" fill="#3faa96"/>
            <rect id="Rectángulo_26441" data-name="Rectángulo 26441" width="1.83" height="7.493" transform="translate(3.432 2.574)" fill="#3faa96"/>
            <rect id="Rectángulo_26442" data-name="Rectángulo 26442" width="1.83" height="10.067" transform="translate(6.864)" fill="#3faa96"/>
          </g>
        </g>
        <g id="Grupo_25999" data-name="Grupo 25999" transform="translate(67.376 39.593)">
          <rect id="Rectángulo_26443" data-name="Rectángulo 26443" width="99.461" height="58.291" fill="#e6e6e6"/>
          <rect id="Rectángulo_26444" data-name="Rectángulo 26444" width="94.834" height="12.698" transform="translate(1.284 4.177)" fill="#fff"/>
          <rect id="Rectángulo_26445" data-name="Rectángulo 26445" width="94.834" height="12.698" transform="translate(1.284 31.621)" fill="#fff"/>
          <rect id="Rectángulo_26446" data-name="Rectángulo 26446" width="8.58" height="8.58" transform="translate(3.515 6.005)" fill="#ff856d"/>
          <rect id="Rectángulo_26447" data-name="Rectángulo 26447" width="8.58" height="8.58" transform="translate(3.515 19.958)" fill="#2790b0"/>
          <rect id="Rectángulo_26448" data-name="Rectángulo 26448" width="8.58" height="8.58" transform="translate(3.515 33.911)" fill="#3faa96"/>
          <rect id="Rectángulo_26449" data-name="Rectángulo 26449" width="8.58" height="8.58" transform="translate(3.515 47.864)" fill="#e99610"/>
        </g>
        <rect id="Rectángulo_26450" data-name="Rectángulo 26450" width="160.687" height="12.761" transform="translate(6.151 182.173)" fill="#e6e6e6"/>
        <rect id="Rectángulo_26451" data-name="Rectángulo 26451" width="160.687" height="12.761" transform="translate(6.151 194.935)" fill="#fff"/>
        <rect id="Rectángulo_26452" data-name="Rectángulo 26452" width="160.687" height="12.761" transform="translate(6.151 207.696)" fill="#e6e6e6"/>
        <rect id="Rectángulo_26453" data-name="Rectángulo 26453" width="160.687" height="12.761" transform="translate(6.151 220.458)" fill="#fff"/>
        <g id="Grupo_26000" data-name="Grupo 26000" transform="translate(8.961 183.521)">
          <rect id="Rectángulo_26454" data-name="Rectángulo 26454" width="1.83" height="5.777" transform="translate(0 4.29)" fill="#2790b0"/>
          <rect id="Rectángulo_26455" data-name="Rectángulo 26455" width="1.83" height="7.493" transform="translate(3.432 2.574)" fill="#2790b0"/>
          <rect id="Rectángulo_26456" data-name="Rectángulo 26456" width="1.83" height="10.067" transform="translate(6.864)" fill="#2790b0"/>
        </g>
        <g id="Grupo_26002" data-name="Grupo 26002" transform="translate(8.499 196.282)">
          <g id="Grupo_26001" data-name="Grupo 26001">
            <rect id="Rectángulo_26457" data-name="Rectángulo 26457" width="1.83" height="5.777" transform="translate(8.694 10.067) rotate(180)" fill="#ff856d"/>
            <rect id="Rectángulo_26458" data-name="Rectángulo 26458" width="1.83" height="7.493" transform="translate(5.262 10.067) rotate(180)" fill="#ff856d"/>
            <rect id="Rectángulo_26459" data-name="Rectángulo 26459" width="1.83" height="10.067" transform="translate(1.83 10.067) rotate(180)" fill="#ff856d"/>
          </g>
        </g>
        <g id="Grupo_26004" data-name="Grupo 26004" transform="translate(8.961 209.044)">
          <g id="Grupo_26003" data-name="Grupo 26003">
            <rect id="Rectángulo_26460" data-name="Rectángulo 26460" width="1.83" height="5.777" transform="translate(0 4.29)" fill="#3faa96"/>
            <rect id="Rectángulo_26461" data-name="Rectángulo 26461" width="1.83" height="7.493" transform="translate(3.432 2.574)" fill="#3faa96"/>
            <rect id="Rectángulo_26462" data-name="Rectángulo 26462" width="1.83" height="10.067" transform="translate(6.864)" fill="#3faa96"/>
          </g>
        </g>
        <g id="Grupo_26005" data-name="Grupo 26005" transform="translate(8.961 221.805)">
          <rect id="Rectángulo_26463" data-name="Rectángulo 26463" width="1.83" height="5.777" transform="translate(8.694 10.067) rotate(180)" fill="#e99610"/>
          <rect id="Rectángulo_26464" data-name="Rectángulo 26464" width="1.83" height="7.493" transform="translate(5.262 10.067) rotate(180)" fill="#e99610"/>
          <rect id="Rectángulo_26465" data-name="Rectángulo 26465" width="1.83" height="10.067" transform="translate(1.83 10.067) rotate(180)" fill="#e99610"/>
        </g>
        <rect id="Rectángulo_26466" data-name="Rectángulo 26466" width="31.78" height="3.515" transform="translate(21.592 186.797)" fill="gray"/>
        <rect id="Rectángulo_26467" data-name="Rectángulo 26467" width="31.78" height="3.515" transform="translate(21.592 199.558)" fill="gray"/>
        <rect id="Rectángulo_26468" data-name="Rectángulo 26468" width="31.78" height="3.515" transform="translate(21.592 212.319)" fill="gray"/>
        <rect id="Rectángulo_26469" data-name="Rectángulo 26469" width="31.78" height="3.515" transform="translate(21.592 225.081)" fill="gray"/>
        <rect id="Rectángulo_26470" data-name="Rectángulo 26470" width="24.946" height="3.515" transform="translate(137.068 186.797)" fill="#2790b0"/>
        <rect id="Rectángulo_26471" data-name="Rectángulo 26471" width="13.598" height="3.515" transform="translate(148.416 199.558)" fill="#ff856d"/>
        <rect id="Rectángulo_26472" data-name="Rectángulo 26472" width="24.946" height="3.515" transform="translate(137.068 212.319)" fill="#3faa96"/>
        <rect id="Rectángulo_26473" data-name="Rectángulo 26473" width="13.598" height="2.501" transform="translate(148.416 226.095)" fill="#e99610"/>
        <g id="Grupo_26028" data-name="Grupo 26028" transform="translate(77.627 87.457)">
          <g id="Grupo_26022" data-name="Grupo 26022" transform="translate(7.562 10.648)">
            <g id="Grupo_26013" data-name="Grupo 26013" transform="translate(5.674)">
              <g id="Grupo_26006" data-name="Grupo 26006">
                <rect id="Rectángulo_26474" data-name="Rectángulo 26474" width="0.355" height="68.167" fill="#b3b3b3"/>
              </g>
              <g id="Grupo_26007" data-name="Grupo 26007" transform="translate(9.411)">
                <rect id="Rectángulo_26475" data-name="Rectángulo 26475" width="0.355" height="68.167" fill="#b3b3b3"/>
              </g>
              <g id="Grupo_26008" data-name="Grupo 26008" transform="translate(18.821)">
                <rect id="Rectángulo_26476" data-name="Rectángulo 26476" width="0.355" height="68.167" fill="#b3b3b3"/>
              </g>
              <g id="Grupo_26009" data-name="Grupo 26009" transform="translate(28.232)">
                <rect id="Rectángulo_26477" data-name="Rectángulo 26477" width="0.355" height="68.167" fill="#b3b3b3"/>
              </g>
              <g id="Grupo_26010" data-name="Grupo 26010" transform="translate(37.642)">
                <rect id="Rectángulo_26478" data-name="Rectángulo 26478" width="0.355" height="68.167" fill="#b3b3b3"/>
              </g>
              <g id="Grupo_26011" data-name="Grupo 26011" transform="translate(47.053)">
                <rect id="Rectángulo_26479" data-name="Rectángulo 26479" width="0.355" height="68.167" fill="#b3b3b3"/>
              </g>
              <g id="Grupo_26012" data-name="Grupo 26012" transform="translate(56.463)">
                <rect id="Rectángulo_26480" data-name="Rectángulo 26480" width="0.355" height="68.167" fill="#b3b3b3"/>
              </g>
            </g>
            <g id="Grupo_26021" data-name="Grupo 26021" transform="translate(0 5.674)">
              <g id="Grupo_26014" data-name="Grupo 26014">
                <rect id="Rectángulo_26481" data-name="Rectángulo 26481" width="68.167" height="0.355" fill="#b3b3b3"/>
              </g>
              <g id="Grupo_26015" data-name="Grupo 26015" transform="translate(0 9.411)">
                <rect id="Rectángulo_26482" data-name="Rectángulo 26482" width="68.167" height="0.355" fill="#b3b3b3"/>
              </g>
              <g id="Grupo_26016" data-name="Grupo 26016" transform="translate(0 18.821)">
                <rect id="Rectángulo_26483" data-name="Rectángulo 26483" width="68.167" height="0.355" fill="#b3b3b3"/>
              </g>
              <g id="Grupo_26017" data-name="Grupo 26017" transform="translate(0 28.232)">
                <rect id="Rectángulo_26484" data-name="Rectángulo 26484" width="68.167" height="0.355" fill="#b3b3b3"/>
              </g>
              <g id="Grupo_26018" data-name="Grupo 26018" transform="translate(0 37.642)">
                <rect id="Rectángulo_26485" data-name="Rectángulo 26485" width="68.167" height="0.355" fill="#b3b3b3"/>
              </g>
              <g id="Grupo_26019" data-name="Grupo 26019" transform="translate(0 47.053)">
                <rect id="Rectángulo_26486" data-name="Rectángulo 26486" width="68.167" height="0.355" fill="#b3b3b3"/>
              </g>
              <g id="Grupo_26020" data-name="Grupo 26020" transform="translate(0 56.463)">
                <rect id="Rectángulo_26487" data-name="Rectángulo 26487" width="68.167" height="0.355" fill="#b3b3b3"/>
              </g>
            </g>
          </g>
          <g id="Grupo_26024" data-name="Grupo 26024" transform="translate(5.187 6.883)">
            <g id="Grupo_26023" data-name="Grupo 26023">
              <path id="Trazado_68174" data-name="Trazado 68174" d="M715.561,613.222H641.652V538.879h2.411v71.932h71.5Z" transform="translate(-641.652 -538.879)" fill="#32526e"/>
            </g>
          </g>
          <path id="Trazado_68175" data-name="Trazado 68175" d="M628.34,532.29l6.393-11.073,6.393,11.073Z" transform="translate(-628.34 -521.217)" fill="#32526e"/>
          <path id="Trazado_68176" data-name="Trazado 68176" d="M825.987,710.156l11.073,6.393-11.073,6.393Z" transform="translate(-748.967 -636.529)" fill="#32526e"/>
          <g id="Grupo_26027" data-name="Grupo 26027" transform="translate(11.417 8.074)">
            <g id="Grupo_26025" data-name="Grupo 26025" transform="translate(2.962 3.334)">
              <path id="Trazado_68177" data-name="Trazado 68177" d="M704.357,613.546,685.6,575.807l-19.055,19.5-1.311-1.281L686.1,572.68,704,608.709l18.9-58.216,1.743.566Z" transform="translate(-665.239 -550.493)" fill="#b3b3b3"/>
            </g>
            <g id="Grupo_26026" data-name="Grupo 26026" transform="translate(3.121 26.429)">
              <path id="Trazado_68178" data-name="Trazado 68178" d="M666.64,646.77l-.993-1.54,20.1-12.957,18.232-3.6,19.4-18.916,1.28,1.312-19.786,19.3L686.45,634Z" transform="translate(-665.647 -609.758)" fill="#999"/>
            </g>
            <circle id="Elipse_498" data-name="Elipse 498" cx="3.617" cy="3.617" r="3.617" transform="translate(0 59.054)" fill="#e99610"/>
            <circle id="Elipse_499" data-name="Elipse 499" cx="3.617" cy="3.617" r="3.617" transform="translate(19.957 46.191)" fill="#2790b0"/>
            <circle id="Elipse_500" data-name="Elipse 500" cx="3.617" cy="3.617" r="3.617" transform="translate(38.284 42.574)" fill="#ff856d"/>
            <circle id="Elipse_501" data-name="Elipse 501" cx="3.617" cy="3.617" r="3.617" transform="translate(57.875 23.468)" fill="#3faa96"/>
            <circle id="Elipse_502" data-name="Elipse 502" cx="3.617" cy="3.617" r="3.617" transform="translate(0 43.896)" fill="#e99610"/>
            <circle id="Elipse_503" data-name="Elipse 503" cx="3.617" cy="3.617" r="3.617" transform="translate(19.957 23.468)" fill="#2790b0"/>
            <circle id="Elipse_504" data-name="Elipse 504" cx="3.617" cy="3.617" r="3.617" transform="translate(38.284 60.352)" fill="#ff856d"/>
            <circle id="Elipse_505" data-name="Elipse 505" cx="3.617" cy="3.617" r="3.617" transform="translate(57.875)" fill="#3faa96"/>
          </g>
        </g>
      </g>
      <g id="Grupo_26030" data-name="Grupo 26030" transform="translate(53.181 0)">
        <path id="Trazado_68179" data-name="Trazado 68179" d="M581.394,229.643h-4.18c0-8.087-7.38-14.643-16.485-14.643s-16.488,6.556-16.488,14.643h-4.18c-14.909,0-27,10.41-27,23.246H608.4C608.4,240.053,596.3,229.643,581.394,229.643Zm-20.667,4.147a7.162,7.162,0,1,1,7.162-7.162A7.162,7.162,0,0,1,560.728,233.79Z" transform="translate(-513.06 -215)" fill="#ff856d"/>
        <path id="Trazado_68180" data-name="Trazado 68180" d="M513.064,307.119H608.4a20.222,20.222,0,0,0-.267-3.264h-94.8a20.229,20.229,0,0,0-.267,3.264Z" transform="translate(-513.062 -269.229)" fill="#bf6452"/>
      </g>
    </g>
    <g id="Grupo_26037" data-name="Grupo 26037" transform="translate(373.211 319.319)">
      <g id="Grupo_26032" data-name="Grupo 26032" transform="translate(0 0)">
        <path id="Trazado_68181" data-name="Trazado 68181" d="M652.851,482.7a56.553,56.553,0,0,0-15.587,110.913v1.98l1.185,109.74a14.4,14.4,0,0,0,28.806,0l1.185-109.74v-1.98A56.553,56.553,0,0,0,652.851,482.7Zm0,103.2a46.659,46.659,0,1,1,46.657-46.661A46.661,46.661,0,0,1,652.851,585.9Z" transform="translate(-596.307 -482.7)" fill="#32526e"/>
        <path id="Trazado_68182" data-name="Trazado 68182" d="M714.985,554.727a46.659,46.659,0,1,1-46.657-46.657A46.658,46.658,0,0,1,714.985,554.727Z" transform="translate(-611.785 -498.184)" fill="#8dd8ff" opacity="0.25"/>
        <path id="Trazado_68183" data-name="Trazado 68183" d="M710.248,915.521c1.076,1.773,4.1,7.93-.865,12.673a4.766,4.766,0,0,1-3.515,1.438,14.359,14.359,0,0,1-2.86-8.456l-.916-84.815.047,4.244,3.971,3.912c5.993,6.547,4.871,12.47,3.651,16.538a4.338,4.338,0,0,1-3.916,2.775l.522.495c6.251,6.827,5.081,13.008,3.807,17.248-.588,1.964-2.8,2.977-4.629,2.911a.162.162,0,0,1-.043,0l.016,1.426a21.618,21.618,0,0,1,7.747,16.039c.316,6.461-4.9,7.778-7.466,7.782C705.8,909.726,709.169,913.748,710.248,915.521Z" transform="translate(-660.869 -698.543)" opacity="0.12"/>
        <path id="Trazado_68184" data-name="Trazado 68184" d="M732.632,794.018l-.073,6.954H701.715l-.073-6.954Z" transform="translate(-660.594 -672.701)" fill="#ff856d"/>
        <path id="Trazado_68185" data-name="Trazado 68185" d="M732.7,824.159l-.073,6.954H702.038l-.073-6.954Z" transform="translate(-660.791 -691.096)" fill="#ff856d"/>
      </g>
      <path id="Trazado_68186" data-name="Trazado 68186" d="M738.287,784.76l.063-5.76.035-3.137.055-.323s13.206,11.632,19.784,16.192,7.529,12.8,8.92,19.691,2.634,22.1,10.7,41.026c5.561,13.047,17.669,41.424,24.648,57.787H740.945a29.907,29.907,0,0,0-5.249-9.458S722.485,885.1,722.953,885.1c.179,0,.359,0,.534-.008a14.315,14.315,0,0,0,7.221-2.256,32.364,32.364,0,0,1-6.746-7.622,22.819,22.819,0,0,1-2.061-3.963l0-.027h-.012c-.156-.386-6.09-15.112-5.58-27.555.522-12.606,1.754-22.571,1.754-22.571a23.639,23.639,0,0,0,.618-4.246c-1.088-8.627-7.412-49.653-7.476-50.678-.235-3.765.373-10.926,9.205-12.159a9.975,9.975,0,0,1,10.914,6.244c.1.237.913,2.574,1.881,5.427C734.336,769.016,737.905,781.99,738.287,784.76Z" transform="translate(-666.409 -648.222)" fill="#f0ae74"/>
      <path id="Trazado_68187" data-name="Trazado 68187" d="M768.206,1112.165H759.38a29.906,29.906,0,0,0-5.249-9.458s-13.211-15.673-12.743-15.673a14.3,14.3,0,0,0,7.755-2.264S759.847,1092.626,768.206,1112.165Z" transform="translate(-684.844 -850.151)" fill="#dc9964" opacity="0.85"/>
      <g id="Grupo_26033" data-name="Grupo 26033" transform="translate(51.178 149.781)">
        <path id="Trazado_68188" data-name="Trazado 68188" d="M884.039,979.294h-7.33c-10.015-26.132-21.557-56.637-26.584-73.133-3.92-12.871-6.212-41.428-5-38.949,2.007,4.135,2.708,8.967,3.577,13.269,1.391,6.89,2.63,22.1,10.7,41.026C864.956,934.555,877.06,962.932,884.039,979.294Z" transform="translate(-799.142 -867.061)" fill="#dc9964" opacity="0.85"/>
        <path id="Trazado_68189" data-name="Trazado 68189" d="M745.491,942.051s-12.43-1.749-17.854-11.284c.274-2.789.477-4.426.477-4.426S729.718,937.3,745.491,942.051Z" transform="translate(-727.637 -903.24)" fill="#dc9964" opacity="0.85"/>
      </g>
      <g id="Grupo_26034" data-name="Grupo 26034" transform="translate(23.422 128.271)">
        <path id="Trazado_68190" data-name="Trazado 68190" d="M673.868,995.781s-4.2,7.222-3.88,11.588,2.641,7.761,3.88,9.7,8.031,10.241,12.989,5.5,1.94-10.9.862-12.672-4.448-5.8-4.448-5.8Z" transform="translate(-664.686 -924.111)" fill="#f0ae74"/>
        <path id="Trazado_68191" data-name="Trazado 68191" d="M678.134,964.765a4.086,4.086,0,0,1-1.158-.127c-1.75-.565-12.185-9.68-13.007-10.674-.806-.975-1.526-2.65-2.192-6.358-1.348-7.492,3.773-16.277,3.773-16.277l12.217,1.761.085,7.851a21.622,21.622,0,0,1,7.747,16.043C685.914,963.443,680.695,964.762,678.134,964.765Z" transform="translate(-659.549 -884.775)" fill="#f0ae74"/>
        <path id="Trazado_68192" data-name="Trazado 68192" d="M690.035,984.143s-6.339-3.48-8.474.431S689,995.1,689,995.1,691.772,993.036,690.035,984.143Z" transform="translate(-671.571 -916.137)" fill="#f6e2ca" opacity="0.79"/>
        <path id="Trazado_68193" data-name="Trazado 68193" d="M692.078,1047.413c-.327.11-.419-.541-.619-.809-2.658-3.568-4.088-6.814-2.534-8.569,1.671-1.886,6.306,0,6.306,0S697.495,1045.58,692.078,1047.413Z" transform="translate(-675.863 -949.387)" fill="#f6e2ca" opacity="0.79"/>
        <path id="Trazado_68194" data-name="Trazado 68194" d="M682.449,944.686a6.534,6.534,0,0,1-.951.032,16.022,16.022,0,0,1-6.519-2.048,35.919,35.919,0,0,1-7.5-5.01c.267-.642.526-1.213.757-1.7a38.839,38.839,0,0,0,6.741,4.34,15.8,15.8,0,0,0,6.477,2.046l.016,1.422C681.788,944.056,682.143,944.386,682.449,944.686Z" transform="translate(-663.168 -887.601)" opacity="0.12"/>
        <path id="Trazado_68195" data-name="Trazado 68195" d="M688.712,1007.737a8.744,8.744,0,0,1-1.382.116,4.082,4.082,0,0,1-1.158-.127c-1.155-.373-6.092-4.469-9.553-7.5.229-.472.442-.9.63-1.257,3.4,2.951,7.837,6.6,8.923,6.948a4.087,4.087,0,0,0,1.158.127S687.934,1006.771,688.712,1007.737Z" transform="translate(-668.745 -926.059)" opacity="0.12"/>
        <path id="Trazado_68196" data-name="Trazado 68196" d="M679.373,893.733c-.589,1.962-2.8,2.975-4.63,2.911a16.035,16.035,0,0,1-6.52-2.048c-1.653-1.007-14.936-6.9-11.129-17.247,3.82-10.376,14.424-15.175,17.222-16.275l.156,14.38,1.091,1.033C681.817,883.313,680.645,889.492,679.373,893.733Z" transform="translate(-656.412 -841.897)" fill="#f0ae74"/>
        <path id="Trazado_68197" data-name="Trazado 68197" d="M682.43,921.2s-5.147-1-5.767,1.509,2.368,6.409,4.9,8.192,2.856,1.509,2.856,1.509A12.772,12.772,0,0,0,682.43,921.2Z" transform="translate(-668.721 -878.474)" fill="#f6e2ca" opacity="0.79"/>
        <path id="Trazado_68198" data-name="Trazado 68198" d="M678.126,921.757a29.242,29.242,0,0,1-.717,4.9,5.172,5.172,0,0,1-.745-3.49A2.046,2.046,0,0,1,678.126,921.757Z" transform="translate(-668.721 -878.933)" fill="#fff" opacity="0.5"/>
        <path id="Trazado_68199" data-name="Trazado 68199" d="M679.79,843.181a4.449,4.449,0,0,1-4.44,2.791,15.362,15.362,0,0,1-6.251-1.964c-1.586-.965-14.322-6.615-10.671-16.538,3.663-9.95,13.83-14.551,16.514-15.606l.15,13.788,1.046.991C682.133,833.19,681.01,839.115,679.79,843.181Z" transform="translate(-657.243 -811.864)" fill="#f0ae74"/>
        <path id="Trazado_68200" data-name="Trazado 68200" d="M683.325,891.367a5.1,5.1,0,0,1-2.111.395,15.392,15.392,0,0,1-6.253-1.965,32.854,32.854,0,0,1-7.58-5.184c.323-.414.66-.811,1-1.2a36.668,36.668,0,0,0,6.578,4.26,15.35,15.35,0,0,0,6.253,1.965,4.838,4.838,0,0,0,.525-.011l.521.491C682.644,890.539,683,890.953,683.325,891.367Z" transform="translate(-663.107 -855.532)" opacity="0.12"/>
        <path id="Trazado_68201" data-name="Trazado 68201" d="M682.72,869.52s-4.936-.958-5.53,1.447,2.271,6.145,4.7,7.855,2.739,1.447,2.739,1.447A12.247,12.247,0,0,0,682.72,869.52Z" transform="translate(-669.045 -846.937)" fill="#f6e2ca" opacity="0.79"/>
        <path id="Trazado_68202" data-name="Trazado 68202" d="M691.416,840.874a25.378,25.378,0,0,0-6.9-4.07,26.123,26.123,0,0,1,6.876,2.577Z" transform="translate(-673.567 -827.085)" fill="#dc9964" opacity="0.85"/>
        <path id="Trazado_68203" data-name="Trazado 68203" d="M678.593,870.053a27.991,27.991,0,0,1-.688,4.7,4.96,4.96,0,0,1-.715-3.347A1.962,1.962,0,0,1,678.593,870.053Z" transform="translate(-669.045 -847.378)" fill="#fff" opacity="0.5"/>
        <path id="Trazado_68204" data-name="Trazado 68204" d="M683.217,983.565a13.341,13.341,0,0,1-1.1,5.347c-.814-1.349-1.167-2.7-.555-3.822A3.329,3.329,0,0,1,683.217,983.565Z" transform="translate(-671.572 -916.655)" fill="#fff" opacity="0.5"/>
        <path id="Trazado_68205" data-name="Trazado 68205" d="M690.521,1037.343a16.649,16.649,0,0,1-1.774,4.76c-.629-1.639-.665-3.029.177-3.979A2.585,2.585,0,0,1,690.521,1037.343Z" transform="translate(-675.863 -949.477)" fill="#fff" opacity="0.5"/>
      </g>
      <path id="Trazado_68206" data-name="Trazado 68206" d="M751.792,1087.108a14.318,14.318,0,0,1-7.973,2.408c-.21,0-.417,0-.627-.016a14.054,14.054,0,0,1-1.808-2.467c.179,0,.359,0,.534-.008a14.315,14.315,0,0,0,7.221-2.256A28.581,28.581,0,0,1,751.792,1087.108Z" transform="translate(-684.842 -850.151)" opacity="0.12"/>
      <path id="Trazado_68207" data-name="Trazado 68207" d="M784.769,833.246l6.409-3.552-6.589,2.691c-1.83-8.939-2.948-14.1-2.865-21.621l.007-.623c-.53-.46-.826-.721-.826-.721l-.055.323c-.044,3.958-.023,2.035-.1,8.9.69,4.988,1.847,12.5,2.911,15.42,1.828,5.019,12.119,16.749,12.49,17.166C795.281,849.944,785.157,835.029,784.769,833.246Z" transform="translate(-708.876 -682.101)" fill="#dc9964" opacity="0.85"/>
      <g id="Grupo_26035" data-name="Grupo 26035" transform="translate(46.58 107.647)">
        <path id="Trazado_68208" data-name="Trazado 68208" d="M724.768,777.343c-2.463-.13-6.544-1.938-8.925-11.6a9.38,9.38,0,0,1,16.017-3.64c2.376,11.417-2.017,14.115-4.061,14.749A8.956,8.956,0,0,1,724.768,777.343Z" transform="translate(-715.842 -758.939)" fill="#f6e2ca"/>
        <path id="Trazado_68209" data-name="Trazado 68209" d="M729.771,799.126a6.276,6.276,0,0,0,3.5,1.341,7.5,7.5,0,0,0,2.049-.213l.015-.005a.032.032,0,0,1,.01,0h.012c.39-.091.717-.191.945-.264a6.065,6.065,0,0,0,3.6-3.152,25.122,25.122,0,0,0-10.127,2.3Z" transform="translate(-724.342 -782.063)" fill="#fff" opacity="0.7"/>
        <path id="Trazado_68210" data-name="Trazado 68210" d="M731.859,762.106a9.382,9.382,0,0,0-16.019,3.641c.06.236.118.466.178.69a9.126,9.126,0,0,1,15.97-3.682C731.949,762.542,731.906,762.326,731.859,762.106Z" transform="translate(-715.84 -758.939)" fill="#fff" opacity="0.7"/>
      </g>
      <g id="Grupo_26036" data-name="Grupo 26036" transform="translate(58.036 234.677)">
        <path id="Trazado_68211" data-name="Trazado 68211" d="M882.646,1109.061H846.054l-3.667-17.38,35.169-6.761Z" transform="translate(-804.529 -1084.92)" fill="#e6e7e8"/>
        <path id="Trazado_68212" data-name="Trazado 68212" d="M790.973,1119.65h-36.6l-2.237-10.619,35.169-6.761Z" transform="translate(-749.448 -1095.509)" fill="#fff"/>
        <path id="Trazado_68213" data-name="Trazado 68213" d="M895.023,1143.546H853.486l-5.849-28.373,39.908-7.673Z" transform="translate(-807.733 -1098.701)" fill="#263e53"/>
        <path id="Trazado_68214" data-name="Trazado 68214" d="M790.99,1155.563h-41.7l-4.053-20.7,39.9-7.669Z" transform="translate(-745.237 -1110.718)" fill="#32526e"/>
      </g>
    </g>
    <g id="Grupo_26041" data-name="Grupo 26041" transform="translate(230.763 424.039)">
      <g id="Grupo_26039" data-name="Grupo 26039" transform="translate(46.376)">
        <path id="Trazado_68215" data-name="Trazado 68215" d="M381.18,908.559s-43.414-66.607-28.16-87.684c10.9-15.06,15.227-27.119,16.923-37.454.268-1.633,2.1-9.094,2.671-11.412l2.037-11.161c.018-.1.035-.192.055-.288a11.481,11.481,0,0,1,13.3-8.943,11.84,11.84,0,0,1,9.146,8.8c1.088,3.959-1.475,19.132-2.336,22.819-.272,1.164-2.586,16.887-2.811,18.5a151.706,151.706,0,0,0-1.517,24.386C398.321,859.951,381.18,908.559,381.18,908.559Z" transform="translate(-349.771 -751.428)" fill="#f0ae74"/>
        <path id="Trazado_68216" data-name="Trazado 68216" d="M462.8,796.515c-.273,1.165-2.588,16.889-2.814,18.5a151.781,151.781,0,0,0-1.516,24.387q.251,1.081.464,2.178h-3.57q-.456-3.3-1.181-6.465a151.782,151.782,0,0,1,1.516-24.387c.226-1.609,2.541-17.333,2.814-18.5.861-3.686,3.425-18.861,2.334-22.82a13.271,13.271,0,0,0-1.364-3.238,12.363,12.363,0,0,1,5.65,7.525C466.23,777.654,463.666,792.828,462.8,796.515Z" transform="translate(-413.475 -760.425)" opacity="0.11"/>
        <g id="Grupo_26038" data-name="Grupo 26038" transform="translate(28.07 2.732)">
          <path id="Trazado_68217" data-name="Trazado 68217" d="M429.581,776.843c2.462-.13,6.543-1.938,8.925-11.6a9.38,9.38,0,0,0-16.017-3.64c-2.376,11.417,2.017,14.115,4.061,14.749A8.952,8.952,0,0,0,429.581,776.843Z" transform="translate(-421.803 -758.439)" fill="#f6e2ca"/>
          <path id="Trazado_68218" data-name="Trazado 68218" d="M434.878,798.626a6.276,6.276,0,0,1-3.5,1.341,7.49,7.49,0,0,1-2.049-.213l-.015-.005a.034.034,0,0,0-.01,0h-.011c-.391-.091-.718-.191-.945-.264a6.065,6.065,0,0,1-3.6-3.152,25.123,25.123,0,0,1,10.127,2.3Z" transform="translate(-423.602 -781.563)" fill="#fff" opacity="0.7"/>
          <path id="Trazado_68219" data-name="Trazado 68219" d="M423.359,761.606a9.383,9.383,0,0,1,16.019,3.641c-.06.236-.118.466-.178.69a9.125,9.125,0,0,0-15.97-3.682C423.269,762.042,423.312,761.826,423.359,761.606Z" transform="translate(-422.674 -758.439)" fill="#fff" opacity="0.7"/>
        </g>
        <path id="Trazado_68220" data-name="Trazado 68220" d="M409.71,915.335s-10.6.116-13.193-2.945c3.086-6.852,21.241-41.034,22.363-59.4.461-7.549-1.926-19.641-1.794-28.689a157.841,157.841,0,0,1,1.53-19.166c.226-1.61,2.539-17.335,2.812-18.5.862-3.688,3.425-18.86,2.336-22.819a13.464,13.464,0,0,0-.423-1.283,13.111,13.111,0,0,1,2.339,4.658c1.088,3.96-1.475,19.132-2.336,22.819-.272,1.163-2.585,16.889-2.812,18.5a151.672,151.672,0,0,0-1.517,24.386C426.851,866.727,409.71,915.335,409.71,915.335Z" transform="translate(-378.301 -758.204)" fill="#dc9964" opacity="0.54"/>
      </g>
      <g id="Grupo_26040" data-name="Grupo 26040" transform="translate(0 129.958)">
        <path id="Trazado_68221" data-name="Trazado 68221" d="M294.562,1091.681l-3.667,17.38H254.3l5.089-24.141Z" transform="translate(-245.13 -1084.92)" fill="#fff"/>
        <path id="Trazado_68222" data-name="Trazado 68222" d="M387.039,1109.031,384.8,1119.65H348.2l3.667-17.38Z" transform="translate(-302.438 -1095.509)" fill="#e6e7e8"/>
        <path id="Trazado_68223" data-name="Trazado 68223" d="M278.149,1115.173l-5.849,28.373H230.763l7.478-36.046Z" transform="translate(-230.763 -1098.701)" fill="#32526e"/>
        <path id="Trazado_68224" data-name="Trazado 68224" d="M383.106,1134.859l-4.053,20.7h-41.7l5.849-28.373Z" transform="translate(-295.816 -1110.718)" fill="#263e53"/>
      </g>
    </g>
  </g>
</svg>
