<svg id="Grupo_24843" data-name="Grupo 24843" xmlns="http://www.w3.org/2000/svg" xmlns:xlink="http://www.w3.org/1999/xlink" width="335" height="249.324" viewBox="0 0 335 249.324">
  <defs>
    <clipPath id="clip-path">
      <rect id="Rectángulo_25536" data-name="Rectángulo 25536" width="335" height="249.324" fill="none"/>
    </clipPath>
  </defs>
  <g id="Grupo_24842" data-name="Grupo 24842" clip-path="url(#clip-path)">
    <path id="Trazado_63541" data-name="Trazado 63541" d="M79.6,52.41h90.047a3.119,3.119,0,0,1,3.109,3.109v57.168a3.118,3.118,0,0,1-3.109,3.109H79.6a3.119,3.119,0,0,1-3.11-3.109V55.519A3.119,3.119,0,0,1,79.6,52.41" transform="translate(-24.302 -16.651)" fill="#f2e9e4" fill-rule="evenodd"/>
    <rect id="Rectángulo_25502" data-name="Rectángulo 25502" width="96.266" height="12.884" transform="translate(52.188 46.941)" fill="#fff"/>
    <path id="Trazado_63542" data-name="Trazado 63542" d="M90.092,111.055a.273.273,0,1,1,0-.547h28.25a.273.273,0,1,1,0,.547Z" transform="translate(-28.536 -35.11)" fill="#302b36"/>
    <path id="Trazado_63543" data-name="Trazado 63543" d="M90.092,127.009a.274.274,0,0,1,0-.548h21.066a.274.274,0,1,1,0,.548Z" transform="translate(-28.536 -40.178)" fill="#302b36"/>
    <path id="Trazado_63544" data-name="Trazado 63544" d="M171.277,105.045a9.7,9.7,0,1,1-9.7,9.7,9.7,9.7,0,0,1,9.7-9.7" transform="translate(-51.334 -33.374)" fill="#fff" fill-rule="evenodd"/>
    <path id="Trazado_63545" data-name="Trazado 63545" d="M184.518,105.045a9.7,9.7,0,1,1-9.7,9.7,9.7,9.7,0,0,1,9.7-9.7" transform="translate(-55.541 -33.374)" fill="#fff" fill-rule="evenodd"/>
    <path id="Trazado_63546" data-name="Trazado 63546" d="M90.092,118.318a.274.274,0,1,1,0-.547h28.25a.274.274,0,1,1,0,.547Z" transform="translate(-28.536 -37.417)" fill="#302b36"/>
    <path id="Trazado_63547" data-name="Trazado 63547" d="M333.667,256.229c2.834-26.294,11.586-45.041,23.136-59l3.876,4.017.222-8.654c25.588-27.147,61.99-34.474,80.108-47.666-7.857,8.147-14.605,18.109-20.976,28.691h0l-8.656.4,5.439,5.034h0c-21.2,36.41-39.495,77.591-83.151,77.176" transform="translate(-106.01 -46.044)" fill="#e0e0e0" fill-rule="evenodd"/>
    <path id="Trazado_63548" data-name="Trazado 63548" d="M333.807,263.84q11.136-15.762,23.736-30.573l20,.955.031-.642-19.5-.93q6.855-8.048,14.112-15.833l20.007.955.03-.642-19.461-.929q1.055-1.13,2.119-2.254,6.239-6.59,12.756-13l15.811.437.018-.64-15.2-.42q16.634-16.317,34.955-31.538l-.412-.492q-11.6,9.669-22.563,19.758l1.455-12.212-.637-.076L399.52,188.72q-8.626,7.979-16.823,16.237l.041-13.179-.642,0-.043,13.831q-3.871,3.918-7.642,7.9-5.222,5.516-10.245,11.162l-.462-13.68-.641.023.484,14.354q-6.647,7.5-12.931,15.245l-.46-13.624-.642.023L350,241.372q-8.728,10.807-16.714,22.1Z" transform="translate(-105.888 -53.468)" fill="#fff"/>
    <path id="Trazado_63549" data-name="Trazado 63549" d="M336.655,214.066c-.889-6.862-.286-13.661,3.319-20.33,5.31-8.183,6.554-14.742,5.267-20.291l-7.621.284,5.26-6.011a35.836,35.836,0,0,0-7.482-8.432c-5.926-4.4-8.342-14.271-17.088-15.09-7.044-.658-7.8,12.412-13.642,17.69-10.878,8.167-17.9,17.477-3.615,33.111,1.758,2.542,3.945,6.192,4.273,8.913l4.294,4.908-6.017-.169c-26.577,37.37,44.332,46.844,33.051,5.416" transform="translate(-93.096 -45.805)" fill="#e0e0e0" fill-rule="evenodd"/>
    <path id="Trazado_63550" data-name="Trazado 63550" d="M328.016,162.077q.952,9.775,1.21,19.688l-6.444-8.975-.423.3,6.891,9.6q.254,10.538-.2,21.219-.069,1.648-.152,3.3L318.785,193.12l-.423.3,10.5,14.619q-.642,12.145-2.077,24.455l-6.545-9.116-.423.3,6.879,9.579q-.788,6.739-1.786,13.52l.517.076q1.858-12.671,2.989-25.2l11.28-9.6-.338-.4-10.877,9.255q.741-8.534,1.1-16.994.145-3.52.218-7.023l13.79-11.733-.336-.4L329.8,196.211a296.149,296.149,0,0,0-1.27-34.183Z" transform="translate(-101.147 -51.478)" fill="#fff"/>
    <path id="Trazado_63551" data-name="Trazado 63551" d="M35.707,335.917l2.417-4.425-6.3-3.439-2.774,4.565Z" transform="translate(-9.23 -104.226)" fill="#e8baa3" fill-rule="evenodd"/>
    <path id="Trazado_63552" data-name="Trazado 63552" d="M34.143,352.938,15.466,340.346l6.326-9.381,11.265,7.6-1.323,1.962Z" transform="translate(-4.914 -105.151)" fill="#6595bf" fill-rule="evenodd"/>
    <path id="Trazado_63553" data-name="Trazado 63553" d="M34.143,356.695,15.466,344.1l.885-1.313L33.716,354.5Z" transform="translate(-4.914 -108.908)" fill="#003336" fill-rule="evenodd"/>
    <path id="Trazado_63554" data-name="Trazado 63554" d="M21.582,344.572l-4.819-3.25,2.126-3.153,2.554,1.722a2.74,2.74,0,0,1,.738,3.792Z" transform="translate(-5.326 -107.44)" fill="#003336" fill-rule="evenodd"/>
    <path id="Trazado_63555" data-name="Trazado 63555" d="M36.078,349.974a.121.121,0,0,1-.047-.238L38.8,349.2a.121.121,0,0,1,.047.238Z" transform="translate(-11.416 -110.943)" fill="#302b36"/>
    <path id="Trazado_63556" data-name="Trazado 63556" d="M36.575,352.536a.121.121,0,0,1-.047-.238l2.764-.539a.121.121,0,1,1,.048.238Z" transform="translate(-11.574 -111.757)" fill="#302b36"/>
    <path id="Trazado_63557" data-name="Trazado 63557" d="M44.086,344.046c-.849.575-2.421.75-4.871-.2a.115.115,0,0,1-.041-.022.122.122,0,0,1-.014-.171c1.735-2.041,3.194-2.67,4.2-2.593a1.582,1.582,0,0,1,1.486,1.2,1.682,1.682,0,0,1-.758,1.793m-4.629-.371c2.273.853,3.716.7,4.492.171a1.444,1.444,0,0,0,.658-1.536,1.345,1.345,0,0,0-1.268-1.013c-.917-.07-2.258.511-3.882,2.378" transform="translate(-12.432 -108.355)" fill="#003336"/>
    <path id="Trazado_63558" data-name="Trazado 63558" d="M42.122,348.819c-.987-.278-2.132-1.368-2.982-3.856a.127.127,0,0,1-.008-.046.121.121,0,0,1,.121-.12c2.679.012,4.1.721,4.688,1.539a1.583,1.583,0,0,1,.04,1.909,1.68,1.68,0,0,1-1.86.575m-2.7-3.779c.811,2.288,1.863,3.29,2.764,3.545a1.444,1.444,0,0,0,1.6-.485,1.347,1.347,0,0,0-.042-1.623c-.538-.746-1.846-1.4-4.32-1.437" transform="translate(-12.433 -109.545)" fill="#302b36"/>
    <path id="Trazado_63559" data-name="Trazado 63559" d="M125.59,126.353l-1.164,5.888,5.8,1.613c4-3.67,7.73-7.633,10-13.2,0-.553-.246-.8-.7-.786.295-.806,0-1.242-.536-1.068.093-.916-.308-.984-.691-.805-.018-.4-.226-.6-.478-.562l-.476.347a16.3,16.3,0,0,1-3.434,3.388c-.772.669-1.372.609-1.131-.058Z" transform="translate(-39.531 -37.309)" fill="#ff9e8a" fill-rule="evenodd"/>
    <path id="Trazado_63560" data-name="Trazado 63560" d="M86.033,133.349l2.917,7.8,16.817-10.832c1.491-.961,2.494-1.207,4.1-.029l4.889,7.183a4.171,4.171,0,0,1-.581,3.952L93.285,161.569c-3.491,3.248-9.839,3.751-12.639-1.226L75,137.877Z" transform="translate(-23.827 -41.142)" fill="#6595bf" fill-rule="evenodd"/>
    <path id="Trazado_63561" data-name="Trazado 63561" d="M43.946,281.189,70.7,245.365c3.929-4.388,4.331-10.713,2.31-18.373l-7.2-43.2-38.229,2.534,26.27,46.536L30.368,274.09Z" transform="translate(-8.762 -58.393)" fill="#5e6178" fill-rule="evenodd"/>
    <path id="Trazado_63562" data-name="Trazado 63562" d="M29.336,286.488l14.206.094L64.155,171.036H28.5l-.919,11.237Z" transform="translate(-8.762 -54.34)" fill="#5e6178" fill-rule="evenodd"/>
    <path id="Trazado_63563" data-name="Trazado 63563" d="M24.035,127.383l-4.672,29.49c-.781,7.322,45.462,8.8,43.138.512l-4.732-28.563,7.971-2.089-5.165-16.252c-1.442-3.89-4.882-8.179-9.3-8.547L26.783,99.891c-7.054.206-13.455,2.519-15.594,11.627L8.179,124.3Z" transform="translate(-2.599 -31.736)" fill="#6595bf" fill-rule="evenodd"/>
    <path id="Trazado_63564" data-name="Trazado 63564" d="M42.8,345.323l.226-5.037-7.168-.321-.484,5.32Z" transform="translate(-11.237 -108.011)" fill="#fad6c2" fill-rule="evenodd"/>
    <path id="Trazado_63565" data-name="Trazado 63565" d="M38.892,80.119,37.751,93.8l-2.3-.193c3.47,7.35,13.955,7.858,16.307,1.361l-1.9-1.39.663-6.886Z" transform="translate(-11.262 -25.455)" fill="#ffd1ca" fill-rule="evenodd"/>
    <path id="Trazado_63566" data-name="Trazado 63566" d="M59.006,60.888c6.521-7.2,1.79-15.4-8.962-12.948L37.878,51.6c-2.8,1.03-3.877,3.167-2.524,6.877l1.222,4.34,10.46,8.81L59.006,60.888" transform="translate(-11.048 -15.09)" fill="#003336" fill-rule="evenodd"/>
    <path id="Trazado_63567" data-name="Trazado 63567" d="M57.573,75q.6-5.471,1.208-10.942c.161-3.608-1.079-6.133-5.061-6.538-4.779.121-11.5-.8-11.112,2.106q-.325,3.394-.652,6.789c-.145,1.227-1.262,1.461-2.226.637-3.876-3.961-9.849,2.965-1.275,7.112C42.4,82.591,54.722,82.969,57.573,75" transform="translate(-10.824 -18.259)" fill="#ffd1ca" fill-rule="evenodd"/>
    <path id="Trazado_63568" data-name="Trazado 63568" d="M47.339,89.359s1.393,5.515,6.371,6.357l.471-4.9-.1-.056a11.624,11.624,0,0,1-6.742-1.4" transform="translate(-15.04 -28.39)" fill="#003336" fill-rule="evenodd"/>
    <path id="Trazado_63569" data-name="Trazado 63569" d="M23.444,138.5,19.03,156.36,30.32,183.252l-9.114,5.419L2.259,164.46a9.99,9.99,0,0,1-1.8-9.465l5.125-19.8,12.169-1.019Z" transform="translate(0 -42.628)" fill="#6595bf" fill-rule="evenodd"/>
    <line id="Línea_69" data-name="Línea 69" y1="5.419" x2="9.114" transform="translate(21.206 140.624)" fill="none" stroke="#172429" stroke-linecap="round" stroke-linejoin="round" stroke-width="0.251"/>
    <path id="Trazado_63570" data-name="Trazado 63570" d="M59.085,72.379,61.4,77.065c.182.311.151.5-.128.536H60.218" transform="translate(-18.772 -22.996)" fill="none" stroke="#003336" stroke-linecap="round" stroke-linejoin="round" stroke-width="0.151"/>
    <path id="Trazado_63571" data-name="Trazado 63571" d="M56.284,81.7s.849,1.164,1.73,1.164" transform="translate(-17.882 -25.958)" fill="none" stroke="#003336" stroke-linecap="round" stroke-linejoin="round" stroke-width="0.151"/>
    <path id="Trazado_63572" data-name="Trazado 63572" d="M63.013,67.424a6.552,6.552,0,0,1,3.241.094" transform="translate(-20.02 -21.367)" fill="none" stroke="#003336" stroke-linecap="round" stroke-linejoin="round" stroke-width="0.151"/>
    <path id="Trazado_63573" data-name="Trazado 63573" d="M65.687,72.158a.645.645,0,1,1-.645.645.645.645,0,0,1,.645-.645" transform="translate(-20.665 -22.925)" fill="#003336" fill-rule="evenodd"/>
    <path id="Trazado_63574" data-name="Trazado 63574" d="M51.693,67.424a6.549,6.549,0,0,1,3.24.094" transform="translate(-16.423 -21.367)" fill="none" stroke="#003336" stroke-linecap="round" stroke-linejoin="round" stroke-width="0.151"/>
    <path id="Trazado_63575" data-name="Trazado 63575" d="M54.367,72.158a.645.645,0,1,1-.645.645.645.645,0,0,1,.645-.645" transform="translate(-17.068 -22.925)" fill="#003336" fill-rule="evenodd"/>
    <path id="Trazado_63576" data-name="Trazado 63576" d="M66.128,233.409l6.141,18.672L57.685,280.74" transform="translate(-18.327 -74.157)" fill="none" stroke="#172429" stroke-linecap="round" stroke-linejoin="round" stroke-width="0.201"/>
    <path id="Trazado_63577" data-name="Trazado 63577" d="M53.948,359.107H31.423V347.793H45.011v2.367Z" transform="translate(-9.984 -110.497)" fill="#6595bf" fill-rule="evenodd"/>
    <path id="Trazado_63578" data-name="Trazado 63578" d="M53.948,363.639H31.423v-1.583H52.368Z" transform="translate(-9.984 -115.029)" fill="#003336" fill-rule="evenodd"/>
    <path id="Trazado_63579" data-name="Trazado 63579" d="M37.235,360.285H31.423v-3.8H34.5a2.74,2.74,0,0,1,2.732,2.732Z" transform="translate(-9.983 -113.258)" fill="#003336" fill-rule="evenodd"/>
    <path id="Trazado_63580" data-name="Trazado 63580" d="M51.617,356.454a.121.121,0,0,1-.172-.171l1.991-1.993a.121.121,0,1,1,.171.171Z" transform="translate(-16.333 -112.55)" fill="#003336"/>
    <path id="Trazado_63581" data-name="Trazado 63581" d="M53.462,358.3a.121.121,0,0,1-.172-.171l1.991-1.993a.121.121,0,1,1,.171.171Z" transform="translate(-16.919 -113.137)" fill="#003336"/>
    <path id="Trazado_63582" data-name="Trazado 63582" d="M55.467,346.612c-.383.952-1.588,1.975-4.152,2.553a.119.119,0,0,1-.046,0,.122.122,0,0,1-.108-.134c.3-2.663,1.156-4,2.031-4.5a1.582,1.582,0,0,1,1.9.163,1.681,1.681,0,0,1,.373,1.91m-4.045,2.28c2.361-.563,3.47-1.5,3.819-2.37a1.444,1.444,0,0,0-.312-1.642,1.346,1.346,0,0,0-1.619-.13c-.8.454-1.586,1.685-1.889,4.142" transform="translate(-16.254 -109.387)" fill="#003336"/>
    <path id="Trazado_63583" data-name="Trazado 63583" d="M55.842,352.152c-.974.321-2.533.057-4.628-1.53a.144.144,0,0,1-.033-.034.121.121,0,0,1,.034-.168c2.228-1.488,3.8-1.693,4.747-1.345a1.583,1.583,0,0,1,1.1,1.56,1.681,1.681,0,0,1-1.221,1.517m-4.35-1.625c1.951,1.443,3.383,1.687,4.274,1.395a1.444,1.444,0,0,0,1.054-1.3,1.345,1.345,0,0,0-.942-1.322c-.863-.319-2.312-.128-4.386,1.223" transform="translate(-16.254 -110.858)" fill="#003336"/>
    <path id="Trazado_63584" data-name="Trazado 63584" d="M44.382,103.245l-9.89-5.207.383-4.588a15.31,15.31,0,0,0-9.686,5.582c3.585,5.813,12.043,8.318,19.192,4.213" transform="translate(-8.003 -29.69)" fill="#6595bf" fill-rule="evenodd"/>
    <path id="Trazado_63585" data-name="Trazado 63585" d="M47.222,103.856,53.6,98.008l.381-3.957c3.539.038,7.77,2.563,10.063,6.067-3.583,5.813-9.669,7.844-16.817,3.738" transform="translate(-15.003 -29.881)" fill="#6595bf" fill-rule="evenodd"/>
    <path id="Trazado_63586" data-name="Trazado 63586" d="M49.352,109.574c-1.33,13.112,4.74,32.975,1.985,37.838" transform="translate(-15.618 -34.813)" fill="none" stroke="#fff" stroke-linecap="round" stroke-linejoin="round" stroke-width="0.5"/>
    <path id="Trazado_63587" data-name="Trazado 63587" d="M55.947,109.447c1.111,18.783,8.7,25.1,9.369,36.14" transform="translate(-17.775 -34.772)" fill="none" stroke="#fff" stroke-linecap="round" stroke-linejoin="round" stroke-width="0.5"/>
    <path id="Trazado_63588" data-name="Trazado 63588" d="M136.446,112.9l5.262,2.1a1.019,1.019,0,0,1,.566,1.32l-4.452,11.137a1.018,1.018,0,0,1-1.319.566l-5.262-2.1a1.018,1.018,0,0,1-.566-1.319l4.453-11.138a1.017,1.017,0,0,1,1.318-.565" transform="translate(-41.494 -35.848)" fill="#fff" fill-rule="evenodd"/>
    <path id="Trazado_63589" data-name="Trazado 63589" d="M141.707,114.975l-5.262-2.1a1.042,1.042,0,0,0-1.348.579l-4.452,11.138a1.041,1.041,0,0,0,.579,1.348l5.262,2.1a1.042,1.042,0,0,0,1.349-.579l4.451-11.138a1.041,1.041,0,0,0-.578-1.348m-5.279-2.061,5.262,2.1a1,1,0,0,1,.553,1.29l-4.452,11.138a.995.995,0,0,1-1.29.553l-5.262-2.1a.995.995,0,0,1-.553-1.289l4.452-11.138a1,1,0,0,1,1.29-.553" transform="translate(-41.484 -35.837)" fill="#302b36"/>
    <path id="Trazado_63590" data-name="Trazado 63590" d="M135.891,112.681l5.262,2.1a1.018,1.018,0,0,1,.566,1.319l-4.452,11.138a1.017,1.017,0,0,1-1.319.566l-5.262-2.1a1.018,1.018,0,0,1-.566-1.319l4.452-11.138a1.017,1.017,0,0,1,1.319-.566" transform="translate(-41.318 -35.777)" fill="#302b36" fill-rule="evenodd"/>
    <path id="Trazado_63591" data-name="Trazado 63591" d="M135.878,113.037l5.338,2.134a.69.69,0,0,1,.383.894L137.1,127.308a.689.689,0,0,1-.894.383l-5.338-2.134a.689.689,0,0,1-.383-.894l4.494-11.243a.689.689,0,0,1,.894-.383" transform="translate(-41.443 -35.898)" fill="#fff" fill-rule="evenodd"/>
    <path id="Trazado_63592" data-name="Trazado 63592" d="M141.051,113.769l1.635.653a.268.268,0,0,1,.149.347l-.1.262a.268.268,0,0,1-.347.148l-1.634-.653a.267.267,0,0,1-.149-.347l.1-.262a.268.268,0,0,1,.347-.149" transform="translate(-44.664 -36.14)" fill="#302b36" fill-rule="evenodd"/>
    <rect id="Rectángulo_25503" data-name="Rectángulo 25503" width="52.681" height="68.113" transform="translate(62.809 180.497)" fill="#3396c2"/>
    <rect id="Rectángulo_25504" data-name="Rectángulo 25504" width="54.841" height="10.598" transform="translate(60.649 169.899)" fill="#3396c2"/>
    <rect id="Rectángulo_25505" data-name="Rectángulo 25505" width="24.073" height="68.113" transform="translate(115.49 180.497)" fill="#2b7da6"/>
    <rect id="Rectángulo_25506" data-name="Rectángulo 25506" width="26.239" height="10.598" transform="translate(115.49 169.899)" fill="#2b7da6"/>
    <rect id="Rectángulo_25507" data-name="Rectángulo 25507" width="4.847" height="68.113" transform="translate(125.103 180.497)" fill="#fadbed"/>
    <rect id="Rectángulo_25508" data-name="Rectángulo 25508" width="5.356" height="10.598" transform="translate(125.932 169.899)" fill="#fadbed"/>
    <rect id="Rectángulo_25509" data-name="Rectángulo 25509" width="24.073" height="3.448" transform="translate(115.49 180.497)" fill="#003336"/>
    <rect id="Rectángulo_25510" data-name="Rectángulo 25510" width="4.847" height="3.448" transform="translate(125.103 180.497)" fill="#f7cce6"/>
    <rect id="Rectángulo_25511" data-name="Rectángulo 25511" width="52.681" height="3.448" transform="translate(62.809 180.497)" fill="#003336"/>
    <rect id="Rectángulo_25512" data-name="Rectángulo 25512" width="7.428" height="68.113" transform="translate(85.435 180.497)" fill="#fff"/>
    <rect id="Rectángulo_25513" data-name="Rectángulo 25513" width="7.428" height="3.448" transform="translate(85.435 180.497)" fill="#fadbed"/>
    <rect id="Rectángulo_25514" data-name="Rectángulo 25514" width="7.325" height="10.598" transform="translate(84.407 169.899)" fill="#fff"/>
    <path id="Trazado_63593" data-name="Trazado 63593" d="M173.973,236q-1.571-9.288-3.141-18.575a31.555,31.555,0,0,1-19.617,14.249l-1.257,5.951c11.114,2.167,20.323,2.674,24.014-1.625" transform="translate(-47.644 -69.078)" fill="#d9a171" fill-rule="evenodd"/>
    <path id="Trazado_63594" data-name="Trazado 63594" d="M151.742,238.11c-.175.046-.35.091-.526.136l-1.257,5.951.654.125a5.47,5.47,0,0,0,1.129-6.212" transform="translate(-47.644 -75.65)" fill="#d9a171" fill-rule="evenodd"/>
    <path id="Trazado_63595" data-name="Trazado 63595" d="M149.683,229.851c8.5-7.215,16.651-13.7,21.061-12.494-3.707,7.043-9.468,12.825-19.617,14.249l-1.444-1.755" transform="translate(-47.556 -69.01)" fill="#a66d58" fill-rule="evenodd"/>
    <path id="Trazado_63596" data-name="Trazado 63596" d="M106.323,236q1.57-9.288,3.141-18.575a31.55,31.55,0,0,0,19.616,14.249q.628,2.975,1.256,5.951c-11.114,2.167-20.323,2.674-24.013-1.625" transform="translate(-33.78 -69.078)" fill="#d9a171" fill-rule="evenodd"/>
    <path id="Trazado_63597" data-name="Trazado 63597" d="M137.867,237.9q.52.147,1.051.28l1.256,5.951q-.579.113-1.15.219a5.472,5.472,0,0,1-1.156-6.45" transform="translate(-43.618 -75.583)" fill="#a66d58" fill-rule="evenodd"/>
    <path id="Trazado_63598" data-name="Trazado 63598" d="M131.987,229.851c-8.5-7.215-16.651-13.7-21.061-12.494a25.094,25.094,0,0,0,19.617,14.249l1.444-1.755" transform="translate(-35.242 -69.01)" fill="#a66d58" fill-rule="evenodd"/>
    <path id="Trazado_63599" data-name="Trazado 63599" d="M142.955,234.1A5.041,5.041,0,1,0,148,239.146a5.042,5.042,0,0,0-5.041-5.041" transform="translate(-43.816 -74.378)" fill="#d9a171" fill-rule="evenodd"/>
    <path id="Trazado_63600" data-name="Trazado 63600" d="M183.208,38.536h89.834a16.134,16.134,0,0,1,16.086,16.086V244.766a16.134,16.134,0,0,1-16.086,16.087H183.208a16.135,16.135,0,0,1-16.088-16.087V54.622a16.134,16.134,0,0,1,16.088-16.086" transform="translate(-53.096 -12.243)" fill="#fff" fill-rule="evenodd"/>
    <path id="Rectángulo_25515" data-name="Rectángulo 25515" d="M23.578,0H98.431a23.577,23.577,0,0,1,23.577,23.577V198.739A23.578,23.578,0,0,1,98.43,222.317H23.578A23.578,23.578,0,0,1,0,198.739V23.578A23.578,23.578,0,0,1,23.578,0Z" transform="translate(114.025 26.293)" fill="none" stroke="#302b36" stroke-miterlimit="22.926" stroke-width="0.251"/>
    <path id="Trazado_63601" data-name="Trazado 63601" d="M173.726,38.536H263.56a16.134,16.134,0,0,1,16.086,16.086V244.766a16.134,16.134,0,0,1-16.086,16.087H173.726a16.135,16.135,0,0,1-16.087-16.087V54.622a16.134,16.134,0,0,1,16.087-16.086" transform="translate(-50.084 -12.243)" fill="#302b36" fill-rule="evenodd"/>
    <path id="Trazado_63602" data-name="Trazado 63602" d="M175.19,44.813h91.132a10.93,10.93,0,0,1,10.9,10.9V247.665a10.93,10.93,0,0,1-10.9,10.9H175.19a10.931,10.931,0,0,1-10.9-10.9V55.713a10.931,10.931,0,0,1,10.9-10.9" transform="translate(-52.197 -14.238)" fill="#fff" fill-rule="evenodd"/>
    <path id="Trazado_63603" data-name="Trazado 63603" d="M224.627,38.536h27.9a4.25,4.25,0,0,1,4.238,4.238v4.461a4.251,4.251,0,0,1-4.238,4.238h-27.9a4.251,4.251,0,0,1-4.238-4.238V42.774a4.25,4.25,0,0,1,4.238-4.238" transform="translate(-70.02 -12.243)" fill="#302b36" fill-rule="evenodd"/>
    <path id="Trazado_63604" data-name="Trazado 63604" d="M175.191,97.573a12.292,12.292,0,0,1-12.227,11.877h-2.417A12.132,12.132,0,0,1,148.5,97.573L161.3,96.484Z" transform="translate(-47.18 -30.654)" fill="#b28360" fill-rule="evenodd"/>
    <path id="Trazado_63605" data-name="Trazado 63605" d="M161.3,44.813,148.5,81.157h26.679l5.989-36.344Z" transform="translate(-47.181 -14.238)" fill="#d9a171" fill-rule="evenodd"/>
    <path id="Trazado_63606" data-name="Trazado 63606" d="M333.476,96.416A12.424,12.424,0,0,1,321.1,108.293h-2.416a12.073,12.073,0,0,1-11.978-11.877l13.551-3.572Z" transform="translate(-97.444 -29.498)" fill="#b28360" fill-rule="evenodd"/>
    <path id="Trazado_63607" data-name="Trazado 63607" d="M303.981,81.157H330.66L317.184,44.813H298.127Z" transform="translate(-94.718 -14.238)" fill="#d9a171" fill-rule="evenodd"/>
    <path id="Trazado_63608" data-name="Trazado 63608" d="M214.964,81.157H187.6l5.989-36.344h20.962Z" transform="translate(-59.604 -14.238)" fill="#f7f7f7" fill-rule="evenodd"/>
    <path id="Trazado_63609" data-name="Trazado 63609" d="M214.969,98.08a12.589,12.589,0,0,1-12.557,11.877H200A12.424,12.424,0,0,1,187.621,98.08Z" transform="translate(-59.609 -31.161)" fill="#e8e8e8" fill-rule="evenodd"/>
    <path id="Trazado_63610" data-name="Trazado 63610" d="M227.514,81.157h26.542V44.813H227.1Z" transform="translate(-72.154 -14.238)" fill="#d9a171" fill-rule="evenodd"/>
    <path id="Trazado_63611" data-name="Trazado 63611" d="M254.258,98.08a12.112,12.112,0,0,1-12.023,11.877h-2.416A12.191,12.191,0,0,1,227.7,98.08Z" transform="translate(-72.344 -31.161)" fill="#b28360" fill-rule="evenodd"/>
    <path id="Trazado_63612" data-name="Trazado 63612" d="M293.966,81.157h-27.36V44.813h21.506Z" transform="translate(-84.704 -14.238)" fill="#f7f7f7" fill-rule="evenodd"/>
    <path id="Trazado_63613" data-name="Trazado 63613" d="M293.966,98.08a12.589,12.589,0,0,1-12.557,11.877h-2.416A12.435,12.435,0,0,1,266.606,98.08Z" transform="translate(-84.704 -31.161)" fill="#e8e8e8" fill-rule="evenodd"/>
    <path id="Trazado_63614" data-name="Trazado 63614" d="M255.441,142.246H214.589a5.432,5.432,0,0,0-5.417,5.416v25.069a5.432,5.432,0,0,0,5.417,5.416h14.337l6.089,12.534,6.136-12.534h14.291a5.432,5.432,0,0,0,5.417-5.416V147.662a5.432,5.432,0,0,0-5.417-5.416" transform="translate(-66.456 -45.193)" fill="#8c5b4c" fill-rule="evenodd"/>
    <path id="Trazado_63615" data-name="Trazado 63615" d="M255.441,139.63H214.589a5.432,5.432,0,0,0-5.417,5.416v25.069a5.432,5.432,0,0,0,5.417,5.416h14.337l6.089,12.535,6.136-12.535h14.291a5.432,5.432,0,0,0,5.417-5.416V145.046a5.432,5.432,0,0,0-5.417-5.416" transform="translate(-66.456 -44.362)" fill="#a66d58" fill-rule="evenodd"/>
    <path id="Trazado_63616" data-name="Trazado 63616" d="M234.479,155.085h21.98l-3.14,10.467H237.651Z" transform="translate(-74.496 -49.272)" fill="none" stroke="#fff" stroke-linecap="round" stroke-linejoin="round" stroke-width="1"/>
    <path id="Trazado_63617" data-name="Trazado 63617" d="M231.783,152.511l-1.676-5.528h-4.114" transform="translate(-71.801 -46.698)" fill="none" stroke="#fff" stroke-linecap="round" stroke-linejoin="round" stroke-width="1"/>
    <path id="Trazado_63618" data-name="Trazado 63618" d="M237.422,170.426h-2.047c-2.177,0-2.14,3.426,0,3.426h18.9l2.917,3.134" transform="translate(-74.267 -54.146)" fill="none" stroke="#fff" stroke-linecap="round" stroke-linejoin="round" stroke-width="1"/>
    <path id="Trazado_63619" data-name="Trazado 63619" d="M241.211,179.171a2.457,2.457,0,1,1-2.458,2.458A2.458,2.458,0,0,1,241.211,179.171Z" transform="translate(-75.854 -56.925)" fill="none" stroke="#fff" stroke-linecap="round" stroke-linejoin="round" stroke-width="1"/>
    <path id="Trazado_63620" data-name="Trazado 63620" d="M258.456,179.171A2.457,2.457,0,1,1,256,181.629,2.458,2.458,0,0,1,258.456,179.171Z" transform="translate(-81.333 -56.925)" fill="none" stroke="#fff" stroke-linecap="round" stroke-linejoin="round" stroke-width="1"/>
    <path id="Trazado_63621" data-name="Trazado 63621" d="M216.472,268.764h36.4a8.373,8.373,0,0,1,0,16.746h-36.4a8.373,8.373,0,0,1,0-16.746" transform="translate(-66.116 -85.389)" fill="#57b3e0" fill-rule="evenodd"/>
    <path id="Trazado_63622" data-name="Trazado 63622" d="M200.725,246.2H257.54m-66.883-6.693h76.952" transform="translate(-60.574 -76.095)" fill="none" stroke="#302b36" stroke-miterlimit="22.926" stroke-width="0.251"/>
    <rect id="Rectángulo_25516" data-name="Rectángulo 25516" width="61.782" height="8.701" transform="translate(137.668 213.05)" fill="#e0e0e0"/>
    <path id="Trazado_63623" data-name="Trazado 63623" d="M376.053,268.748a5.16,5.16,0,0,1,5.144,5.144V277.5h-.577v-3.607a4.567,4.567,0,0,0-9.134,0V277.5h-.577v-3.607a5.16,5.16,0,0,1,5.144-5.144" transform="translate(-117.842 -85.384)" fill="#003336"/>
    <rect id="Rectángulo_25517" data-name="Rectángulo 25517" width="20.117" height="23.27" transform="translate(245.552 189.732)" fill="#57b3e0"/>
    <rect id="Rectángulo_25518" data-name="Rectángulo 25518" width="3.978" height="23.27" transform="translate(265.669 189.732)" fill="#3396c2"/>
    <path id="Trazado_63624" data-name="Trazado 63624" d="M367.162,280.448a.769.769,0,1,1-.769.769.769.769,0,0,1,.769-.769" transform="translate(-116.407 -89.101)" fill="#003336" fill-rule="evenodd"/>
    <path id="Trazado_63625" data-name="Trazado 63625" d="M381.4,280.448a.769.769,0,1,1-.769.769.769.769,0,0,1,.769-.769" transform="translate(-120.929 -89.101)" fill="#003336" fill-rule="evenodd"/>
    <path id="Trazado_63626" data-name="Trazado 63626" d="M372.242,268.748a5.159,5.159,0,0,1,5.144,5.144V277.5h-.577v-3.607a4.568,4.568,0,0,0-9.135,0V277.5H367.1v-3.607a5.158,5.158,0,0,1,5.144-5.144" transform="translate(-116.631 -85.384)" fill="#003336"/>
    <path id="Trazado_63627" data-name="Trazado 63627" d="M364.143,340.806a8.041,8.041,0,1,1-8.041,8.041,8.041,8.041,0,0,1,8.041-8.041" transform="translate(-113.137 -108.278)" fill="#302b36" fill-rule="evenodd"/>
    <path id="Trazado_63628" data-name="Trazado 63628" d="M420.573,340.806a8.041,8.041,0,1,1-8.041,8.041,8.041,8.041,0,0,1,8.041-8.041" transform="translate(-131.066 -108.278)" fill="#302b36" fill-rule="evenodd"/>
    <rect id="Rectángulo_25519" data-name="Rectángulo 25519" width="16.002" height="22.114" transform="translate(279.455 190.317)" fill="#57b3e0"/>
    <rect id="Rectángulo_25520" data-name="Rectángulo 25520" width="15.841" height="22.114" transform="translate(263.614 190.317)" fill="#3396c2"/>
    <rect id="Rectángulo_25521" data-name="Rectángulo 25521" width="2.743" height="2.417" transform="translate(280.601 193.292)" fill="#3396c2"/>
    <rect id="Rectángulo_25522" data-name="Rectángulo 25522" width="5.308" height="6.956" transform="translate(284.803 205.476)" fill="#3396c2"/>
    <rect id="Rectángulo_25523" data-name="Rectángulo 25523" width="14.123" height="18.261" transform="translate(276.769 172.057)" fill="#3396c2"/>
    <rect id="Rectángulo_25524" data-name="Rectángulo 25524" width="14.703" height="2.841" transform="translate(276.769 169.216)" fill="#3396c2"/>
    <rect id="Rectángulo_25525" data-name="Rectángulo 25525" width="6.454" height="18.261" transform="translate(270.316 172.057)" fill="#2b7da6"/>
    <rect id="Rectángulo_25526" data-name="Rectángulo 25526" width="7.035" height="2.841" transform="translate(269.734 169.216)" fill="#2b7da6"/>
    <rect id="Rectángulo_25527" data-name="Rectángulo 25527" width="1.299" height="18.261" transform="translate(272.893 172.057)" fill="#fadbed"/>
    <rect id="Rectángulo_25528" data-name="Rectángulo 25528" width="1.436" height="2.841" transform="translate(272.534 169.216)" fill="#fadbed"/>
    <rect id="Rectángulo_25529" data-name="Rectángulo 25529" width="6.454" height="0.924" transform="translate(270.316 172.057)" fill="#003336"/>
    <rect id="Rectángulo_25530" data-name="Rectángulo 25530" width="1.299" height="0.924" transform="translate(272.893 172.057)" fill="#f7cce6"/>
    <rect id="Rectángulo_25531" data-name="Rectángulo 25531" width="14.123" height="0.924" transform="translate(276.769 172.057)" fill="#003336"/>
    <rect id="Rectángulo_25532" data-name="Rectángulo 25532" width="1.991" height="18.261" transform="translate(282.835 172.057)" fill="#fff"/>
    <rect id="Rectángulo_25533" data-name="Rectángulo 25533" width="1.991" height="0.924" transform="translate(282.835 172.057)" fill="#fadbed"/>
    <rect id="Rectángulo_25534" data-name="Rectángulo 25534" width="1.964" height="2.841" transform="translate(283.139 169.216)" fill="#fff"/>
    <path id="Trazado_63629" data-name="Trazado 63629" d="M401.388,244.523q.421-2.49.842-4.98a8.464,8.464,0,0,0,5.259,3.821q.168.8.337,1.6c-2.98.581-5.449.716-6.438-.436" transform="translate(-127.525 -76.105)" fill="#003336" fill-rule="evenodd"/>
    <path id="Trazado_63630" data-name="Trazado 63630" d="M410.06,245.089l.141.037q.168.8.336,1.6l-.175.033a1.465,1.465,0,0,1-.3-1.665" transform="translate(-130.237 -77.867)" fill="#002e29" fill-rule="evenodd"/>
    <path id="Trazado_63631" data-name="Trazado 63631" d="M408.269,242.874c-2.28-1.934-4.464-3.674-5.647-3.349a6.706,6.706,0,0,0,5.26,3.82l.387-.471" transform="translate(-127.917 -76.087)" fill="#002e29" fill-rule="evenodd"/>
    <path id="Trazado_63632" data-name="Trazado 63632" d="M419.525,244.523q-.422-2.49-.842-4.98a8.466,8.466,0,0,1-5.259,3.821q-.169.8-.337,1.6c2.98.581,5.448.716,6.438-.436" transform="translate(-131.242 -76.105)" fill="#003336" fill-rule="evenodd"/>
    <path id="Trazado_63633" data-name="Trazado 63633" d="M413.705,245.032c-.093.026-.186.051-.282.075l-.336,1.6.308.059a1.466,1.466,0,0,0,.31-1.729" transform="translate(-131.242 -77.849)" fill="#002e29" fill-rule="evenodd"/>
    <path id="Trazado_63634" data-name="Trazado 63634" d="M413.013,242.874c2.279-1.934,4.464-3.674,5.646-3.349a6.729,6.729,0,0,1-5.259,3.82l-.387-.471" transform="translate(-131.219 -76.087)" fill="#002e29" fill-rule="evenodd"/>
    <path id="Trazado_63635" data-name="Trazado 63635" d="M411.444,244.014a1.352,1.352,0,1,1-1.352,1.352,1.352,1.352,0,0,1,1.352-1.352" transform="translate(-130.291 -77.526)" fill="#003336" fill-rule="evenodd"/>
    <path id="Trazado_63636" data-name="Trazado 63636" d="M413,262.3H342.618L352.653,295.4h50.42Zm-71.155-1.142h71.922a.571.571,0,0,1,.537.766l-10.265,34.216a.57.57,0,0,1-.547.408H352.232a.572.572,0,0,1-.56-.456l-10.367-34.2a.57.57,0,0,1,.379-.71.581.581,0,0,1,.165-.025Z" transform="translate(-108.429 -82.972)" fill="#1c2e36"/>
    <path id="Trazado_63637" data-name="Trazado 63637" d="M333.572,253.139a.569.569,0,0,1-1.089.33l-5.359-17.682h-13.04a.571.571,0,1,1,0-1.141h13.461a.57.57,0,0,1,.544.4Z" transform="translate(-99.606 -74.55)" fill="#302b36"/>
    <path id="Trazado_63638" data-name="Trazado 63638" d="M351.481,311.351a.571.571,0,0,1,0,1.143h-6.7a4.428,4.428,0,0,0-4.352,2.92,5.833,5.833,0,0,0-.377,2.089,5.9,5.9,0,0,0,.382,2.091,4.455,4.455,0,0,0,4.348,2.969h61.841a.569.569,0,0,1,.441.209L416.588,333a.57.57,0,1,1-.834.776L406.379,323.7H344.785a5.553,5.553,0,0,1-5.414-3.7,7.055,7.055,0,0,1-.453-2.5,6.967,6.967,0,0,1,.448-2.5,5.523,5.523,0,0,1,5.419-3.656Z" transform="translate(-107.678 -98.92)" fill="#302b36"/>
    <path id="Trazado_63639" data-name="Trazado 63639" d="M347.24,280.082a.571.571,0,0,1,0-1.143h64.6a.571.571,0,0,1,0,1.143Z" transform="translate(-110.14 -88.622)" fill="#1c2e36"/>
    <path id="Trazado_63640" data-name="Trazado 63640" d="M352.319,296.837a.571.571,0,0,1,0-1.142h57.708a.571.571,0,0,1,0,1.142Z" transform="translate(-111.754 -93.945)" fill="#302b36"/>
    <path id="Trazado_63641" data-name="Trazado 63641" d="M367.749,148.067h31.6a4.27,4.27,0,0,0,4.257-4.257v-9.753a4.269,4.269,0,0,0-4.257-4.257H365.2c-4.4,0-9.532,3.168-9.532,7.484v17.511c2.747-3.812,7.53-6.728,12.085-6.728" transform="translate(-112.998 -41.239)" fill="#57b3e0" fill-rule="evenodd"/>
    <path id="Trazado_63642" data-name="Trazado 63642" d="M401.76,146.214h-31.6a13.428,13.428,0,0,0-6.435,1.809,16.992,16.992,0,0,0-5.438,4.8.247.247,0,0,1-.458-.127v-17.51a6.878,6.878,0,0,1,2.913-5.331,11.535,11.535,0,0,1,6.865-2.4H401.76a4.515,4.515,0,0,1,4.5,4.5v9.754a4.516,4.516,0,0,1-4.5,4.5m-31.6-.493h31.6a4.024,4.024,0,0,0,4.01-4.01v-9.754a4.023,4.023,0,0,0-4.01-4.01H367.608a11.02,11.02,0,0,0-6.562,2.295,6.4,6.4,0,0,0-2.724,4.944v16.779a17.621,17.621,0,0,1,5.165-4.37,13.9,13.9,0,0,1,6.673-1.873" transform="translate(-113.686 -40.494)" fill="#1c2e36"/>
    <path id="Trazado_63643" data-name="Trazado 63643" d="M410.714,138.772l-.915,1.79-2.036.354,1.421,1.423-.293,2.046,1.793-.911,1.854.911-.312-1.987,1.44-1.482-1.985-.317Z" transform="translate(-129.551 -44.089)" fill="#fff" fill-rule="evenodd"/>
    <path id="Trazado_63644" data-name="Trazado 63644" d="M400.213,138.772l-.915,1.79-2.036.354,1.421,1.423-.293,2.046,1.793-.911,1.854.911-.312-1.987,1.44-1.482-1.985-.317Z" transform="translate(-126.214 -44.089)" fill="#fff" fill-rule="evenodd"/>
    <path id="Trazado_63645" data-name="Trazado 63645" d="M389.711,138.772l-.915,1.79-2.037.354,1.421,1.423-.293,2.046,1.792-.911,1.854.911-.312-1.987,1.44-1.482-1.986-.317Z" transform="translate(-122.878 -44.089)" fill="#fff" fill-rule="evenodd"/>
    <path id="Trazado_63646" data-name="Trazado 63646" d="M379.21,138.772l-.915,1.79-2.036.354,1.42,1.423-.293,2.046,1.792-.911,1.855.911-.312-1.987,1.44-1.482-1.985-.317Z" transform="translate(-119.542 -44.089)" fill="#fff" fill-rule="evenodd"/>
    <path id="Trazado_63647" data-name="Trazado 63647" d="M368.709,138.772l-.915,1.79-2.036.354,1.42,1.423-.293,2.046,1.793-.911,1.854.911-.312-1.987,1.44-1.482-1.985-.317Z" transform="translate(-116.205 -44.089)" fill="#fff" fill-rule="evenodd"/>
    <path id="Trazado_63648" data-name="Trazado 63648" d="M340.083,30.078a2.65,2.65,0,1,1-2.65,2.65,2.65,2.65,0,0,1,2.65-2.65m36.78,7.262V28.116h6.661V29.2h-5.436v2.834h5.089v1.082h-5.089v3.144h5.655V37.34Zm-7.7,0V28.116h1.225v8.142h4.535V37.34Zm-7.352-3.788h3.143L364,30.995q-.434-1.166-.661-1.926a13.015,13.015,0,0,1-.509,1.776Zm-2.654,3.788,3.538-9.225h1.342L367.8,37.34h-1.389l-1.067-2.8h-3.885l-1,2.8Zm-8.434-2.963,1.147-.1a2.545,2.545,0,0,0,.379,1.142,2.094,2.094,0,0,0,.928.721,3.493,3.493,0,0,0,1.415.275,3.372,3.372,0,0,0,1.233-.207,1.711,1.711,0,0,0,.794-.574,1.332,1.332,0,0,0,.262-.79,1.2,1.2,0,0,0-.251-.756,1.89,1.89,0,0,0-.831-.544c-.247-.093-.795-.244-1.643-.448a8.374,8.374,0,0,1-1.78-.576,2.493,2.493,0,0,1-.981-.86,2.107,2.107,0,0,1-.324-1.149,2.346,2.346,0,0,1,.4-1.308,2.454,2.454,0,0,1,1.157-.923,4.382,4.382,0,0,1,1.692-.316,4.606,4.606,0,0,1,1.808.331,2.593,2.593,0,0,1,1.2.973,2.8,2.8,0,0,1,.453,1.453l-1.172.091a1.881,1.881,0,0,0-.638-1.319,2.483,2.483,0,0,0-1.608-.446,2.579,2.579,0,0,0-1.615.406,1.218,1.218,0,0,0-.507.978,1.054,1.054,0,0,0,.359.819,4.889,4.889,0,0,0,1.84.657,12.358,12.358,0,0,1,2.042.587,2.793,2.793,0,0,1,1.187.939,2.276,2.276,0,0,1,.382,1.308,2.5,2.5,0,0,1-.42,1.385,2.776,2.776,0,0,1-1.209,1.011,4.215,4.215,0,0,1-1.776.361,5.287,5.287,0,0,1-2.093-.365,2.912,2.912,0,0,1-1.325-1.1,3.1,3.1,0,0,1-.507-1.656M343.85,20.462H388.9c1.863,0,3.017-.389,3.017,1.354V43.759c0,1.49-.969,1.249-2.459,1.249h-45.1c-2,0-1.623.276-3.045-1.089l-9.605-9.225c-1.943-1.867-1.722-2.265.237-4.147l9.719-9.334c1-.965.769-.752,2.183-.752" transform="translate(-104.959 -6.489)" fill="#57b3e0" fill-rule="evenodd"/>
    <path id="Trazado_63649" data-name="Trazado 63649" d="M343.376,39.873a2.652,2.652,0,1,0-2.65-2.65,2.65,2.65,0,0,0,2.65,2.65" transform="translate(-108.252 -10.984)" fill="#fff" fill-rule="evenodd"/>
    <path id="Trazado_63650" data-name="Trazado 63650" d="M367.157,36.939A2.791,2.791,0,0,0,365.97,36a12.358,12.358,0,0,0-2.042-.587,4.886,4.886,0,0,1-1.84-.658,1.053,1.053,0,0,1-.359-.818,1.216,1.216,0,0,1,.507-.978,2.577,2.577,0,0,1,1.614-.407,2.484,2.484,0,0,1,1.609.447,1.878,1.878,0,0,1,.637,1.318l1.173-.09a2.8,2.8,0,0,0-.453-1.454,2.6,2.6,0,0,0-1.2-.972,4.606,4.606,0,0,0-1.808-.331,4.367,4.367,0,0,0-1.692.316,2.447,2.447,0,0,0-1.157.923,2.345,2.345,0,0,0-.4,1.308,2.1,2.1,0,0,0,.324,1.148,2.5,2.5,0,0,0,.981.861,8.36,8.36,0,0,0,1.78.576q1.272.306,1.643.448a1.883,1.883,0,0,1,.83.544,1.2,1.2,0,0,1,.252.755,1.339,1.339,0,0,1-.262.791,1.709,1.709,0,0,1-.795.573,3.356,3.356,0,0,1-1.232.208,3.5,3.5,0,0,1-1.415-.275,2.1,2.1,0,0,1-.928-.721,2.553,2.553,0,0,1-.379-1.143l-1.148.1a3.094,3.094,0,0,0,.508,1.655,2.915,2.915,0,0,0,1.324,1.1,5.3,5.3,0,0,0,2.093.365,4.223,4.223,0,0,0,1.776-.361,2.769,2.769,0,0,0,1.209-1.012,2.493,2.493,0,0,0,.421-1.384,2.275,2.275,0,0,0-.382-1.308" transform="translate(-114.442 -9.998)" fill="#fff" fill-rule="evenodd"/>
    <path id="Trazado_63651" data-name="Trazado 63651" d="M375.224,37.133l1.012-2.707a13.083,13.083,0,0,0,.509-1.776q.228.761.661,1.927l.962,2.557Zm5.983,3.788L377.451,31.7h-1.342l-3.538,9.225h1.294l1-2.8h3.884l1.067,2.8Z" transform="translate(-118.37 -10.07)" fill="#fff" fill-rule="evenodd"/>
    <path id="Trazado_63652" data-name="Trazado 63652" d="M388.461,39.839V31.7h-1.224v9.225H393V39.839Z" transform="translate(-123.029 -10.07)" fill="#fff" fill-rule="evenodd"/>
    <path id="Trazado_63653" data-name="Trazado 63653" d="M404.829,36.7V35.614h-5.089V32.779h5.437V31.7h-6.661v9.224h6.88V39.839h-5.656V36.7Z" transform="translate(-126.613 -10.071)" fill="#fff" fill-rule="evenodd"/>
    <path id="Trazado_63654" data-name="Trazado 63654" d="M321.373,11.642q.4-.592.795-1.187c.476-.724.95-1.465,1.36-2.229a11.126,11.126,0,0,0,1.17-3.137,5.523,5.523,0,0,0,0-2.288,2.34,2.34,0,0,0-1.837-1.94,2.362,2.362,0,0,0-2.265,1.594c-.857,1.844-.537,4.423-.078,6.323a27.056,27.056,0,0,0,.858,2.864m-.2,1.8-.088.13a70.681,70.681,0,0,0-3.821,6.105,27.423,27.423,0,0,0-2.12,4.9,14.6,14.6,0,0,0-.712,4.961c.3,6.568,6.235,10.349,11.706,12.65l.216.091a.94.94,0,1,1-.373.764l-.173-.073c-5.807-2.442-11.905-6.454-12.225-13.393a15.439,15.439,0,0,1,.748-5.25,28.2,28.2,0,0,1,2.185-5.053,71.5,71.5,0,0,1,3.865-6.179l.4-.592a27.553,27.553,0,0,1-1.1-3.523c-.509-2.112-.815-4.84.134-6.88a3.174,3.174,0,0,1,3.133-2.08A3.16,3.16,0,0,1,325.522,2.6a6.37,6.37,0,0,1,.011,2.644,11.97,11.97,0,0,1-1.257,3.381c-.422.787-.909,1.549-1.4,2.295-.373.565-.752,1.125-1.133,1.684A24.412,24.412,0,0,0,332.6,24.687a2.642,2.642,0,0,0-.381.76,25.326,25.326,0,0,1-11.044-12.006" transform="translate(-99.626 0)" fill="#4d4d4d" fill-rule="evenodd"/>
    <rect id="Rectángulo_25535" data-name="Rectángulo 25535" width="331.795" height="0.714" transform="translate(1.603 248.61)" fill="#1c2e36"/>
  </g>
</svg>
