<svg xmlns="http://www.w3.org/2000/svg" width="121" height="121" viewBox="0 0 121 121">
  <g id="Grupo_25958" data-name="Grupo 25958" transform="translate(-282 -9524)">
    <g id="Grupo_25954" data-name="Grupo 25954" transform="translate(2543 13431)">
      <circle id="Elipse_497" data-name="Elipse 497" cx="60.5" cy="60.5" r="60.5" transform="translate(-2261 -3907)" fill="#d9a171"/>
      <path id="Trazado_1178" data-name="Trazado 1178" d="M53.993,0A53.993,53.993,0,1,1,0,53.993,53.993,53.993,0,0,1,53.993,0Z" transform="translate(-2254 -3900)" fill="#fff"/>
    </g>
    <g id="Grupo_25939" data-name="Grupo 25939" transform="translate(307 9550)">
      <path id="Trazado_68066" data-name="Trazado 68066" d="M1139.911,2412.069h-69.127a.83.83,0,0,1-.4-1.556l34.563-19.163a.827.827,0,0,1,.8,0l34.564,19.163a.83.83,0,0,1-.4,1.556Zm-65.919-1.66h62.71l-31.355-17.385Z" transform="translate(-1069.954 -2391.245)" fill="#344154"/>
      <path id="Trazado_68067" data-name="Trazado 68067" d="M1094.65,2411.654l21.73-12.048,21.729,12.048-11-3.171a38.742,38.742,0,0,0-21.455,0Z" transform="translate(-1080.986 -2394.98)" fill="#d9a171"/>
      <path id="Trazado_68068" data-name="Trazado 68068" d="M1138.953,2431.86h-59.171a.83.83,0,0,1-.83-.83v-4.319a.83.83,0,1,1,1.66,0v3.489h57.511v-3.489a.83.83,0,1,1,1.66,0v4.319A.83.83,0,0,1,1138.953,2431.86Z" transform="translate(-1073.974 -2406.718)" fill="#344154"/>
      <path id="Trazado_68069" data-name="Trazado 68069" d="M1079.782,2496.871a.83.83,0,0,1-.83-.83v-5.492a.83.83,0,0,1,.83-.83h37.826a.83.83,0,1,1,0,1.66h-37v4.663A.83.83,0,0,1,1079.782,2496.871Z" transform="translate(-1073.974 -2435.235)" fill="#344154"/>
      <path id="Trazado_68070" data-name="Trazado 68070" d="M1088.858,2440.914a2.717,2.717,0,0,1-2.582-1.881h-2.032a2.711,2.711,0,0,1-5.293-.83v-3.685a.83.83,0,0,1,.83-.83h10.957a.83.83,0,0,1,.83.83v3.685A2.714,2.714,0,0,1,1088.858,2440.914Zm-5.313-3.541h3.431a.83.83,0,0,1,.83.83,1.052,1.052,0,0,0,2.1,0v-2.855h-9.3v2.855a1.052,1.052,0,0,0,2.1,0A.83.83,0,0,1,1083.545,2437.373Z" transform="translate(-1073.974 -2410.205)" fill="#344154"/>
      <path id="Trazado_68071" data-name="Trazado 68071" d="M1090.739,2486.884h-10.957a.83.83,0,0,1-.83-.83v-3.685a2.711,2.711,0,0,1,5.293-.83h2.032a2.711,2.711,0,0,1,5.293.83v3.685A.83.83,0,0,1,1090.739,2486.884Zm-10.127-1.66h9.3v-2.855a1.052,1.052,0,1,0-2.1,0,.83.83,0,0,1-.83.83h-3.431a.83.83,0,0,1-.83-.83,1.052,1.052,0,1,0-2.1,0Z" transform="translate(-1073.974 -2430.74)" fill="#344154"/>
      <path id="Trazado_68072" data-name="Trazado 68072" d="M1134.31,2486.884h-10.958a.83.83,0,0,1-.83-.83v-3.685a2.711,2.711,0,0,1,5.293-.83h2.032a2.711,2.711,0,0,1,5.293.83v3.685A.83.83,0,0,1,1134.31,2486.884Zm-10.128-1.66h9.3v-2.855a1.052,1.052,0,1,0-2.1,0,.83.83,0,0,1-.83.83h-3.432a.83.83,0,0,1-.83-.83,1.052,1.052,0,1,0-2.1,0Z" transform="translate(-1093.437 -2430.74)" fill="#344154"/>
      <path id="Trazado_68073" data-name="Trazado 68073" d="M1132.428,2440.914a2.716,2.716,0,0,1-2.581-1.881h-2.032a2.712,2.712,0,0,1-5.293-.83v-3.685a.83.83,0,0,1,.83-.83h10.958a.83.83,0,0,1,.83.83v3.685A2.714,2.714,0,0,1,1132.428,2440.914Zm-5.313-3.541h3.432a.83.83,0,0,1,.83.83,1.052,1.052,0,0,0,2.1,0v-2.855h-9.3v2.855a1.052,1.052,0,0,0,2.1,0A.83.83,0,0,1,1127.115,2437.373Z" transform="translate(-1093.437 -2410.205)" fill="#344154"/>
      <path id="Trazado_68074" data-name="Trazado 68074" d="M1176,2440.914a2.716,2.716,0,0,1-2.582-1.881h-2.032a2.712,2.712,0,0,1-5.293-.83v-3.685a.83.83,0,0,1,.83-.83h10.957a.83.83,0,0,1,.83.83v3.685A2.714,2.714,0,0,1,1176,2440.914Zm-5.313-3.541h3.431a.83.83,0,0,1,.83.83,1.052,1.052,0,0,0,2.1,0v-2.855h-9.3v2.855a1.052,1.052,0,0,0,2.1,0A.83.83,0,0,1,1170.686,2437.373Z" transform="translate(-1112.901 -2410.205)" fill="#344154"/>
      <g id="Grupo_25937" data-name="Grupo 25937" transform="translate(6.86 29.049)">
        <path id="Trazado_68075" data-name="Trazado 68075" d="M1083.183,2465.276a.83.83,0,0,1-.83-.83v-19.868a.83.83,0,0,1,1.66,0v19.868A.83.83,0,0,1,1083.183,2465.276Z" transform="translate(-1082.353 -2443.748)" fill="#344154"/>
        <path id="Trazado_68076" data-name="Trazado 68076" d="M1096.186,2465.276a.83.83,0,0,1-.83-.83v-19.868a.83.83,0,0,1,1.66,0v19.868A.83.83,0,0,1,1096.186,2465.276Z" transform="translate(-1088.162 -2443.748)" fill="#344154"/>
      </g>
      <path id="Trazado_68077" data-name="Trazado 68077" d="M1126.753,2465.276a.83.83,0,0,1-.83-.83v-19.868a.83.83,0,0,1,1.66,0v19.868A.83.83,0,0,1,1126.753,2465.276Z" transform="translate(-1094.956 -2414.699)" fill="#344154"/>
      <path id="Trazado_68078" data-name="Trazado 68078" d="M1139.756,2465.276a.83.83,0,0,1-.83-.83v-19.868a.83.83,0,0,1,1.66,0v19.868A.83.83,0,0,1,1139.756,2465.276Z" transform="translate(-1100.765 -2414.699)" fill="#344154"/>
      <path id="Trazado_68079" data-name="Trazado 68079" d="M1170.323,2457.512a.83.83,0,0,1-.83-.83v-12.1a.83.83,0,0,1,1.66,0v12.1A.83.83,0,0,1,1170.323,2457.512Z" transform="translate(-1114.42 -2414.699)" fill="#344154"/>
      <path id="Trazado_68080" data-name="Trazado 68080" d="M1183.327,2458.136a.83.83,0,0,1-.83-.83v-12.728a.83.83,0,0,1,1.66,0v12.728A.83.83,0,0,1,1183.327,2458.136Z" transform="translate(-1120.229 -2414.699)" fill="#344154"/>
      <path id="Trazado_68081" data-name="Trazado 68081" d="M1116.11,2506h-45.326a.83.83,0,0,1-.83-.83v-.1a5.437,5.437,0,0,1,5.432-5.431h38.2a.83.83,0,1,1,0,1.66h-38.2a3.778,3.778,0,0,0-3.7,3.039h44.425a.83.83,0,1,1,0,1.66Z" transform="translate(-1069.954 -2439.67)" fill="#344154"/>
      <g id="Grupo_25938" data-name="Grupo 25938" transform="translate(52.028 50.93)">
        <path id="Trazado_68082" data-name="Trazado 68082" d="M1170.083,2495.718a.822.822,0,0,1-.4-.1.831.831,0,0,1-.328-1.127l5.911-10.761a.83.83,0,1,1,1.454.8l-5.911,10.761A.832.832,0,0,1,1170.083,2495.718Z" transform="translate(-1166.341 -2483.297)" fill="#344154"/>
        <path id="Trazado_68083" data-name="Trazado 68083" d="M1181.267,2500.246a2.747,2.747,0,0,1-2.744-2.744v-1.324a2.743,2.743,0,1,1,5.487,0v1.324A2.747,2.747,0,0,1,1181.267,2500.246Zm0-5.152a1.085,1.085,0,0,0-1.084,1.084v1.324a1.084,1.084,0,1,0,2.167,0v-1.324A1.084,1.084,0,0,0,1181.267,2495.094Z" transform="translate(-1170.482 -2487.825)" fill="#344154"/>
        <path id="Trazado_68084" data-name="Trazado 68084" d="M1166.734,2490.109a2.747,2.747,0,0,1-2.744-2.743v-1.325a2.743,2.743,0,0,1,5.487,0v1.325A2.746,2.746,0,0,1,1166.734,2490.109Zm0-5.151a1.085,1.085,0,0,0-1.084,1.083v1.325a1.084,1.084,0,0,0,2.167,0v-1.325A1.084,1.084,0,0,0,1166.734,2484.957Z" transform="translate(-1163.99 -2483.297)" fill="#344154"/>
      </g>
      <path id="Trazado_68085" data-name="Trazado 68085" d="M1165.987,2496.961a12.668,12.668,0,1,1,12.668-12.668A12.683,12.683,0,0,1,1165.987,2496.961Zm0-23.677A11.009,11.009,0,1,0,1177,2484.293,11.021,11.021,0,0,0,1165.987,2473.285Z" transform="translate(-1107.195 -2427.152)" fill="#344154"/>
    </g>
  </g>
</svg>
