<svg id="Grupo_26050" data-name="Grupo 26050" xmlns="http://www.w3.org/2000/svg" width="79.169" height="84.965" viewBox="0 0 79.169 84.965">
  <path id="Trazado_68239" data-name="Trazado 68239" d="M4077.835,875.189H4004.4a1.028,1.028,0,0,1-1.028-1.028V802.544a1.028,1.028,0,0,1,2.055,0v70.59h72.4a1.028,1.028,0,0,1,0,2.055Z" transform="translate(-3999.694 -790.225)" fill="#344154"/>
  <path id="Trazado_68240" data-name="Trazado 68240" d="M4095.289,875.338h-18.24a1.028,1.028,0,0,1,0-2.055h18.24a1.028,1.028,0,0,1,0,2.055Z" transform="translate(-4022.572 -812.826)" fill="#344154"/>
  <path id="Trazado_68241" data-name="Trazado 68241" d="M4095.289,886.18h-18.24a1.028,1.028,0,0,1,0-2.055h18.24a1.028,1.028,0,0,1,0,2.055Z" transform="translate(-4022.572 -816.24)" fill="#344154"/>
  <path id="Trazado_68242" data-name="Trazado 68242" d="M4095.289,897.021h-18.24a1.028,1.028,0,0,1,0-2.055h18.24a1.028,1.028,0,0,1,0,2.055Z" transform="translate(-4022.572 -819.654)" fill="#344154"/>
  <g id="Grupo_26045" data-name="Grupo 26045" transform="translate(51.511 0)">
    <g id="Grupo_26044" data-name="Grupo 26044" transform="translate(8.078)">
      <path id="Trazado_68243" data-name="Trazado 68243" d="M4090.862,796.793a5.879,5.879,0,1,1,5.88-5.879A5.886,5.886,0,0,1,4090.862,796.793Zm0-9.7a3.824,3.824,0,1,0,3.825,3.824A3.829,3.829,0,0,0,4090.862,787.089Z" transform="translate(-4084.983 -785.034)" fill="#344154"/>
    </g>
    <path id="Trazado_68244" data-name="Trazado 68244" d="M4088.027,850.44a1.027,1.027,0,0,1-1.028-1.028V832.565a1.028,1.028,0,0,1,2.055,0v16.847A1.028,1.028,0,0,1,4088.027,850.44Z" transform="translate(-4077.54 -799.679)" fill="#344154"/>
    <path id="Trazado_68245" data-name="Trazado 68245" d="M4098.161,850.152a1.028,1.028,0,0,1-1.028-1.028v-16.56a1.028,1.028,0,1,1,2.055,0v16.56A1.027,1.027,0,0,1,4098.161,850.152Z" transform="translate(-4080.731 -799.679)" fill="#344154"/>
    <path id="Trazado_68246" data-name="Trazado 68246" d="M4083.566,818.35h-9.348a1.028,1.028,0,1,1,0-2.055h9.348a2.557,2.557,0,0,0,2.555-2.555v-2.024a1.028,1.028,0,1,1,2.055,0v2.024A4.615,4.615,0,0,1,4083.566,818.35Z" transform="translate(-4073.191 -793.113)" fill="#344154"/>
    <path id="Trazado_68247" data-name="Trazado 68247" d="M4093.582,862.376a1.028,1.028,0,0,1-1.027-1.028v-3.584h-4.322a3.588,3.588,0,0,0-3.584,3.584,1.028,1.028,0,1,1-2.055,0,5.646,5.646,0,0,1,5.639-5.64h5.349a1.028,1.028,0,0,1,1.028,1.028v4.612A1.028,1.028,0,0,1,4093.582,862.376Z" transform="translate(-4076.152 -807.291)" fill="#344154"/>
    <path id="Trazado_68248" data-name="Trazado 68248" d="M4093.981,824.737h-6.942a1.028,1.028,0,0,1-.907-.545,19.289,19.289,0,0,1-2.048-6.165,1.027,1.027,0,1,1,2.031-.311,17.247,17.247,0,0,0,1.553,4.965h5.685a17.344,17.344,0,0,0,1.751-7.578v-5.037a4.594,4.594,0,0,0-9.187,0V812.4a1.028,1.028,0,0,1-2.055,0v-2.331a6.649,6.649,0,1,1,13.3,0V815.1a19.4,19.4,0,0,1-2.27,9.09A1.03,1.03,0,0,1,4093.981,824.737Z" transform="translate(-4076.551 -790.823)" fill="#344154"/>
  </g>
  <path id="Trazado_68249" data-name="Trazado 68249" d="M4095.289,894.376a1.028,1.028,0,0,1-1.028-1.028V864.5h-16.185v28.852a1.028,1.028,0,0,1-2.055,0v-29.88a1.027,1.027,0,0,1,1.028-1.028h18.24a1.027,1.027,0,0,1,1.028,1.028v29.88A1.028,1.028,0,0,1,4095.289,894.376Z" transform="translate(-4022.572 -809.411)" fill="#344154"/>
  <path id="Trazado_68250" data-name="Trazado 68250" d="M3999.03,799.6a1.028,1.028,0,0,1-.727-1.754l3.739-3.739a1.028,1.028,0,0,1,.727-.3h0a1.028,1.028,0,0,1,.727.3l3.625,3.639a1.027,1.027,0,1,1-1.456,1.45l-2.9-2.909-3.011,3.011A1.025,1.025,0,0,1,3999.03,799.6Z" transform="translate(-3998.001 -787.797)" fill="#344154"/>
  <path id="Trazado_68251" data-name="Trazado 68251" d="M4062.381,819.045a1.026,1.026,0,0,1-.819-.407l-2.481-3.274-3.389,2.578a1.027,1.027,0,1,1-1.244-1.635l4.208-3.2a1.027,1.027,0,0,1,1.441.2l3.1,4.094a1.027,1.027,0,0,1-.818,1.648Z" transform="translate(-4015.65 -793.808)" fill="#344154"/>
  <path id="Trazado_68252" data-name="Trazado 68252" d="M4006.394,812.7h-7.364a1.028,1.028,0,1,1,0-2.055h7.364a1.028,1.028,0,1,1,0,2.055Z" transform="translate(-3998.002 -793.098)" fill="#344154"/>
  <path id="Trazado_68253" data-name="Trazado 68253" d="M4006.394,828.821h-7.364a1.028,1.028,0,1,1,0-2.055h7.364a1.028,1.028,0,1,1,0,2.055Z" transform="translate(-3998.002 -798.176)" fill="#344154"/>
  <path id="Trazado_68254" data-name="Trazado 68254" d="M4006.394,844.946h-7.364a1.028,1.028,0,1,1,0-2.055h7.364a1.028,1.028,0,1,1,0,2.055Z" transform="translate(-3998.002 -803.254)" fill="#344154"/>
  <path id="Trazado_68255" data-name="Trazado 68255" d="M4006.394,861.071h-7.364a1.028,1.028,0,1,1,0-2.055h7.364a1.028,1.028,0,1,1,0,2.055Z" transform="translate(-3998.002 -808.333)" fill="#344154"/>
  <path id="Trazado_68256" data-name="Trazado 68256" d="M4006.394,877.2h-7.364a1.028,1.028,0,1,1,0-2.055h7.364a1.028,1.028,0,1,1,0,2.055Z" transform="translate(-3998.002 -813.411)" fill="#344154"/>
  <path id="Trazado_68257" data-name="Trazado 68257" d="M4006.394,893.321h-7.364a1.028,1.028,0,1,1,0-2.055h7.364a1.028,1.028,0,1,1,0,2.055Z" transform="translate(-3998.002 -818.489)" fill="#344154"/>
  <path id="Trazado_68258" data-name="Trazado 68258" d="M4017.9,870.938a1.029,1.029,0,0,1-.976-1.35l3.6-10.895a1.027,1.027,0,0,1,.976-.706h6.9l5.122-21.457a1.027,1.027,0,0,1,1-.789h8.236l3.073-14.734a1.028,1.028,0,0,1,2.012.419l-3.243,15.552a1.029,1.029,0,0,1-1.006.818h-8.26l-5.122,21.456a1.028,1.028,0,0,1-1,.789h-6.965l-3.363,10.19A1.029,1.029,0,0,1,4017.9,870.938Z" transform="translate(-4003.946 -796.105)" fill="#344154"/>
  <g id="Grupo_26047" data-name="Grupo 26047" transform="translate(11.104 39.636)">
    <g id="Grupo_26046" data-name="Grupo 26046">
      <path id="Trazado_68259" data-name="Trazado 68259" d="M4035.568,844.952a1.024,1.024,0,0,1-.2-.021,1.536,1.536,0,0,1-.192-.055,1.476,1.476,0,0,1-.178-.1,1.556,1.556,0,0,1-.158-.13,1.027,1.027,0,0,1,0-1.452,1.061,1.061,0,0,1,1.453,0,1.025,1.025,0,0,1,0,1.452A1.016,1.016,0,0,1,4035.568,844.952Z" transform="translate(-4020.612 -842.897)" fill="#344154"/>
      <path id="Trazado_68260" data-name="Trazado 68260" d="M4026.666,844.946h-.007a1.028,1.028,0,1,1,.007,0Zm-4.643,0h-.008a1.028,1.028,0,1,1,.008,0Z" transform="translate(-4016.344 -842.891)" fill="#344154"/>
      <path id="Trazado_68261" data-name="Trazado 68261" d="M4015.238,844.945a.922.922,0,0,1-.2-.021.873.873,0,0,1-.192-.062.722.722,0,0,1-.178-.089,1.047,1.047,0,0,1-.158-.13,1.022,1.022,0,0,1-.129-.158,1.094,1.094,0,0,1-.1-.178,1.664,1.664,0,0,1-.054-.192.973.973,0,0,1,0-.4,1.66,1.66,0,0,1,.054-.192,1.478,1.478,0,0,1,.1-.178,1.5,1.5,0,0,1,.129-.158,1.05,1.05,0,0,1,.158-.13.725.725,0,0,1,.178-.089.873.873,0,0,1,.192-.062,1.031,1.031,0,0,1,.925.281,1.505,1.505,0,0,1,.13.158,1.411,1.411,0,0,1,.1.178,1.568,1.568,0,0,1,.055.192.973.973,0,0,1,0,.4,1.571,1.571,0,0,1-.055.192,1.057,1.057,0,0,1-.1.178,1.025,1.025,0,0,1-.13.158A1.039,1.039,0,0,1,4015.238,844.945Z" transform="translate(-4014.21 -842.891)" fill="#344154"/>
    </g>
  </g>
  <g id="Grupo_26049" data-name="Grupo 26049" transform="translate(11.104 17.542)">
    <g id="Grupo_26048" data-name="Grupo 26048">
      <path id="Trazado_68262" data-name="Trazado 68262" d="M4050.778,812.7a1.028,1.028,0,0,1-1.028-1.028,1.042,1.042,0,0,1,.3-.726,1.547,1.547,0,0,1,.158-.13.866.866,0,0,1,.178-.089.882.882,0,0,1,.192-.062.971.971,0,0,1,.4,0,.891.891,0,0,1,.191.062.709.709,0,0,1,.179.089,1,1,0,0,1,.158.13,1.038,1.038,0,0,1,.3.726,1.029,1.029,0,0,1-1.027,1.028Z" transform="translate(-4025.402 -810.64)" fill="#344154"/>
      <path id="Trazado_68263" data-name="Trazado 68263" d="M4036.389,811.668a1.026,1.026,0,0,1,1.027-1.028h0a1.026,1.026,0,0,1,1.028,1.028h0a1.026,1.026,0,0,1-1.028,1.028h0A1.026,1.026,0,0,1,4036.389,811.668Zm-4.056,0a1.026,1.026,0,0,1,1.027-1.028h0a1.026,1.026,0,0,1,1.028,1.028h0a1.026,1.026,0,0,1-1.028,1.028h0A1.026,1.026,0,0,1,4032.333,811.668Zm-4.049,0a1.026,1.026,0,0,1,1.027-1.028h0a1.026,1.026,0,0,1,1.028,1.028h0a1.026,1.026,0,0,1-1.028,1.028h0A1.026,1.026,0,0,1,4028.285,811.668Zm-4.049,0a1.026,1.026,0,0,1,1.027-1.028h0a1.031,1.031,0,0,1,1.028,1.028h0a1.031,1.031,0,0,1-1.028,1.028h0A1.026,1.026,0,0,1,4024.236,811.668Zm-4.056,0a1.026,1.026,0,0,1,1.027-1.028h0a1.026,1.026,0,0,1,1.028,1.028h0a1.026,1.026,0,0,1-1.028,1.028h0A1.026,1.026,0,0,1,4020.18,811.668Z" transform="translate(-4016.09 -810.64)" fill="#344154"/>
      <path id="Trazado_68264" data-name="Trazado 68264" d="M4015.238,812.7a.918.918,0,0,1-.2-.021.873.873,0,0,1-.192-.062.729.729,0,0,1-.178-.089,1.058,1.058,0,0,1-.158-.13,1.042,1.042,0,0,1-.3-.726.932.932,0,0,1,.021-.2,1.662,1.662,0,0,1,.054-.192,1.469,1.469,0,0,1,.1-.178,1.489,1.489,0,0,1,.129-.158,1.043,1.043,0,0,1,.158-.13.72.72,0,0,1,.178-.089.867.867,0,0,1,.192-.062,1.031,1.031,0,0,1,.925.281,1.493,1.493,0,0,1,.13.158,1.4,1.4,0,0,1,.1.178,1.57,1.57,0,0,1,.055.192.932.932,0,0,1,.021.2,1.029,1.029,0,0,1-1.027,1.028Z" transform="translate(-4014.21 -810.64)" fill="#344154"/>
    </g>
  </g>
  <path id="Trazado_68265" data-name="Trazado 68265" d="M4053.025,828.266l-2.479,11.886-.682,3.272h-9.169l-4.556,19.089-.753,3.156h-7.98l-1.216,3.683H4039l5.31-22.575h7.992l4.025-18.511Z" transform="translate(-4006.878 -798.649)" fill="#d9a171"/>
</svg>
