<svg xmlns="http://www.w3.org/2000/svg" width="58.7" height="56.419" viewBox="0 0 58.7 56.419"><g transform="translate(-586.721 -118.809)"><g transform="translate(605.188 133.838)"><path d="M607.041,145.577a3.243,3.243,0,0,1-3.241-3.239.7.7,0,0,1,1.4,0,1.838,1.838,0,1,0,3.676,0c0-.743-.344-1.314-2.055-1.873-.747-.244-3.022-.987-3.022-3.207a3.24,3.24,0,1,1,6.48,0,.7.7,0,0,1-1.4,0,1.838,1.838,0,1,0-3.676,0c0,.56.234,1.278,2.057,1.873,1.407.461,3.022,1.24,3.022,3.207A3.243,3.243,0,0,1,607.041,145.577Z" transform="translate(-603.8 -132.602)" fill="#fff"/><path d="M606.85,135.543a.7.7,0,0,1-.7-.7v-1.434a.7.7,0,0,1,1.4,0v1.434A.7.7,0,0,1,606.85,135.543Z" transform="translate(-603.609 -132.708)" fill="#fff"/><path d="M606.85,146.246a.7.7,0,0,1-.7-.7v-1.433a.7.7,0,0,1,1.4,0v1.433A.7.7,0,0,1,606.85,146.246Z" transform="translate(-603.609 -131.838)" fill="#fff"/></g><path d="M614.513,149.255H600.257a.7.7,0,1,1,0-1.4h14.257a.7.7,0,1,1,0,1.4Z" transform="translate(1.043 2.36)" fill="#fff"/><path d="M614.513,153.889H600.257a.7.7,0,1,1,0-1.4h14.257a.7.7,0,1,1,0,1.4Z" transform="translate(1.043 2.737)" fill="#fff"/><path d="M612.319,128.3a2.759,2.759,0,0,1-2.541-1.717,2.614,2.614,0,0,0-4.816,0,2.749,2.749,0,0,1-2.511,1.717,2.7,2.7,0,0,1-2.725-2.693v-5.151a1.647,1.647,0,0,1,1.646-1.646h12a1.647,1.647,0,0,1,1.645,1.646v5.151A2.7,2.7,0,0,1,612.319,128.3Zm-4.949-4.715a4.011,4.011,0,0,1,3.7,2.452,1.35,1.35,0,0,0,1.219.862,1.3,1.3,0,0,0,1.323-1.292v-5.151a.245.245,0,0,0-.243-.244h-12a.245.245,0,0,0-.243.244v5.151a1.294,1.294,0,0,0,1.293,1.292,1.358,1.358,0,0,0,1.248-.862A4.012,4.012,0,0,1,607.371,123.584Z" transform="translate(1.057)" fill="#fff"/><path d="M638.632,169.265a2.8,2.8,0,0,1-2.8-2.8l-.05-35.04a.7.7,0,0,1,.7-.7l4.2-.016a1.233,1.233,0,0,1,.5.2.7.7,0,0,1,.207.5l.05,35.052a2.8,2.8,0,0,1-2.791,2.8Zm-1.448-37.138.049,34.339a1.4,1.4,0,0,0,1.4,1.4h.006a1.4,1.4,0,0,0,1.394-1.4l-.049-34.349Z" transform="translate(3.987 0.967)" fill="#fff"/><path d="M640.683,132.762h-4.2a.7.7,0,0,1-.7-.7V125.5a2.8,2.8,0,1,1,5.6,0v6.56A.7.7,0,0,1,640.683,132.762Zm-3.5-1.4h2.8V125.5a1.4,1.4,0,1,0-2.8,0Z" transform="translate(3.987 0.316)" fill="#fff"/><path d="M638.449,171.009a.7.7,0,0,1-.7-.7V165.78a.7.7,0,0,1,1.4,0v4.528A.7.7,0,0,1,638.449,171.009Z" transform="translate(4.147 3.76)" fill="#fff"/><path d="M623.623,174.912H590.747a.7.7,0,0,1-.7-.7v-4.39a.7.7,0,1,1,1.4,0v3.689h32.175a9.241,9.241,0,0,0,9.231-9.23V124.1h-3.69a.7.7,0,1,1,0-1.4h4.391a.7.7,0,0,1,.7.7v40.88A10.644,10.644,0,0,1,623.623,174.912Z" transform="translate(0.27 0.316)" fill="#fff"/><path d="M620.469,170.838H587.422a.7.7,0,0,1-.7-.7V119.51a.7.7,0,0,1,.7-.7h10.866a.7.7,0,0,1,0,1.4H588.122v49.226h32.346a2.056,2.056,0,0,0,2.053-2.052v-3.458a.7.7,0,0,1,.7-.7h3.458a2.056,2.056,0,0,0,2.052-2.053V120.21H618.568a.7.7,0,1,1,0-1.4h10.866a.7.7,0,0,1,.7.7v41.662a3.458,3.458,0,0,1-3.454,3.455h-2.756v2.757A3.459,3.459,0,0,1,620.469,170.838Z" fill="#fff"/><path d="M609.369,165.249h0a34,34,0,0,1-19.117-20l-.289-.807v20.8Z" transform="translate(0.263 2.083)" fill="#aed3f2" opacity="0.51"/></g></svg>