<svg xmlns="http://www.w3.org/2000/svg" xmlns:xlink="http://www.w3.org/1999/xlink" width="115" height="115.988" viewBox="0 0 115 115.988">
  <defs>
    <filter id="Trazado_1178" x="2.367" y="6" width="109.987" height="109.988" filterUnits="userSpaceOnUse">
      <feOffset dy="3" input="SourceAlpha"/>
      <feGaussianBlur stdDeviation="3" result="blur"/>
      <feFlood flood-opacity="0.161"/>
      <feComposite operator="in" in2="blur"/>
      <feComposite in="SourceGraphic"/>
    </filter>
  </defs>
  <g id="Grupo_15891" data-name="Grupo 15891" transform="translate(-132 -2703)">
    <g id="Grupo_14740" data-name="Grupo 14740" transform="translate(-523 6858)">
      <circle id="Elipse_497" data-name="Elipse 497" cx="57.5" cy="57.5" r="57.5" transform="translate(655 -4155)" fill="#92934e" opacity="0.75"/>
      <g transform="matrix(1, 0, 0, 1, 655, -4155)" filter="url(#Trazado_1178)">
        <path id="Trazado_1178-2" data-name="Trazado 1178" d="M45.994,0A45.994,45.994,0,1,1,0,45.994,45.994,45.994,0,0,1,45.994,0Z" transform="translate(11.37 12)" fill="#fff"/>
      </g>
    </g>
    <g id="Grupo_14761" data-name="Grupo 14761" transform="translate(-208 -1299.55)">
      <g id="Grupo_14760" data-name="Grupo 14760" transform="translate(373 4035.454)">
        <g id="Grupo_14759" data-name="Grupo 14759">
          <path id="Trazado_30727" data-name="Trazado 30727" d="M401.948,4054.86a9.7,9.7,0,1,1,9.7-9.7A9.714,9.714,0,0,1,401.948,4054.86Zm0-17.677a7.974,7.974,0,1,0,7.974,7.974A7.983,7.983,0,0,0,401.948,4037.183Z" transform="translate(-373.705 -4035.454)" fill="#474747"/>
          <path id="Trazado_30728" data-name="Trazado 30728" d="M381.526,4074.714a9.655,9.655,0,0,1-6.748-2.737,6.485,6.485,0,0,1-1.6-5.957l0-.014,4.678-18.444a11.75,11.75,0,0,1,6-7.628l1.591-.826a22.166,22.166,0,0,1,11.388-2.457.865.865,0,0,1-.092,1.727,20.431,20.431,0,0,0-10.5,2.265l-1.591.826a10.028,10.028,0,0,0-5.12,6.512l-4.677,18.442a4.765,4.765,0,0,0,1.179,4.367,7.573,7.573,0,0,0,3.982,2.043,7.9,7.9,0,0,0,5.623-1.029.864.864,0,1,1,.89,1.481A9.608,9.608,0,0,1,381.526,4074.714Z" transform="translate(-373 -4035.497)" fill="#474747"/>
          <path id="Trazado_30729" data-name="Trazado 30729" d="M385.489,4068.294a3.822,3.822,0,0,1-3.678-4.863l3.783-14.5a.865.865,0,1,1,1.673.436l-3.786,14.512,0,.019a2.092,2.092,0,0,0,2.17,2.663l20.073-1.511a1.36,1.36,0,0,0,1.244-1.139l.361-2.189a1.912,1.912,0,0,0-1.5-2.188l-.492-.1a1.9,1.9,0,0,0-2.131,1.078l-.8,1.751a.866.866,0,0,1-.728.5l-12.905.862a.866.866,0,0,1-.894-1.083l2.169-8.236a.865.865,0,0,1,1.672.44l-1.863,7.073,11.192-.748.588-1.283a3.627,3.627,0,0,1,4.055-2.05l.492.1A3.635,3.635,0,0,1,409.03,4062l-.361,2.19a3.086,3.086,0,0,1-2.82,2.582l-20.073,1.512C385.68,4068.291,385.584,4068.294,385.489,4068.294Z" transform="translate(-373.317 -4035.924)" fill="#474747"/>
          <path id="Trazado_30730" data-name="Trazado 30730" d="M395.347,4063.433a.886.886,0,0,1-.215-.027.864.864,0,0,1-.623-1.051l.747-2.925a2.359,2.359,0,0,0-2.286-2.942h-1.7a.865.865,0,1,1,0-1.729h1.7a4.088,4.088,0,0,1,3.961,5.1l-.747,2.924A.866.866,0,0,1,395.347,4063.433Z" transform="translate(-373.637 -4036.161)" fill="#474747"/>
          <path id="Trazado_30731" data-name="Trazado 30731" d="M393.868,4083.25h-5.982a3.548,3.548,0,0,1-3.459-4.327l.01-.038,2.927-10.694a.864.864,0,1,1,1.668.457l-2.921,10.673a1.818,1.818,0,0,0,1.776,2.2h5.982a1.189,1.189,0,0,0,0-2.378h-2.545a.864.864,0,0,1-.834-1.091l2.88-10.6a.865.865,0,1,1,1.669.454l-2.583,9.505h1.414a2.919,2.919,0,0,1,0,5.837Z" transform="translate(-373.415 -4036.603)" fill="#474747"/>
          <path id="Trazado_30732" data-name="Trazado 30732" d="M395.34,4076.241a.866.866,0,0,1-.829-1.11l2.331-7.9a.864.864,0,1,1,1.658.489l-2.33,7.9A.865.865,0,0,1,395.34,4076.241Z" transform="translate(-373.786 -4036.595)" fill="#474747"/>
          <path id="Trazado_30733" data-name="Trazado 30733" d="M403.208,4080.732h-4.231a.865.865,0,0,1,0-1.729h4.231a1.189,1.189,0,0,0,0-2.378h-2.545a.865.865,0,0,1-.822-1.132l2.889-8.862a.865.865,0,1,1,1.644.537l-2.52,7.729h1.354a2.918,2.918,0,0,1,0,5.836Z" transform="translate(-373.92 -4036.574)" fill="#474747"/>
        </g>
        <path id="Trazado_30734" data-name="Trazado 30734" d="M421.412,4077.448a2.808,2.808,0,0,1-1.268-.3l-12.161-6.152a.858.858,0,0,1-.33-.294l-.985-1.485a.865.865,0,0,1,1.442-.955l.857,1.294,11.957,6.048a1.111,1.111,0,0,0,1.441-.408,1.106,1.106,0,0,0-.445-1.566l-10.311-5.2a.856.856,0,0,1-.321-.279l-1.086-1.565a.865.865,0,0,1,1.422-.984l.96,1.384,10.114,5.1a2.833,2.833,0,0,1-1.288,5.364Z" transform="translate(-374.228 -4036.545)" fill="#474747"/>
        <ellipse id="Elipse_744" data-name="Elipse 744" cx="1.917" cy="1.06" rx="1.917" ry="1.06" transform="translate(37.151 45.782)" fill="#474747"/>
        <ellipse id="Elipse_745" data-name="Elipse 745" cx="1.917" cy="1.06" rx="1.917" ry="1.06" transform="translate(42.538 43.292)" fill="#474747"/>
        <ellipse id="Elipse_746" data-name="Elipse 746" cx="1.917" cy="1.06" rx="1.917" ry="1.06" transform="translate(47.972 46.842)" fill="#474747"/>
        <ellipse id="Elipse_747" data-name="Elipse 747" cx="1.142" cy="0.837" rx="1.142" ry="0.837" transform="translate(49.889 43.737)" fill="#474747"/>
        <ellipse id="Elipse_748" data-name="Elipse 748" cx="1.142" cy="0.837" rx="1.142" ry="0.837" transform="translate(43.658 46.842)" fill="#474747"/>
      </g>
      <path id="Trazado_30735" data-name="Trazado 30735" d="M407.37,4058.059c0,1.055-.855,1-1.908,1s-1.908.059-1.908-1a1.908,1.908,0,1,1,3.817,0Z" transform="translate(-1.119 -0.758)" fill="#474747"/>
    </g>
  </g>
</svg>
