<svg xmlns="http://www.w3.org/2000/svg" xmlns:xlink="http://www.w3.org/1999/xlink" width="115" height="115.988" viewBox="0 0 115 115.988">
  <defs>
    <filter id="Trazado_1178" x="2.367" y="6" width="109.987" height="109.988" filterUnits="userSpaceOnUse">
      <feOffset dy="3" input="SourceAlpha"/>
      <feGaussianBlur stdDeviation="3" result="blur"/>
      <feFlood flood-opacity="0.161"/>
      <feComposite operator="in" in2="blur"/>
      <feComposite in="SourceGraphic"/>
    </filter>
  </defs>
  <g id="Grupo_15892" data-name="Grupo 15892" transform="translate(-139 -2871)">
    <g id="Grupo_14741" data-name="Grupo 14741" transform="translate(-516 7026)">
      <circle id="Elipse_497" data-name="Elipse 497" cx="57.5" cy="57.5" r="57.5" transform="translate(655 -4155)" fill="#ed8730" opacity="0.75"/>
      <g transform="matrix(1, 0, 0, 1, 655, -4155)" filter="url(#Trazado_1178)">
        <path id="Trazado_1178-2" data-name="Trazado 1178" d="M45.994,0A45.994,45.994,0,1,1,0,45.994,45.994,45.994,0,0,1,45.994,0Z" transform="translate(11.37 12)" fill="#fff"/>
      </g>
    </g>
    <g id="Grupo_14758" data-name="Grupo 14758" transform="translate(-341 -1042.513)">
      <g id="Grupo_14757" data-name="Grupo 14757">
        <g id="Grupo_14756" data-name="Grupo 14756">
          <path id="Trazado_30709" data-name="Trazado 30709" d="M536.4,3963.934c-4.687,0-5.743-2.716-6.862-5.592-.109-.282-.221-.57-.339-.862a3.127,3.127,0,0,0-.762-1.02,5.348,5.348,0,0,1-1.691-4.412,9.415,9.415,0,0,1,2.834-6.773,9.8,9.8,0,0,1,13.64,0,9.415,9.415,0,0,1,2.834,6.773c0,2.9-.983,3.865-1.773,4.639a3.08,3.08,0,0,0-.789,1.019c-.142.336-.275.67-.4.993C542.017,3961.391,541,3963.934,536.4,3963.934Zm0-19.646a7.91,7.91,0,0,0-5.577,2.254,7.654,7.654,0,0,0-2.3,5.506,3.667,3.667,0,0,0,1.186,3.172,4.757,4.757,0,0,1,1.138,1.6c.12.3.235.594.347.882,1.082,2.782,1.735,4.46,5.207,4.46,3.4,0,4.014-1.549,5.039-4.117.132-.331.268-.673.417-1.024a4.715,4.715,0,0,1,1.182-1.6c.665-.652,1.24-1.215,1.24-3.371a7.651,7.651,0,0,0-2.3-5.506A7.906,7.906,0,0,0,536.4,3944.288Z" fill="#454546"/>
          <path id="Trazado_30710" data-name="Trazado 30710" d="M553.768,3992.558H550.02a2.232,2.232,0,0,1-2.156-2.8l.708-2.675-1.825-16.11a.888.888,0,0,1,1.764-.2l1.845,16.276a.9.9,0,0,1-.024.327l-.751,2.837a.455.455,0,0,0,.439.571h3.748a.456.456,0,0,0,.367-.724l-1.75-2.386a.893.893,0,0,1-.168-.443l-2.044-22.068a1.639,1.639,0,0,0-3.168-.418L542,3978.256l1.19,7.767a3.091,3.091,0,0,1-2.874,3.878l-7.24.268a.888.888,0,1,1-.065-1.774l7.239-.268a1.315,1.315,0,0,0,1.216-1.676.78.78,0,0,1-.023-.109l-1.233-8.044a.9.9,0,0,1,.045-.443l5.086-13.729a3.414,3.414,0,0,1,6.6.872l2.021,21.822,1.6,2.188a2.231,2.231,0,0,1-1.8,3.55Z" fill="#454546"/>
          <path id="Trazado_30711" data-name="Trazado 30711" d="M542.676,3987.607a.9.9,0,0,1-.346-.07.889.889,0,0,1-.471-1.164l5.326-12.558a.888.888,0,0,1,1.635.693l-5.326,12.558A.888.888,0,0,1,542.676,3987.607Z" fill="#454546"/>
          <path id="Trazado_30712" data-name="Trazado 30712" d="M542.061,3999a2.084,2.084,0,0,1-1.193-.378l-4.873-3.32-18.219-6.627a4.305,4.305,0,0,1,.913-8.3l10.6-1.474a.888.888,0,1,1,.245,1.759l-10.6,1.474a2.529,2.529,0,0,0-.541,4.872l18.314,6.663a.886.886,0,0,1,.2.1l4.973,3.388a.319.319,0,0,0,.49-.15l1.047-2.975a.319.319,0,0,0-.262-.422.684.684,0,0,1-.076-.013l-5.374-1.144a.9.9,0,0,1-.175-.057l-16.66-7.376a.887.887,0,1,1,.718-1.623l16.577,7.338,5.251,1.118a2.1,2.1,0,0,1,1.676,2.769l-1.047,2.974a2.1,2.1,0,0,1-1.98,1.4Z" fill="#454546"/>
          <path id="Trazado_30713" data-name="Trazado 30713" d="M528.234,3988.184a.843.843,0,0,1-.139-.011.888.888,0,0,1-.74-1.014l1.084-6.916-3.828-2.25a.888.888,0,0,1,.9-1.531l4.349,2.556a.889.889,0,0,1,.427.9l-1.177,7.513A.888.888,0,0,1,528.234,3988.184Z" fill="#454546"/>
          <path id="Trazado_30714" data-name="Trazado 30714" d="M519.952,3981.914a.888.888,0,0,1-.53-1.6l4.855-3.61,1.24-4.944-3.442-9.194a1.833,1.833,0,0,1,.95-2.56l1.276-.5a1.83,1.83,0,0,1,2.174.651.9.9,0,0,1,.1.176l3.642,8.949,3.132,5.718a.887.887,0,0,1,.078.192,1.8,1.8,0,0,0,1.521,1.318l6.252.775a.888.888,0,0,1-.218,1.763l-6.253-.776a3.571,3.571,0,0,1-2.984-2.505l-3.11-5.676c-.016-.03-.031-.061-.044-.092l-3.6-8.844a.057.057,0,0,0-.035,0l-1.276.5a.051.051,0,0,0-.034.035.052.052,0,0,0,.005.049.944.944,0,0,1,.066.14l3.563,9.515a.879.879,0,0,1,.03.527l-1.385,5.52a.886.886,0,0,1-.331.5l-5.11,3.8A.886.886,0,0,1,519.952,3981.914Z" fill="#454546"/>
          <path id="Trazado_30715" data-name="Trazado 30715" d="M510.726,3989.108a2.731,2.731,0,0,1-.757-.108,2.72,2.72,0,0,1,.036-5.237l2.865-.941,8.742-8.35,1.253-10.084a.888.888,0,0,1,1.762.219l-1.292,10.4a.885.885,0,0,1-.268.532l-9.116,8.707a.885.885,0,0,1-.336.2l-3.08,1.011-.052.016a.944.944,0,1,0,.7,1.737l4.244-2.387a.888.888,0,1,1,.871,1.547l-4.245,2.387A2.7,2.7,0,0,1,510.726,3989.108Z" fill="#454546"/>
          <path id="Trazado_30716" data-name="Trazado 30716" d="M526.949,3963.674a.888.888,0,0,1-.3-1.722l4.493-1.646a.888.888,0,0,1,.611,1.667l-4.493,1.647A.913.913,0,0,1,526.949,3963.674Z" fill="#454546"/>
          <path id="Trazado_30717" data-name="Trazado 30717" d="M546.272,3964.689a.891.891,0,0,1-.424-.108l-5.185-2.821a.888.888,0,1,1,.848-1.56l5.186,2.821a.888.888,0,0,1-.425,1.668Z" fill="#454546"/>
          <path id="Trazado_30718" data-name="Trazado 30718" d="M534.267,3960.025a.888.888,0,0,1-.877-.759l-.323-2.19-.9-.353a.888.888,0,1,1,.651-1.652l1.374.542a.887.887,0,0,1,.552.7l.4,2.7a.886.886,0,0,1-.749,1.007A.812.812,0,0,1,534.267,3960.025Z" fill="#454546"/>
          <path id="Trazado_30719" data-name="Trazado 30719" d="M538.559,3960.025a.813.813,0,0,1-.13-.01.887.887,0,0,1-.749-1.007l.4-2.7a.886.886,0,0,1,.553-.7l1.374-.542a.888.888,0,0,1,.651,1.652l-.9.353-.322,2.19A.889.889,0,0,1,538.559,3960.025Z" fill="#454546"/>
        </g>
        <path id="Trazado_30720" data-name="Trazado 30720" d="M542.676,3973.221a.891.891,0,0,1-.34-.068l-4.372-1.82a.887.887,0,0,1-.486-.5l-.963-2.475a.888.888,0,1,1,1.655-.644l.825,2.123,4.023,1.674a.888.888,0,0,1-.342,1.708Z" fill="#454546"/>
        <path id="Trazado_30721" data-name="Trazado 30721" d="M541.608,3976.568a.889.889,0,0,1-.368-.08l-3.445-1.569a.888.888,0,1,1,.737-1.616l3.444,1.569a.888.888,0,0,1-.368,1.7Z" fill="#454546"/>
        <path id="Trazado_30722" data-name="Trazado 30722" d="M531.1,3972.67a.888.888,0,0,1-.489-1.63l2.234-1.471,1.031-1.946a.887.887,0,1,1,1.569.83l-1.137,2.148a.877.877,0,0,1-.3.326l-2.424,1.6A.883.883,0,0,1,531.1,3972.67Z" fill="#454546"/>
        <path id="Trazado_30723" data-name="Trazado 30723" d="M532.423,3975.783a.888.888,0,0,1-.418-1.671l1.677-.894a.888.888,0,1,1,.835,1.567l-1.677.894A.882.882,0,0,1,532.423,3975.783Z" fill="#454546"/>
      </g>
      <path id="Trazado_30724" data-name="Trazado 30724" d="M534.324,3984.1a5.233,5.233,0,0,1-1.221-.144l-.921-.219a.888.888,0,0,1,.412-1.728l.921.22a3.439,3.439,0,0,0,3.191-.867l.993-.967a.887.887,0,1,1,1.239,1.271l-1,.973A5.213,5.213,0,0,1,534.324,3984.1Z" fill="#454546"/>
      <path id="Trazado_30725" data-name="Trazado 30725" d="M533.088,3953.02a.888.888,0,0,1-.28-1.73l1.065-.355a.888.888,0,1,1,.562,1.684l-1.066.355A.9.9,0,0,1,533.088,3953.02Z" fill="#454546"/>
      <path id="Trazado_30726" data-name="Trazado 30726" d="M539.718,3953.02a.9.9,0,0,1-.281-.046l-1.066-.355a.888.888,0,1,1,.562-1.684l1.065.355a.888.888,0,0,1-.28,1.73Z" fill="#454546"/>
    </g>
  </g>
</svg>
