<svg xmlns="http://www.w3.org/2000/svg" xmlns:xlink="http://www.w3.org/1999/xlink" width="115" height="115.988" viewBox="0 0 115 115.988">
  <defs>
    <filter id="Trazado_1178" x="2.367" y="6" width="109.987" height="109.988" filterUnits="userSpaceOnUse">
      <feOffset dy="3" input="SourceAlpha"/>
      <feGaussianBlur stdDeviation="3" result="blur"/>
      <feFlood flood-opacity="0.161"/>
      <feComposite operator="in" in2="blur"/>
      <feComposite in="SourceGraphic"/>
    </filter>
  </defs>
  <g id="Grupo_15893" data-name="Grupo 15893" transform="translate(-132 -3034)">
    <g id="Grupo_14742" data-name="Grupo 14742" transform="translate(-523 7189)">
      <circle id="Elipse_497" data-name="Elipse 497" cx="57.5" cy="57.5" r="57.5" transform="translate(655 -4155)" fill="#db311c" opacity="0.75"/>
      <g transform="matrix(1, 0, 0, 1, 655, -4155)" filter="url(#Trazado_1178)">
        <path id="Trazado_1178-2" data-name="Trazado 1178" d="M45.994,0A45.994,45.994,0,1,1,0,45.994,45.994,45.994,0,0,1,45.994,0Z" transform="translate(11.37 12)" fill="#fff"/>
      </g>
    </g>
    <path id="Trazado_30708" data-name="Trazado 30708" d="M410.815,3970.249v-.042c-.017-9.41-5.977-17.321-13.988-19.486a7.178,7.178,0,1,0-8.837,0c-8.022,2.168-13.989,10.1-13.989,19.528,0,.036.007.07.01.1s0,.048.005.073l.011.086a4.1,4.1,0,0,0,1.017,2.451,4.437,4.437,0,0,0,3.1.91l.143,0a3.051,3.051,0,0,0,1.835-.566c.124.338.26.671.412,1l1.3,4.354a6.212,6.212,0,0,0-2.305,4.8v13.259a6.179,6.179,0,0,0,6.173,6.173h13.259a6.179,6.179,0,0,0,6.173-6.173v-13.259a6.167,6.167,0,0,0-2.1-4.625l1.422-4.917c.087-.2.167-.408.242-.613a3.133,3.133,0,0,0,1.865.566l.148,0a4.387,4.387,0,0,0,3.059-.909,4.1,4.1,0,0,0,1.018-2.453l.011-.085c.005-.03,0-.059.006-.089S410.815,3970.279,410.815,3970.249Zm-23.463-25.174a5.056,5.056,0,1,1,5.056,5.055A5.062,5.062,0,0,1,387.353,3945.075Zm-1.653,55.7c-.1,0-.192-.007-.286-.014.192-3.354,1.9-6.174,3.844-6.174h2.5l2.252,3.448a1.061,1.061,0,1,0,1.777-1.16l-1.494-2.288H395.4c1.94,0,3.653,2.82,3.844,6.174-.095.007-.19.014-.286.014Zm17.309-17.309v13.259a4.044,4.044,0,0,1-1.7,3.29c-.431-4.327-2.869-7.551-5.912-7.551h-6.143c-3.043,0-5.481,3.224-5.912,7.551a4.044,4.044,0,0,1-1.7-3.29v-13.259a4.047,4.047,0,0,1,.871-2.488l1.842,6.173a4.209,4.209,0,0,0,8.121-.243,4.2,4.2,0,0,0,4.1,3.3,4.23,4.23,0,0,0,4.033-3l1.721-5.953A4.026,4.026,0,0,1,403.009,3983.465Zm-10.516,1.4-.134-.972-.193-1.987c.07,0,.146,0,.242,0,.163,0,.293,0,.409,0l-.2,2.02Zm15.824-13.443a2.966,2.966,0,0,1-1.719.333c-.347.013-1.068.038-1.185-1.494a13.4,13.4,0,0,0,.08-1.442A13.111,13.111,0,0,0,398.8,3957.4a1.061,1.061,0,1,0-1.038,1.851,10.978,10.978,0,0,1,4.716,13.912c-.009.019-.012.041-.021.062s-.019.041-.025.064l-3.85,13.315a2.095,2.095,0,0,1-2.6,1.391,2.106,2.106,0,0,1-1.463-2.269l.212-1.558.313-3.221a1.013,1.013,0,0,0,0-.224,1.048,1.048,0,0,0-.016-.3,1.059,1.059,0,0,0-1.26-.814l-.39.086a2.95,2.95,0,0,1-.965.086c-.248,0-.412.005-.539.01a2.06,2.06,0,0,1-.676-.074c-.02,0-.039,0-.059-.005s-.057-.006-.086-.008-.081,0-.122,0c-.014,0-.029,0-.042,0a.453.453,0,0,0-.053.01.876.876,0,0,0-.112.022.919.919,0,0,0-.095.029c-.033.012-.064.025-.1.04s-.061.032-.091.049-.056.036-.083.056-.054.042-.078.065-.049.047-.073.073a.911.911,0,0,0-.063.077,1,1,0,0,0-.059.086c-.018.03-.034.06-.049.091s-.027.061-.038.091a1.037,1.037,0,0,0-.033.109c-.005.018-.012.033-.017.051s0,.029,0,.044c-.005.036-.008.072-.01.109s0,.073,0,.11c0,.015,0,.029,0,.044l.319,3.278.206,1.514a2.086,2.086,0,0,1-4.063.886l-3.847-12.893c-.007-.026-.021-.049-.03-.073s-.015-.052-.027-.076a10.871,10.871,0,0,1-1.044-4.677,10.985,10.985,0,0,1,5.607-9.568,1.061,1.061,0,0,0-1.038-1.851,13.109,13.109,0,0,0-6.691,11.419,13.368,13.368,0,0,0,.079,1.454c-.119,1.518-.834,1.5-1.223,1.48a2.884,2.884,0,0,1-1.681-.333c-.11-.1-.264-.393-.368-1.185l-.007-.05c.031-9.894,7.324-17.931,16.284-17.931s16.252,8.039,16.283,17.932l-.006.048C408.581,3971.026,408.428,3971.315,408.316,3971.42Z" transform="translate(-203 -879.897)" fill="#454546"/>
  </g>
</svg>
