<svg xmlns="http://www.w3.org/2000/svg" xmlns:xlink="http://www.w3.org/1999/xlink" width="115" height="115.988" viewBox="0 0 115 115.988">
  <defs>
    <filter id="Trazado_1178" x="2.367" y="6" width="109.987" height="109.988" filterUnits="userSpaceOnUse">
      <feOffset dy="3" input="SourceAlpha"/>
      <feGaussianBlur stdDeviation="3" result="blur"/>
      <feFlood flood-opacity="0.161"/>
      <feComposite operator="in" in2="blur"/>
      <feComposite in="SourceGraphic"/>
    </filter>
  </defs>
  <g id="Grupo_15894" data-name="Grupo 15894" transform="translate(-132 -3186)">
    <g id="Grupo_14743" data-name="Grupo 14743" transform="translate(-523 7341)">
      <circle id="Elipse_497" data-name="Elipse 497" cx="57.5" cy="57.5" r="57.5" transform="translate(655 -4155)" fill="#415214" opacity="0.75"/>
      <g transform="matrix(1, 0, 0, 1, 655, -4155)" filter="url(#Trazado_1178)">
        <path id="Trazado_1178-2" data-name="Trazado 1178" d="M45.994,0A45.994,45.994,0,1,1,0,45.994,45.994,45.994,0,0,1,45.994,0Z" transform="translate(11.37 12)" fill="#fff"/>
      </g>
    </g>
    <g id="Grupo_14754" data-name="Grupo 14754" transform="translate(-346.18 -383)">
      <g id="Grupo_14750" data-name="Grupo 14750" transform="translate(505.898 3603.47)">
        <path id="Trazado_30693" data-name="Trazado 30693" d="M570.69,3624.624c-.7-2.753-3.036-4.88-6.589-5.987a23.543,23.543,0,0,0-21.872,5.531c-2.6,2.664-3.647,5.647-2.951,8.4a7.037,7.037,0,0,0,1.56,2.929.95.95,0,0,0,1.43-1.251,5.167,5.167,0,0,1-1.149-2.144c-.528-2.088.349-4.435,2.469-6.607a21.671,21.671,0,0,1,19.948-5.045c2.9.9,4.785,2.552,5.313,4.64s-.349,4.435-2.469,6.608a19.964,19.964,0,0,1-9.337,5.041,19.365,19.365,0,0,1-11.466-.3.95.95,0,0,0-.694,1.768,18.141,18.141,0,0,0,6.585,1.14,24.783,24.783,0,0,0,6.041-.77,21.866,21.866,0,0,0,10.231-5.556c2.6-2.663,3.647-5.646,2.95-8.4Z" transform="translate(-508.398 -3604.412)" fill="#415214" stroke="#415214" stroke-width="1"/>
        <path id="Trazado_30694" data-name="Trazado 30694" d="M547,3629.186a.95.95,0,0,0-.664-1.78,2.47,2.47,0,0,0-1.5,1.819c-.184.933-.237,3.184,3.244,3.949a12.069,12.069,0,0,0,2.55.242,23.931,23.931,0,0,0,7.071-1.176c1.835-.592,6.178-2.278,6.872-5.143a3.049,3.049,0,0,0,.038-1.385,2.333,2.333,0,0,0-1.3-1.666,2.239,2.239,0,0,0-2.028.084.95.95,0,1,0,.915,1.664.346.346,0,0,1,.322-.021.451.451,0,0,1,.235.335,1.2,1.2,0,0,1-.027.542c-.315,1.3-2.516,2.784-5.609,3.782a18.481,18.481,0,0,1-8.63.887c-2.04-.448-1.864-1.344-1.788-1.726a.566.566,0,0,1,.3-.407Z" transform="translate(-508.398 -3604.43)" fill="#415214" stroke="#415214" stroke-width="1"/>
        <path id="Trazado_30695" data-name="Trazado 30695" d="M535.53,3638.263a22.138,22.138,0,0,0-22.331-3.571c-3.445,1.559-5.6,4.058-6.081,7.039s.795,6.029,3.583,8.584a20.707,20.707,0,0,0,10.675,4.852,23.826,23.826,0,0,0,3.765.3,19.254,19.254,0,0,0,7.891-1.584c3.444-1.559,5.6-4.059,6.081-7.039S538.317,3640.818,535.53,3638.263Zm1.707,8.284c-.373,2.33-2.144,4.321-4.988,5.608a20.259,20.259,0,0,1-20.265-3.24c-2.3-2.11-3.363-4.554-2.991-6.884s2.144-4.321,4.989-5.608a17.307,17.307,0,0,1,7.1-1.416,22.071,22.071,0,0,1,3.472.28,18.811,18.811,0,0,1,9.692,4.376C536.547,3641.773,537.609,3644.218,537.237,3646.547Z" transform="translate(-505.898 -3605.47)" fill="#415214" stroke="#415214" stroke-width="1"/>
        <path id="Trazado_30696" data-name="Trazado 30696" d="M530.142,3643.96a.95.95,0,0,0,.154,1.893.2.2,0,0,1,.173.061.288.288,0,0,1,.042.256.95.95,0,0,1-.2.38c-.7.9-2.964,1.286-5.772.978a16.177,16.177,0,0,1-7.206-2.375c-1.39-1.03-.97-1.623-.791-1.876a.387.387,0,0,1,.288-.172.95.95,0,0,0,.123-1.9,2.261,2.261,0,0,0-1.961.97c-1.048,1.48-.6,3.162,1.21,4.5,2.2,1.63,6.511,2.854,10.138,2.854,2.385,0,4.474-.529,5.473-1.82a2.809,2.809,0,0,0,.551-1.145,2.168,2.168,0,0,0-.472-1.907,2.082,2.082,0,0,0-1.755-.7Z" transform="translate(-505.898 -3605.47)" fill="#415214" stroke="#415214" stroke-width="1"/>
        <path id="Trazado_30697" data-name="Trazado 30697" d="M512.512,3623.815a19.193,19.193,0,0,0,6.07.924,25.11,25.11,0,0,0,5.563-.643,23.859,23.859,0,0,0,7.858-3.3.95.95,0,1,0-1.053-1.581,21.954,21.954,0,0,1-7.228,3.025,20.039,20.039,0,0,1-10.607-.23c-2.873-.962-4.718-2.641-5.194-4.727s.457-4.4,2.628-6.513a21.781,21.781,0,0,1,20.063-4.58c2.874.963,4.718,2.641,5.194,4.728a6.607,6.607,0,0,1-1.741,5.554.95.95,0,0,0,1.463,1.212,8.387,8.387,0,0,0,2.13-7.189c-.629-2.757-2.917-4.925-6.442-6.106a23.65,23.65,0,0,0-21.992,5.02c-2.664,2.593-3.784,5.54-3.155,8.3S508.987,3622.635,512.512,3623.815Z" transform="translate(-505.898 -3603.47)" fill="#415214" stroke="#415214" stroke-width="1"/>
        <path id="Trazado_30698" data-name="Trazado 30698" d="M514.745,3614.814a.95.95,0,0,0-.669-1.778,2.26,2.26,0,0,0-1.387,1.691c-.346,1.781.76,3.128,2.957,3.6a10.653,10.653,0,0,0,2.221.208c4.752,0,11.614-2.283,12.429-5.7a2.813,2.813,0,0,0,.03-1.271,2.169,2.169,0,0,0-1.216-1.543,2.081,2.081,0,0,0-1.887.084.95.95,0,1,0,.92,1.662.192.192,0,0,1,.183-.016.292.292,0,0,1,.144.215.95.95,0,0,1-.022.427c-.265,1.11-2.171,2.393-4.857,3.269a16.16,16.16,0,0,1-7.544.8c-1.691-.366-1.552-1.079-1.493-1.384A.4.4,0,0,1,514.745,3614.814Z" transform="translate(-505.898 -3603.47)" fill="#415214" stroke="#415214" stroke-width="1"/>
      </g>
    </g>
  </g>
</svg>
