<svg xmlns="http://www.w3.org/2000/svg" width="121" height="121" viewBox="0 0 121 121">
  <g id="Grupo_25956" data-name="Grupo 25956" transform="translate(-282 -9825)">
    <g id="Grupo_25952" data-name="Grupo 25952" transform="translate(2543 13732)">
      <circle id="Elipse_497" data-name="Elipse 497" cx="60.5" cy="60.5" r="60.5" transform="translate(-2261 -3907)" fill="#d9a171"/>
      <path id="Trazado_1178" data-name="Trazado 1178" d="M53.993,0A53.993,53.993,0,1,1,0,53.993,53.993,53.993,0,0,1,53.993,0Z" transform="translate(-2254 -3900)" fill="#fff"/>
    </g>
    <g id="Grupo_25949" data-name="Grupo 25949" transform="translate(308 9849)">
      <g id="Grupo_25944" data-name="Grupo 25944" transform="translate(33.137 35.949)">
        <path id="Trazado_68102" data-name="Trazado 68102" d="M1168.168,2824.124h-35.093a.83.83,0,0,1-.83-.83V2788.2a.83.83,0,0,1,.83-.83h35.093a.83.83,0,0,1,.83.83v35.093A.83.83,0,0,1,1168.168,2824.124Zm-34.263-1.66h33.433V2789.03H1133.9Z" transform="translate(-1132.245 -2787.37)" fill="#344154"/>
        <path id="Trazado_68103" data-name="Trazado 68103" d="M1181.935,2805.145h-6.658a.83.83,0,1,1,0-1.66h6.658a.83.83,0,0,1,0,1.66Z" transform="translate(-1151.097 -2794.569)" fill="#344154"/>
        <path id="Trazado_68104" data-name="Trazado 68104" d="M1148.923,2805.145h-6.658a.83.83,0,1,1,0-1.66h6.658a.83.83,0,1,1,0,1.66Z" transform="translate(-1136.35 -2794.569)" fill="#344154"/>
        <path id="Trazado_68105" data-name="Trazado 68105" d="M1148.282,2805.786a.83.83,0,0,1-.83-.83V2798.3a.83.83,0,0,1,1.66,0v6.658A.83.83,0,0,1,1148.282,2805.786Z" transform="translate(-1139.038 -2791.881)" fill="#344154"/>
        <path id="Trazado_68106" data-name="Trazado 68106" d="M1148.735,2838.174a.827.827,0,0,1-.587-.243l-4.708-4.708a.83.83,0,0,1,1.173-1.174l4.708,4.708a.83.83,0,0,1-.586,1.417Z" transform="translate(-1137.137 -2807.22)" fill="#344154"/>
        <path id="Trazado_68107" data-name="Trazado 68107" d="M1144.027,2838.174a.83.83,0,0,1-.587-1.417l4.708-4.708a.83.83,0,0,1,1.173,1.174l-4.708,4.708A.826.826,0,0,1,1144.027,2838.174Z" transform="translate(-1137.137 -2807.22)" fill="#344154"/>
        <path id="Trazado_68108" data-name="Trazado 68108" d="M1180.646,2837.575h-6.658a.83.83,0,0,1,0-1.66h6.658a.83.83,0,0,1,0,1.66Z" transform="translate(-1150.522 -2809.056)" fill="#344154"/>
        <path id="Trazado_68109" data-name="Trazado 68109" d="M1179.942,2831.895a1.059,1.059,0,1,1,.748-.31A1.051,1.051,0,0,1,1179.942,2831.895Zm0-1.66a.6.6,0,1,0,.426.176A.6.6,0,0,0,1179.942,2830.235Z" transform="translate(-1153.08 -2806.315)" fill="#344154"/>
        <path id="Trazado_68110" data-name="Trazado 68110" d="M1179.942,2843.758a1.06,1.06,0,1,1,.748-.311A1.049,1.049,0,0,1,1179.942,2843.758Zm0-1.66a.6.6,0,1,0,.426.176A.6.6,0,0,0,1179.942,2842.1Z" transform="translate(-1153.08 -2811.614)" fill="#344154"/>
        <path id="Trazado_68111" data-name="Trazado 68111" d="M1168.168,2820.744h-35.093a.83.83,0,1,1,0-1.66h35.093a.83.83,0,1,1,0,1.66Z" transform="translate(-1132.245 -2801.538)" fill="#344154"/>
        <path id="Trazado_68112" data-name="Trazado 68112" d="M1165.133,2824.124a.83.83,0,0,1-.83-.83V2788.2a.83.83,0,1,1,1.66,0v35.093A.83.83,0,0,1,1165.133,2824.124Z" transform="translate(-1146.566 -2787.37)" fill="#344154"/>
      </g>
      <g id="Grupo_25948" data-name="Grupo 25948" transform="translate(0 0)">
        <g id="Grupo_25946" data-name="Grupo 25946">
          <g id="Grupo_25945" data-name="Grupo 25945" transform="translate(3.32 6.606)">
            <path id="Trazado_68113" data-name="Trazado 68113" d="M1105.681,2818.663h-26.5a.83.83,0,1,1,0-1.66h26.5a.83.83,0,1,1,0,1.66Z" transform="translate(-1078.353 -2771.264)" fill="#344154"/>
            <path id="Trazado_68114" data-name="Trazado 68114" d="M1109.675,2735.995h-30.492a.83.83,0,1,1,0-1.66h30.492a.83.83,0,0,1,0,1.66Z" transform="translate(-1078.353 -2734.335)" fill="#344154"/>
          </g>
          <path id="Trazado_68115" data-name="Trazado 68115" d="M1103,2786.864h-26.46a4.191,4.191,0,0,1-4.186-4.187V2727.03a4.638,4.638,0,0,1,4.634-4.634h30.54a4.639,4.639,0,0,1,4.633,4.634v28.826a.83.83,0,0,1-1.66,0V2727.03a2.977,2.977,0,0,0-2.973-2.974h-30.54a2.977,2.977,0,0,0-2.974,2.974v55.647a2.53,2.53,0,0,0,2.526,2.527H1103a.83.83,0,1,1,0,1.66Z" transform="translate(-1072.353 -2722.396)" fill="#344154"/>
          <path id="Trazado_68116" data-name="Trazado 68116" d="M1108.791,2826.116a2.411,2.411,0,1,0-2.411,2.41A2.411,2.411,0,0,0,1108.791,2826.116Z" transform="translate(-1086.476 -2767.653)" fill="#d9a171"/>
          <path id="Trazado_68117" data-name="Trazado 68117" d="M1108.385,2730.091h-7.561a.83.83,0,1,1,0-1.66h7.561a.83.83,0,0,1,0,1.66Z" transform="translate(-1084.701 -2725.092)" fill="#344154"/>
        </g>
        <g id="Grupo_25947" data-name="Grupo 25947" transform="translate(5.205 21.8)">
          <path id="Trazado_68118" data-name="Trazado 68118" d="M1082.591,2781.963a.83.83,0,0,1-.587-1.417l9.074-9.074a.829.829,0,0,1,.587-.243h0a.831.831,0,0,1,.587.243l4.425,4.426,8.583-8.583a.83.83,0,0,1,1.173,1.173l-9.17,9.17a.83.83,0,0,1-.587.243h0a.831.831,0,0,1-.587-.243l-4.425-4.426-8.487,8.488A.827.827,0,0,1,1082.591,2781.963Z" transform="translate(-1081.76 -2764.154)" fill="#344154"/>
          <path id="Trazado_68119" data-name="Trazado 68119" d="M1127.65,2766.112a.83.83,0,0,1-.83-.83v-1.824H1125a.83.83,0,1,1,0-1.66h2.653a.83.83,0,0,1,.83.83v2.654A.83.83,0,0,1,1127.65,2766.112Z" transform="translate(-1100.704 -2761.798)" fill="#344154"/>
        </g>
      </g>
    </g>
  </g>
</svg>
