<svg xmlns="http://www.w3.org/2000/svg" width="121" height="121" viewBox="0 0 121 121">
  <g id="Grupo_25955" data-name="Grupo 25955" transform="translate(-282 -10021)">
    <g id="Grupo_9934" data-name="Grupo 9934" transform="translate(2543 13928)">
      <circle id="Elipse_497" data-name="Elipse 497" cx="60.5" cy="60.5" r="60.5" transform="translate(-2261 -3907)" fill="#d9a171"/>
      <path id="Trazado_1178" data-name="Trazado 1178" d="M53.993,0A53.993,53.993,0,1,1,0,53.993,53.993,53.993,0,0,1,53.993,0Z" transform="translate(-2254 -3900)" fill="#fff"/>
    </g>
    <g id="Grupo_25951" data-name="Grupo 25951" transform="translate(308 10050)">
      <path id="Trazado_68120" data-name="Trazado 68120" d="M1110.937,2944.643h-66.575a.83.83,0,0,1-.4-1.556l33.287-18.455a.826.826,0,0,1,.805,0l33.288,18.455a.83.83,0,0,1-.4,1.556Zm-63.367-1.66h60.159l-30.08-16.677Z" transform="translate(-1043.532 -2924.527)" fill="#344154"/>
      <path id="Trazado_68121" data-name="Trazado 68121" d="M1110.013,2963.7h-56.986a.83.83,0,0,1-.83-.83v-4.16a.83.83,0,0,1,1.66,0v3.33h55.326v-3.33a.83.83,0,0,1,1.66,0v4.16A.83.83,0,0,1,1110.013,2963.7Z" transform="translate(-1047.403 -2939.428)" fill="#344154"/>
      <path id="Trazado_68122" data-name="Trazado 68122" d="M1110.013,3026.314a.83.83,0,0,1-.83-.83v-4.459h-55.326v4.459a.83.83,0,1,1-1.66,0V3020.2a.83.83,0,0,1,.83-.83h56.986a.83.83,0,0,1,.83.83v5.289A.83.83,0,0,1,1110.013,3026.314Z" transform="translate(-1047.403 -2966.893)" fill="#344154"/>
      <path id="Trazado_68123" data-name="Trazado 68123" d="M1110.937,3035.111h-66.575a.83.83,0,0,1-.83-.83v-.093a5.267,5.267,0,0,1,5.262-5.262h57.712a5.267,5.267,0,0,1,5.261,5.262v.093A.83.83,0,0,1,1110.937,3035.111Zm-65.67-1.66h64.765a3.608,3.608,0,0,0-3.526-2.865h-57.712A3.608,3.608,0,0,0,1045.267,3033.451Z" transform="translate(-1043.532 -2971.164)" fill="#344154"/>
      <path id="Trazado_68124" data-name="Trazado 68124" d="M1135.234,2999.576a.83.83,0,0,1-.83-.83V2983.2a.83.83,0,0,1,.83-.83h3.919l-7.547-8.908-7.55,8.908h3.917a.83.83,0,0,1,.83.83v15.543a.83.83,0,0,1-1.66,0v-14.713h-4.878a.829.829,0,0,1-.633-1.366l9.34-11.023a.83.83,0,0,1,.633-.293h0a.829.829,0,0,1,.633.293l9.338,11.023a.83.83,0,0,1-.633,1.366h-4.879v14.713A.83.83,0,0,1,1135.234,2999.576Z" transform="translate(-1078.333 -2945.444)" fill="#344154"/>
      <path id="Trazado_68125" data-name="Trazado 68125" d="M1062.365,2993.576h0a.83.83,0,0,1-.633-.293l-9.338-11.023a.83.83,0,0,1,.633-1.367h4.879V2966.18a.83.83,0,0,1,1.66,0v15.543a.83.83,0,0,1-.83.83h-3.918l7.547,8.91,7.55-8.91H1066a.83.83,0,0,1-.83-.83V2966.18a.83.83,0,0,1,1.66,0v14.713h4.879a.831.831,0,0,1,.634,1.367L1063,2993.282A.831.831,0,0,1,1062.365,2993.576Z" transform="translate(-1047.403 -2942.763)" fill="#344154"/>
      <g id="Grupo_25950" data-name="Grupo 25950" transform="translate(25.801 30.01)">
        <path id="Trazado_68126" data-name="Trazado 68126" d="M1097.634,2994a.831.831,0,0,1-.727-1.229l7.458-13.577a.83.83,0,1,1,1.455.8l-7.458,13.577A.831.831,0,0,1,1097.634,2994Z" transform="translate(-1093.131 -2978.767)" fill="#344154"/>
        <path id="Trazado_68127" data-name="Trazado 68127" d="M1111.745,2999.719a3.249,3.249,0,0,1-3.245-3.245V2994.8a3.244,3.244,0,0,1,6.489,0v1.671A3.248,3.248,0,0,1,1111.745,2999.719Zm0-6.5a1.587,1.587,0,0,0-1.585,1.585v1.671a1.585,1.585,0,1,0,3.169,0V2994.8A1.587,1.587,0,0,0,1111.745,2993.218Z" transform="translate(-1098.355 -2984.481)" fill="#344154"/>
        <path id="Trazado_68128" data-name="Trazado 68128" d="M1093.408,2986.929a3.248,3.248,0,0,1-3.244-3.245v-1.672a3.244,3.244,0,0,1,6.488,0v1.672A3.248,3.248,0,0,1,1093.408,2986.929Zm0-6.5a1.586,1.586,0,0,0-1.584,1.584v1.672a1.584,1.584,0,1,0,3.169,0v-1.672A1.586,1.586,0,0,0,1093.408,2980.428Z" transform="translate(-1090.164 -2978.768)" fill="#344154"/>
      </g>
      <path id="Trazado_68129" data-name="Trazado 68129" d="M1065.922,2945.592l21.73-12.048,21.729,12.048-11-3.17a38.728,38.728,0,0,0-21.455,0Z" transform="translate(-1053.534 -2928.555)" fill="#d9a171"/>
    </g>
  </g>
</svg>
