<svg xmlns="http://www.w3.org/2000/svg" width="121" height="121" viewBox="0 0 121 121">
  <g id="Grupo_25957" data-name="Grupo 25957" transform="translate(-282 -9700)">
    <g id="Grupo_25953" data-name="Grupo 25953" transform="translate(2543 13607)">
      <circle id="Elipse_497" data-name="Elipse 497" cx="60.5" cy="60.5" r="60.5" transform="translate(-2261 -3907)" fill="#d9a171"/>
      <path id="Trazado_1178" data-name="Trazado 1178" d="M53.993,0A53.993,53.993,0,1,1,0,53.993,53.993,53.993,0,0,1,53.993,0Z" transform="translate(-2254 -3900)" fill="#fff"/>
    </g>
    <g id="Grupo_25943" data-name="Grupo 25943" transform="translate(311 9729)">
      <g id="Grupo_25940" data-name="Grupo 25940" transform="translate(0 0)">
        <path id="Trazado_68086" data-name="Trazado 68086" d="M1121.772,2562.486H1112.6a.83.83,0,1,1,0-1.66h9.169a.83.83,0,1,1,0,1.66Z" transform="translate(-1093.197 -2557.151)" fill="#344154"/>
        <path id="Trazado_68087" data-name="Trazado 68087" d="M1121.8,2617.5h-39.231a4.381,4.381,0,0,1-4.376-4.376v-54.566a4.38,4.38,0,0,1,4.376-4.376H1121.8a4.38,4.38,0,0,1,4.375,4.376v7.69a.83.83,0,1,1-1.66,0v-7.69a2.719,2.719,0,0,0-2.715-2.716h-39.231a2.719,2.719,0,0,0-2.716,2.716v54.566a2.719,2.719,0,0,0,2.716,2.716H1121.8a2.719,2.719,0,0,0,2.715-2.716v-19.677a.83.83,0,0,1,1.66,0v19.677A4.38,4.38,0,0,1,1121.8,2617.5Z" transform="translate(-1078.198 -2554.183)" fill="#344154"/>
        <path id="Trazado_68088" data-name="Trazado 68088" d="M1121.772,2660.64H1112.6a.83.83,0,1,1,0-1.66h9.169a.83.83,0,1,1,0,1.66Z" transform="translate(-1093.197 -2600.998)" fill="#344154"/>
        <path id="Trazado_68089" data-name="Trazado 68089" d="M1125.35,2569.13h-46.322a.83.83,0,1,1,0-1.66h46.322a.83.83,0,1,1,0,1.66Z" transform="translate(-1078.198 -2560.119)" fill="#344154"/>
        <path id="Trazado_68090" data-name="Trazado 68090" d="M1125.35,2654h-46.322a.83.83,0,1,1,0-1.66h46.322a.83.83,0,1,1,0,1.66Z" transform="translate(-1078.198 -2598.03)" fill="#344154"/>
      </g>
      <g id="Grupo_25942" data-name="Grupo 25942" transform="translate(4.291 13.341)">
        <g id="Grupo_25941" data-name="Grupo 25941" transform="translate(9.817 5.896)">
          <path id="Trazado_68091" data-name="Trazado 68091" d="M1109.951,2624.467a.83.83,0,0,1-.83-.83V2607h-3.766v16.635a.83.83,0,0,1-1.66,0v-17.465a.83.83,0,0,1,.83-.83h5.425a.83.83,0,0,1,.83.83v17.465A.83.83,0,0,1,1109.951,2624.467Z" transform="translate(-1103.696 -2596.274)" fill="#344154"/>
          <path id="Trazado_68092" data-name="Trazado 68092" d="M1119.757,2619.763h-5.425a.83.83,0,1,1,0-1.66h5.425a.83.83,0,1,1,0,1.66Z" transform="translate(-1108.077 -2601.975)" fill="#344154"/>
          <path id="Trazado_68093" data-name="Trazado 68093" d="M1129.563,2617.146a.83.83,0,0,1-.83-.83v-25.7h-3.766v25.7a.83.83,0,1,1-1.66,0v-26.533a.83.83,0,0,1,.83-.83h5.425a.83.83,0,0,1,.83.83v26.533A.83.83,0,0,1,1129.563,2617.146Z" transform="translate(-1112.457 -2588.953)" fill="#344154"/>
        </g>
        <path id="Trazado_68094" data-name="Trazado 68094" d="M1122.8,2615.74h-31.414a.83.83,0,0,1-.83-.83V2586.47a.83.83,0,1,1,1.66,0v27.611H1122.8a.83.83,0,0,1,0,1.66Z" transform="translate(-1088.009 -2581.577)" fill="#344154"/>
        <path id="Trazado_68095" data-name="Trazado 68095" d="M1086.783,2582.558a.83.83,0,0,1-.586-1.417l2.6-2.6a.831.831,0,0,1,.587-.243h0a.83.83,0,0,1,.586.243l2.49,2.49a.83.83,0,1,1-1.174,1.173l-1.9-1.9-2.015,2.015A.827.827,0,0,1,1086.783,2582.558Z" transform="translate(-1085.954 -2578.296)" fill="#344154"/>
        <path id="Trazado_68096" data-name="Trazado 68096" d="M1150.406,2639.059a.83.83,0,0,1-.587-1.417l1.9-1.9-2.015-2.014a.83.83,0,0,1,1.174-1.174l2.6,2.6a.829.829,0,0,1,0,1.174l-2.49,2.49A.827.827,0,0,1,1150.406,2639.059Z" transform="translate(-1114.325 -2602.424)" fill="#344154"/>
      </g>
      <path id="Trazado_68097" data-name="Trazado 68097" d="M1167.01,2601.934a.829.829,0,0,1-.726-1.229l6.55-11.925a.83.83,0,0,1,1.455.8l-6.55,11.926A.831.831,0,0,1,1167.01,2601.934Z" transform="translate(-1117.502 -2569.446)" fill="#344154"/>
      <path id="Trazado_68098" data-name="Trazado 68098" d="M1179.4,2606.953a2.954,2.954,0,0,1-2.951-2.951v-1.469a2.95,2.95,0,0,1,5.9,0V2604A2.954,2.954,0,0,1,1179.4,2606.953Zm0-5.71a1.292,1.292,0,0,0-1.291,1.29V2604a1.291,1.291,0,1,0,2.581,0v-1.469A1.292,1.292,0,0,0,1179.4,2601.244Z" transform="translate(-1122.091 -2574.465)" fill="#344154"/>
      <path id="Trazado_68099" data-name="Trazado 68099" d="M1163.3,2595.719a2.953,2.953,0,0,1-2.95-2.95V2591.3a2.95,2.95,0,1,1,5.9,0v1.469A2.954,2.954,0,0,1,1163.3,2595.719Zm0-5.709a1.292,1.292,0,0,0-1.29,1.291v1.469a1.291,1.291,0,0,0,2.581,0V2591.3A1.292,1.292,0,0,0,1163.3,2590.01Z" transform="translate(-1114.896 -2569.446)" fill="#344154"/>
      <path id="Trazado_68100" data-name="Trazado 68100" d="M1145.643,2607a.829.829,0,0,1-.83-.83v-23.6a2.089,2.089,0,0,1,2.086-2.086h27.83a2.089,2.089,0,0,1,2.087,2.086v18.047a2.089,2.089,0,0,1-2.087,2.086h-24.28a.43.43,0,0,0-.3.126l-3.917,3.924A.83.83,0,0,1,1145.643,2607Zm1.256-24.853a.427.427,0,0,0-.426.427v21.59l2.5-2.5a2.1,2.1,0,0,1,1.476-.613h24.28a.427.427,0,0,0,.427-.426v-18.047a.427.427,0,0,0-.427-.427Z" transform="translate(-1107.956 -2565.936)" fill="#344154"/>
      <path id="Trazado_68101" data-name="Trazado 68101" d="M1190.407,2601.912h.066v-13.92h-5.8a15.51,15.51,0,0,1,3.657,6.476Z" transform="translate(-1125.764 -2569.286)" fill="#d9a171"/>
    </g>
  </g>
</svg>
