<svg xmlns="http://www.w3.org/2000/svg" width="118.937" height="119.544" viewBox="0 0 118.937 119.544">
  <g id="Grupo_25116" data-name="Grupo 25116" transform="translate(-1133.999 -15920)">
    <g id="Grupo_25114" data-name="Grupo 25114" transform="translate(122 9894)">
      <rect id="Rectángulo_3015" data-name="Rectángulo 3015" width="75.672" height="26.118" rx="13.059" transform="translate(1027.627 6067.937)" fill="#5c5f81"/>
      <path id="Trazado_37977" data-name="Trazado 37977" d="M54.6,70.373c-.028,1.721.628,2.306,2.335,2.413A48.564,48.564,0,0,1,71.2,75.811c1.66.63,2.443.23,3.1-1.273A54.9,54.9,0,0,0,78.851,57.66c.241-2.5-.685-3.238-3.057-3.112-2.922.155-5.86.037-8.793.037v.027c-3.3,0-6.6.062-9.892-.024-1.9-.049-2.568.715-2.526,2.595.1,4.394.093,8.794.019,13.19" transform="translate(1012 6026)" fill="#5c5f81"/>
      <path id="Trazado_37978" data-name="Trazado 37978" d="M57.193,50.773c3.161-.08,6.325-.022,9.488-.019,3.041,0,6.087-.1,9.122.038,2.279.1,3.313-.482,3.052-3.034A56.956,56.956,0,0,0,75.066,32.62c-.675-1.715-1.56-1.688-3.075-1.132a47.057,47.057,0,0,1-14.9,3.188c-1.832.052-2.56.832-2.507,2.7.1,3.646.118,7.3,0,10.946-.069,2.006.825,2.5,2.61,2.451" transform="translate(1012 6026)" fill="#5c5f81"/>
      <path id="Trazado_37979" data-name="Trazado 37979" d="M90.716,54.58a19.19,19.19,0,0,1-3.278-.034c-3.747-.675-4.888,1.125-4.978,4.574a38.954,38.954,0,0,1-2.707,12.038c-2.52,7.05-2.487,6.975,3.918,11,1.758,1.1,2.688.791,3.893-.7a42.41,42.41,0,0,0,9.245-19.184c1.673-9.243,2.229-7.513-6.093-7.694" transform="translate(1012 6026)" fill="#5c5f81"/>
      <path id="Trazado_37980" data-name="Trazado 37980" d="M79.791,27.875c-1.757.732-1.937,1.736-1.175,3.43a52.4,52.4,0,0,1,3.658,12.589c1.2,6.855,1.156,6.863,7.885,6.864a38.393,38.393,0,0,1,4.384.028c2.9.334,3.494-.827,3.063-3.564a47.564,47.564,0,0,0-7-19.031c-3.236-4.944-3.215-4.954-8.3-1.8a18.313,18.313,0,0,1-2.516,1.484" transform="translate(1012 6026)" fill="#5c5f81"/>
      <path id="Trazado_37981" data-name="Trazado 37981" d="M56.967,30.93a53.809,53.809,0,0,0,13.82-3.072c1.226-.435,1.33-1.115.657-2.193A53.282,53.282,0,0,0,54.621,8.8c0,7.248.042,13.564-.026,19.878-.02,1.77.66,2.388,2.372,2.253" transform="translate(1012 6026)" fill="#5c5f81"/>
      <path id="Trazado_37982" data-name="Trazado 37982" d="M69.887,82.216c1.39-1.935.783-2.622-1.217-3.262A75.092,75.092,0,0,0,57.248,76.59c-1.887-.3-2.729.275-2.657,2.265.091,2.433.022,4.872.023,7.309,0,2.559.073,5.119-.021,7.674-.086,2.358.685,2.5,2.445,1.242A55.019,55.019,0,0,0,69.887,82.216" transform="translate(1012 6026)" fill="#5c5f81"/>
      <path id="Trazado_37983" data-name="Trazado 37983" d="M72.725,20.695c3.7,5.236,3.616,5.1,9,1.593,2.51-1.636,2.006-2.616.069-4.155A45.832,45.832,0,0,0,65.479,9.481c-.947-.263-1.9-1.064-3.207.006A57.18,57.18,0,0,1,72.725,20.695" transform="translate(1012 6026)" fill="#5c5f81"/>
      <path id="Trazado_37984" data-name="Trazado 37984" d="M77.375,82.741c-1.1-.573-2.162-1.769-3.315.083-3.232,5.184-7.487,9.485-11.931,13.738a38.988,38.988,0,0,0,15.709-6.337c5.865-3.951,5.852-4.184-.463-7.484" transform="translate(1012 6026)" fill="#5c5f81"/>
      <path id="Trazado_37985" data-name="Trazado 37985" d="M49.05,54.589c-3.3.086-6.6.024-9.893.024v-.027c-2.931,0-5.869.118-8.793-.038-2.372-.126-3.3.607-3.055,3.113a54.847,54.847,0,0,0,4.554,16.878c.659,1.5,1.441,1.9,3.1,1.273a48.532,48.532,0,0,1,14.261-3.025c1.706-.107,2.362-.692,2.335-2.413-.071-4.4-.081-8.8.015-13.191.044-1.881-.619-2.644-2.523-2.594" transform="translate(1012 6026)" fill="#5c5f81"/>
      <path id="Trazado_37986" data-name="Trazado 37986" d="M51.575,37.376c.052-1.868-.676-2.647-2.508-2.7a47.057,47.057,0,0,1-14.9-3.188c-1.516-.556-2.4-.583-3.075,1.132A56.915,56.915,0,0,0,27.3,47.758c-.262,2.552.771,3.137,3.051,3.034,3.035-.137,6.081-.034,9.122-.038,3.163,0,6.327-.062,9.488.019,1.785.046,2.679-.445,2.612-2.45-.12-3.646-.1-7.3,0-10.947" transform="translate(1012 6026)" fill="#5c5f81"/>
      <path id="Trazado_37987" data-name="Trazado 37987" d="M26.409,71.158A38.989,38.989,0,0,1,23.7,59.12c-.09-3.449-1.23-5.249-4.977-4.574a19.408,19.408,0,0,1-3.279.034c-8.322.181-7.765-1.549-6.093,7.7A42.4,42.4,0,0,0,18.6,81.464c1.207,1.489,2.135,1.8,3.892.7,6.407-4.027,6.44-3.956,3.919-11.006" transform="translate(1012 6026)" fill="#5c5f81"/>
      <path id="Trazado_37988" data-name="Trazado 37988" d="M11.618,50.784A38.184,38.184,0,0,1,16,50.756c6.731,0,6.686-.008,7.886-6.864A52.388,52.388,0,0,1,27.546,31.3c.764-1.694.582-2.7-1.175-3.43a18.3,18.3,0,0,1-2.516-1.482c-5.082-3.157-5.062-3.146-8.3,1.8a47.581,47.581,0,0,0-7,19.031c-.43,2.737.166,3.9,3.063,3.562" transform="translate(1012 6026)" fill="#5c5f81"/>
      <path id="Trazado_37989" data-name="Trazado 37989" d="M34.717,25.665c-.674,1.078-.569,1.758.656,2.193A53.826,53.826,0,0,0,49.194,30.93c1.712.135,2.391-.482,2.373-2.253-.069-6.315-.028-12.631-.028-19.878A53.3,53.3,0,0,0,34.717,25.665" transform="translate(1012 6026)" fill="#5c5f81"/>
      <path id="Trazado_37990" data-name="Trazado 37990" d="M51.543,86.167c0-2.437-.066-4.875.022-7.309.074-1.99-.77-2.561-2.657-2.265a75.2,75.2,0,0,0-11.417,2.363c-2,.64-2.606,1.327-1.216,3.262A55.04,55.04,0,0,0,49.118,95.084c1.761,1.253,2.53,1.116,2.446-1.242-.093-2.556-.022-5.117-.021-7.675" transform="translate(1012 6026)" fill="#5c5f81"/>
      <path id="Trazado_37991" data-name="Trazado 37991" d="M24.436,22.287c5.386,3.511,5.3,3.644,9-1.593A57.1,57.1,0,0,1,43.89,9.485c-1.3-1.069-2.261-.268-3.207-.006a45.837,45.837,0,0,0-16.316,8.652c-1.937,1.54-2.442,2.52.069,4.156" transform="translate(1012 6026)" fill="#5c5f81"/>
      <path id="Trazado_37992" data-name="Trazado 37992" d="M32.1,82.826c-1.154-1.852-2.221-.656-3.316-.083-6.315,3.3-6.328,3.531-.463,7.484a38.994,38.994,0,0,0,15.709,6.337c-4.444-4.253-8.7-8.554-11.93-13.738" transform="translate(1012 6026)" fill="#5c5f81"/>
      <path id="Trazado_37993" data-name="Trazado 37993" d="M52.93,0a52.93,52.93,0,1,0,0,105.86h0A52.93,52.93,0,1,0,52.93,0m0,102A49.073,49.073,0,1,1,102,52.927,49.073,49.073,0,0,1,52.93,102h0Z" transform="translate(1012 6026)" fill="#5c5f81"/>
    </g>
    <path id="Trazado_65922" data-name="Trazado 65922" d="M28.153,39.871H77.707a13.059,13.059,0,0,1,0,26.118H28.153a13.059,13.059,0,1,1,0-26.118" transform="translate(1134 15920)" fill="#fff"/>
    <path id="Trazado_65923" data-name="Trazado 65923" d="M66.736,70.252l52.2,19.992L105.6,97.572l10.085,8.9a3.038,3.038,0,0,1,.268,4.288l-2.888,3.274a3.037,3.037,0,0,1-4.287.268L98.7,105.4,93.09,119.544Z" transform="translate(1134 15920)" fill="#fff"/>
    <g id="Grupo_25115" data-name="Grupo 25115" transform="translate(122 9894)">
      <path id="Trazado_37995" data-name="Trazado 37995" d="M42.354,48.11,38.567,61.031H35.944l-2.328-9.058L31.3,61.031H28.6L24.621,48.11h3.1L30.267,56.8l2.226-8.687h2.648L37.406,56.8,39.9,48.11Z" transform="translate(1012 6026)" fill="#a66d58"/>
      <path id="Trazado_37996" data-name="Trazado 37996" d="M60.61,48.11,56.823,61.031H54.2l-2.329-9.058-2.316,9.058h-2.7L42.876,48.11h3.1L48.522,56.8l2.226-8.687H53.4L55.66,56.8l2.495-8.687Z" transform="translate(1012 6026)" fill="#a66d58"/>
      <path id="Trazado_37997" data-name="Trazado 37997" d="M78.867,48.11,75.08,61.031H72.457l-2.329-9.058-2.316,9.058h-2.7L61.133,48.11h3.1L66.779,56.8,69,48.11h2.648L73.917,56.8l2.5-8.687Z" transform="translate(1012 6026)" fill="#a66d58"/>
    </g>
    <path id="Trazado_65924" data-name="Trazado 65924" d="M113.723,90.6,71.451,74.411l21.34,39.92L97.8,101.687l12.429,10.964a.84.84,0,0,0,1.186-.074l1.434-1.625.011-.012,1.444-1.637a.842.842,0,0,0-.074-1.187L101.805,97.153Z" transform="translate(1134 15920)" fill="#a66d58"/>
  </g>
</svg>
