<svg xmlns="http://www.w3.org/2000/svg" width="422" height="158" viewBox="0 0 422 158">
  <g id="Grupo_26064" data-name="Grupo 26064" transform="translate(-489 -15942)">
    <g id="Rectángulo_26344" data-name="Rectángulo 26344" transform="translate(489 15942)" fill="#fff" stroke="#aed3f2" stroke-width="1">
      <rect width="138" height="36" stroke="none"/>
      <rect x="0.5" y="0.5" width="137" height="35" fill="none"/>
    </g>
    <g id="Rectángulo_26348" data-name="Rectángulo 26348" transform="translate(631 15942)" fill="#fff" stroke="#aed3f2" stroke-width="1">
      <rect width="138" height="36" stroke="none"/>
      <rect x="0.5" y="0.5" width="137" height="35" fill="none"/>
    </g>
    <g id="Rectángulo_26355" data-name="Rectángulo 26355" transform="translate(773 15942)" fill="#fff" stroke="#aed3f2" stroke-width="1">
      <rect width="138" height="36" stroke="none"/>
      <rect x="0.5" y="0.5" width="137" height="35" fill="none"/>
    </g>
    <g id="Rectángulo_26349" data-name="Rectángulo 26349" transform="translate(489 16022)" fill="#fff" stroke="#aed3f2" stroke-width="1">
      <rect width="138" height="36" stroke="none"/>
      <rect x="0.5" y="0.5" width="137" height="35" fill="none"/>
    </g>
    <g id="Rectángulo_26401" data-name="Rectángulo 26401" transform="translate(489 16062)" fill="#fff" stroke="#aed3f2" stroke-width="1">
      <rect width="138" height="36" stroke="none"/>
      <rect x="0.5" y="0.5" width="137" height="35" fill="none"/>
    </g>
    <g id="Rectángulo_26350" data-name="Rectángulo 26350" transform="translate(631 16022)" fill="#fff" stroke="#aed3f2" stroke-width="1">
      <rect width="138" height="36" stroke="none"/>
      <rect x="0.5" y="0.5" width="137" height="35" fill="none"/>
    </g>
    <g id="Rectángulo_26400" data-name="Rectángulo 26400" transform="translate(631 16062)" fill="#fff" stroke="#aed3f2" stroke-width="1">
      <rect width="138" height="36" stroke="none"/>
      <rect x="0.5" y="0.5" width="137" height="35" fill="none"/>
    </g>
    <g id="Rectángulo_26361" data-name="Rectángulo 26361" transform="translate(773 16022)" fill="#fff" stroke="#aed3f2" stroke-width="1">
      <rect width="138" height="36" stroke="none"/>
      <rect x="0.5" y="0.5" width="137" height="35" fill="none"/>
    </g>
    <g id="Rectángulo_26399" data-name="Rectángulo 26399" transform="translate(773 16062)" fill="#fff" stroke="#aed3f2" stroke-width="1">
      <rect width="138" height="36" stroke="none"/>
      <rect x="0.5" y="0.5" width="137" height="35" fill="none"/>
    </g>
    <g id="Rectángulo_26351" data-name="Rectángulo 26351" transform="translate(489 15982)" fill="#fff" stroke="#aed3f2" stroke-width="1">
      <rect width="138" height="36" stroke="none"/>
      <rect x="0.5" y="0.5" width="137" height="35" fill="none"/>
    </g>
    <g id="Rectángulo_26352" data-name="Rectángulo 26352" transform="translate(631 15982)" fill="#fff" stroke="#aed3f2" stroke-width="1">
      <rect width="138" height="36" stroke="none"/>
      <rect x="0.5" y="0.5" width="137" height="35" fill="none"/>
    </g>
    <g id="Rectángulo_26367" data-name="Rectángulo 26367" transform="translate(773 15982)" fill="#fff" stroke="#aed3f2" stroke-width="1">
      <rect width="138" height="36" stroke="none"/>
      <rect x="0.5" y="0.5" width="137" height="35" fill="none"/>
    </g>
    <text id="Préstamo" transform="translate(489 15951)" fill="#00223d" font-size="14" font-family="OpenSans-Semibold, Open Sans" font-weight="600"><tspan x="36.454" y="15">Préstamo</tspan></text>
    <text id="_12.000.000" data-name="$12.000.000" transform="translate(631 15951)" fill="#00223d" font-size="14" font-family="OpenSans-Semibold, Open Sans" font-weight="600"><tspan x="29.191" y="15">$12.000.000</tspan></text>
    <text id="Periodo" transform="translate(489 16031)" fill="#00223d" font-size="14" font-family="OpenSans-Semibold, Open Sans" font-weight="600"><tspan x="42.777" y="15">Periodo</tspan></text>
    <text id="Periodo_gracia" data-name="Periodo gracia" transform="translate(489 16071)" fill="#00223d" font-size="14" font-family="OpenSans-Semibold, Open Sans" font-weight="600"><tspan x="20.509" y="15">Periodo gracia</tspan></text>
    <text id="_6" data-name="6" transform="translate(631 16031)" fill="#00223d" font-size="14" font-family="OpenSans-Semibold, Open Sans" font-weight="600"><tspan x="65.004" y="15">6</tspan></text>
    <text id="_2" data-name="2" transform="translate(631 16071)" fill="#00223d" font-size="14" font-family="OpenSans-Semibold, Open Sans" font-weight="600"><tspan x="65.004" y="15">2</tspan></text>
    <text id="Meses" transform="translate(773 16071)" fill="#00223d" font-size="14" font-family="OpenSans-Semibold, Open Sans" font-weight="600"><tspan x="47.658" y="15">Meses</tspan></text>
    <text id="Tasa" transform="translate(489 15991)" fill="#00223d" font-size="14" font-family="OpenSans-Semibold, Open Sans" font-weight="600"><tspan x="53.51" y="15">Tasa</tspan></text>
    <text id="_1.70_" data-name="1.70%" transform="translate(631 15991)" fill="#00223d" font-size="14" font-family="OpenSans-Semibold, Open Sans" font-weight="600"><tspan x="49.056" y="15">1.70%</tspan></text>
    <text id="Mensual" transform="translate(773 15991)" fill="#00223d" font-size="14" font-family="OpenSans-Semibold, Open Sans" font-weight="600"><tspan x="40.2" y="15">Mensual</tspan></text>
  </g>
</svg>
