<svg id="Grupo_24841" data-name="Grupo 24841" xmlns="http://www.w3.org/2000/svg" xmlns:xlink="http://www.w3.org/1999/xlink" width="620.19" height="340" viewBox="0 0 620.19 340">
  <defs>
    <clipPath id="clip-path">
      <rect id="Rectángulo_25499" data-name="Rectángulo 25499" width="620.19" height="340" fill="none"/>
    </clipPath>
    <clipPath id="clip-path-2">
      <rect id="Rectángulo_25489" data-name="Rectángulo 25489" width="620.189" height="340" fill="none"/>
    </clipPath>
    <clipPath id="clip-path-3">
      <rect id="Rectángulo_25487" data-name="Rectángulo 25487" width="218.45" height="106.483" fill="none"/>
    </clipPath>
    <clipPath id="clip-path-4">
      <rect id="Rectángulo_25488" data-name="Rectángulo 25488" width="9.636" height="7.522" fill="none"/>
    </clipPath>
    <clipPath id="clip-path-6">
      <rect id="Rectángulo_25490" data-name="Rectángulo 25490" width="174.492" height="87.24" fill="none"/>
    </clipPath>
    <clipPath id="clip-path-7">
      <rect id="Rectángulo_25491" data-name="Rectángulo 25491" width="107.997" height="53.388" fill="none"/>
    </clipPath>
    <clipPath id="clip-path-8">
      <rect id="Rectángulo_25492" data-name="Rectángulo 25492" width="44.012" height="19.545" fill="none"/>
    </clipPath>
    <clipPath id="clip-path-9">
      <rect id="Rectángulo_25493" data-name="Rectángulo 25493" width="3.189" height="2.086" fill="none"/>
    </clipPath>
    <clipPath id="clip-path-10">
      <rect id="Rectángulo_25494" data-name="Rectángulo 25494" width="3.298" height="2.244" fill="none"/>
    </clipPath>
    <clipPath id="clip-path-11">
      <rect id="Rectángulo_25495" data-name="Rectángulo 25495" width="7.971" height="9.937" fill="none"/>
    </clipPath>
    <clipPath id="clip-path-12">
      <rect id="Rectángulo_25496" data-name="Rectángulo 25496" width="33.06" height="16.156" fill="none"/>
    </clipPath>
    <clipPath id="clip-path-13">
      <rect id="Rectángulo_25497" data-name="Rectángulo 25497" width="3.534" height="1.659" fill="none"/>
    </clipPath>
  </defs>
  <g id="Grupo_24840" data-name="Grupo 24840" clip-path="url(#clip-path)">
    <g id="Grupo_24813" data-name="Grupo 24813">
      <g id="Grupo_24812" data-name="Grupo 24812" clip-path="url(#clip-path-2)">
        <g id="Grupo_24808" data-name="Grupo 24808" transform="translate(401.74 43.012)" opacity="0.14" style="mix-blend-mode: multiply;isolation: isolate">
          <g id="Grupo_24807" data-name="Grupo 24807">
            <g id="Grupo_24806" data-name="Grupo 24806" clip-path="url(#clip-path-3)">
              <path id="Trazado_63389" data-name="Trazado 63389" d="M490.27,55.162,416.465,92.141l.826.772L375.825,112.5c-6.776,2.6-11.711,9.53-11.654,13.9l-27.605,15.037,2.374,1.08,25.715-14.133a3.162,3.162,0,0,0,1.42,1.3l6.425,3.1,8.9,1.29c7.849,3.781,19.345,5.891,27.135,1.987l27.194-13.624,12.587-11.094,5.423,2.07,35.9-17.987c103.121-64.908,69.454-73.84.633-40.266" transform="translate(-336.567 -36.034)" fill="#2096ba"/>
            </g>
          </g>
        </g>
        <g id="Grupo_24811" data-name="Grupo 24811" transform="translate(413.095 156.988)" opacity="0.44" style="mix-blend-mode: multiply;isolation: isolate">
          <g id="Grupo_24810" data-name="Grupo 24810">
            <g id="Grupo_24809" data-name="Grupo 24809" clip-path="url(#clip-path-4)">
              <path id="Trazado_63390" data-name="Trazado 63390" d="M354.014,131.767c-3.383-1.845-7.934,7.275-7.934,7.275l8.61-4.437s2.708-.993-.676-2.838" transform="translate(-346.08 -131.52)" fill="#0b8aad"/>
            </g>
          </g>
        </g>
      </g>
    </g>
    <path id="Trazado_63391" data-name="Trazado 63391" d="M0,316.106H68.879L416.533,138.893l-30.99-15.5Z" transform="translate(0 23.894)" fill="#a7f6fc"/>
    <path id="Trazado_63392" data-name="Trazado 63392" d="M0,316.041H68.879L413.818,139.232l-30.989-15.5Z" transform="translate(0 23.959)" fill="#fff"/>
    <g id="Grupo_24839" data-name="Grupo 24839">
      <g id="Grupo_24838" data-name="Grupo 24838" clip-path="url(#clip-path-2)">
        <path id="Trazado_63393" data-name="Trazado 63393" d="M343.281,129.094a1.349,1.349,0,0,1-1.842.514l-14.069-7.12a2.552,2.552,0,0,0-3.491.985l-4.1,8.54a1.477,1.477,0,0,0,.791,1.853,1.171,1.171,0,0,0,1.636-.421l3.618-7.543a1.616,1.616,0,0,1,2.212-.623l13.742,6.968a2.636,2.636,0,0,0,3.6-1l45.971-93.011c.166-.343-1.147-4.052-1.147-4.052Z" transform="translate(61.902 6.619)" fill="#d6094d"/>
        <path id="Trazado_63394" data-name="Trazado 63394" d="M324.976,114.355c-3.069,1.535-5.556,5.268-5.556,8.336s2.488,4.315,5.556,2.78,5.558-5.269,5.558-8.339-2.488-4.313-5.558-2.778" transform="translate(61.852 22.016)" fill="#def8ff"/>
        <path id="Trazado_63395" data-name="Trazado 63395" d="M320.406,125.443l30.29,15.283,8.29-11.532-30.031-15.111Z" transform="translate(62.043 22.091)" fill="#def8ff"/>
        <path id="Trazado_63396" data-name="Trazado 63396" d="M325.981,113.78a5.861,5.861,0,0,0-1.774.559,8.561,8.561,0,0,0-.815.489l33.849,17,2.35-.956c-.033-.1-.063-.21-.105-.306Z" transform="translate(62.622 22.032)" fill="#fff"/>
        <path id="Trazado_63397" data-name="Trazado 63397" d="M350.157,127.024c-3.069,1.535-5.558,5.268-5.558,8.336s2.489,4.315,5.558,2.78,5.558-5.269,5.558-8.339-2.489-4.313-5.558-2.778" transform="translate(66.728 24.47)" fill="#a7f6fc"/>
        <path id="Trazado_63398" data-name="Trazado 63398" d="M349.614,129.763a4.163,4.163,0,0,0-2.212,3.316,1.321,1.321,0,0,0,.557,1.189l.764.544,3.331-4.563-.787-.568a1.691,1.691,0,0,0-1.654.082" transform="translate(67.271 25.077)" fill="#61d6ed"/>
        <path id="Trazado_63399" data-name="Trazado 63399" d="M350.252,130.224a4.161,4.161,0,0,0-2.212,3.316c0,1.222.991,1.716,2.212,1.105a4.165,4.165,0,0,0,2.212-3.316c0-1.222-.992-1.716-2.212-1.105" transform="translate(67.394 25.166)" fill="#41c2e0"/>
        <path id="Trazado_63400" data-name="Trazado 63400" d="M306.525,213.836,133.543,298.593h66.7l137.271-69.259Z" transform="translate(25.859 41.407)" fill="#a7f6fc"/>
        <path id="Trazado_63401" data-name="Trazado 63401" d="M303.811,214.173,133.543,298.528h64.788L334.8,229.671Z" transform="translate(25.859 41.472)" fill="#fff"/>
        <path id="Trazado_63402" data-name="Trazado 63402" d="M280.441,204.8c-3.069,1.535-5.556,5.268-5.556,8.338s2.488,4.314,5.556,2.779S286,210.644,286,207.576s-2.488-4.314-5.558-2.779" transform="translate(53.229 39.529)" fill="#def8ff"/>
        <path id="Trazado_63403" data-name="Trazado 63403" d="M275.871,215.884l30.29,15.283,8.29-11.532L284.42,204.524Z" transform="translate(53.42 39.604)" fill="#def8ff"/>
        <path id="Trazado_63404" data-name="Trazado 63404" d="M281.446,204.223a5.823,5.823,0,0,0-1.774.557,8.334,8.334,0,0,0-.815.491l33.849,17,2.35-.957c-.033-.1-.063-.209-.105-.306Z" transform="translate(53.998 39.546)" fill="#fff"/>
        <path id="Trazado_63405" data-name="Trazado 63405" d="M305.622,217.466c-3.07,1.535-5.558,5.268-5.558,8.338s2.488,4.314,5.558,2.779,5.558-5.269,5.558-8.338-2.489-4.314-5.558-2.779" transform="translate(58.104 41.983)" fill="#a7f6fc"/>
        <path id="Trazado_63406" data-name="Trazado 63406" d="M305.079,220.2a4.163,4.163,0,0,0-2.212,3.317,1.319,1.319,0,0,0,.557,1.188l.764.544,3.331-4.563-.787-.568a1.691,1.691,0,0,0-1.654.082" transform="translate(58.647 42.59)" fill="#61d6ed"/>
        <path id="Trazado_63407" data-name="Trazado 63407" d="M305.717,220.664a4.162,4.162,0,0,0-2.212,3.316c0,1.222.991,1.716,2.212,1.105a4.164,4.164,0,0,0,2.212-3.316c0-1.221-.992-1.716-2.212-1.105" transform="translate(58.771 42.679)" fill="#41c2e0"/>
        <g id="Grupo_24816" data-name="Grupo 24816" transform="translate(221.152 181.747)" opacity="0.65">
          <g id="Grupo_24815" data-name="Grupo 24815">
            <g id="Grupo_24814" data-name="Grupo 24814" clip-path="url(#clip-path-6)">
              <path id="Trazado_63408" data-name="Trazado 63408" d="M226.816,204.458l1.192.6,4.722-2.361-1.192-.6Z" transform="translate(-177.231 -142.613)" fill="#fff"/>
              <path id="Trazado_63409" data-name="Trazado 63409" d="M232.75,201.492l1.194.6,4.722-2.362-1.194-.6Z" transform="translate(-176.082 -143.188)" fill="#fff"/>
              <path id="Trazado_63410" data-name="Trazado 63410" d="M220.88,207.427l1.194.6,4.723-2.362-1.194-.6Z" transform="translate(-178.38 -142.038)" fill="#fff"/>
              <path id="Trazado_63411" data-name="Trazado 63411" d="M250.552,192.589l1.194.6,4.722-2.362-1.192-.6Z" transform="translate(-172.635 -144.912)" fill="#fff"/>
              <path id="Trazado_63412" data-name="Trazado 63412" d="M244.619,195.556l1.192.6,4.722-2.361-1.194-.6Z" transform="translate(-173.784 -144.337)" fill="#fff"/>
              <path id="Trazado_63413" data-name="Trazado 63413" d="M238.684,198.523l1.194.6,4.722-2.362-1.194-.6Z" transform="translate(-174.933 -143.763)" fill="#fff"/>
              <path id="Trazado_63414" data-name="Trazado 63414" d="M214.947,210.4l1.194.6,4.722-2.362-1.194-.6Z" transform="translate(-179.529 -141.464)" fill="#fff"/>
              <path id="Trazado_63415" data-name="Trazado 63415" d="M197.143,219.3l1.194.6,4.723-2.362-1.194-.6Z" transform="translate(-182.977 -139.74)" fill="#fff"/>
              <path id="Trazado_63416" data-name="Trazado 63416" d="M191.21,222.266l1.194.6,4.721-2.362-1.192-.6Z" transform="translate(-184.126 -139.165)" fill="#fff"/>
              <path id="Trazado_63417" data-name="Trazado 63417" d="M203.078,216.331l1.194.6,4.722-2.362-1.194-.6Z" transform="translate(-181.828 -140.314)" fill="#fff"/>
              <path id="Trazado_63418" data-name="Trazado 63418" d="M209.012,213.363l1.192.6,4.723-2.362-1.192-.6Z" transform="translate(-180.678 -140.889)" fill="#fff"/>
              <path id="Trazado_63419" data-name="Trazado 63419" d="M185.276,225.234l1.192.6,4.722-2.362-1.194-.6Z" transform="translate(-185.275 -138.59)" fill="#fff"/>
              <path id="Trazado_63420" data-name="Trazado 63420" d="M298.027,168.845l1.194.6,4.722-2.362-1.194-.6Z" transform="translate(-163.442 -149.509)" fill="#fff"/>
              <path id="Trazado_63421" data-name="Trazado 63421" d="M303.961,165.878l1.192.6,4.723-2.362-1.192-.6Z" transform="translate(-162.293 -150.084)" fill="#fff"/>
              <path id="Trazado_63422" data-name="Trazado 63422" d="M292.092,171.814l1.194.6,4.723-2.361-1.194-.6Z" transform="translate(-164.591 -148.935)" fill="#fff"/>
              <path id="Trazado_63423" data-name="Trazado 63423" d="M315.83,159.942l1.194.6,4.723-2.362-1.194-.6Z" transform="translate(-159.994 -151.233)" fill="#fff"/>
              <path id="Trazado_63424" data-name="Trazado 63424" d="M309.9,162.91l1.194.6,4.722-2.362-1.194-.6Z" transform="translate(-161.143 -150.659)" fill="#fff"/>
              <path id="Trazado_63425" data-name="Trazado 63425" d="M286.159,174.781l1.192.6,4.722-2.362-1.192-.6Z" transform="translate(-165.74 -148.36)" fill="#fff"/>
              <path id="Trazado_63426" data-name="Trazado 63426" d="M268.356,183.684l1.194.6,4.721-2.362-1.192-.6Z" transform="translate(-169.187 -146.636)" fill="#fff"/>
              <path id="Trazado_63427" data-name="Trazado 63427" d="M262.421,186.653l1.194.6,4.723-2.362-1.194-.6Z" transform="translate(-170.337 -146.061)" fill="#fff"/>
              <path id="Trazado_63428" data-name="Trazado 63428" d="M274.29,180.716l1.194.6,4.722-2.361-1.194-.6Z" transform="translate(-168.038 -147.21)" fill="#fff"/>
              <path id="Trazado_63429" data-name="Trazado 63429" d="M256.487,189.62l1.194.6,4.722-2.361-1.194-.6Z" transform="translate(-171.486 -145.486)" fill="#fff"/>
              <path id="Trazado_63430" data-name="Trazado 63430" d="M280.224,177.749l1.194.6,4.722-2.362-1.194-.6Z" transform="translate(-166.889 -147.785)" fill="#fff"/>
              <path id="Trazado_63431" data-name="Trazado 63431" d="M321.809,156.83l1.192.6,2.88-1.447-1.194-.6Z" transform="translate(-158.837 -151.659)" fill="#fff"/>
              <path id="Trazado_63432" data-name="Trazado 63432" d="M325.279,156.563l2.541,3.149,6.056-7.449-14.894,3.031Z" transform="translate(-159.384 -152.263)" fill="#fff"/>
            </g>
          </g>
        </g>
        <g id="Grupo_24819" data-name="Grupo 24819" transform="translate(244.528 286.133)" opacity="0.65">
          <g id="Grupo_24818" data-name="Grupo 24818">
            <g id="Grupo_24817" data-name="Grupo 24817" clip-path="url(#clip-path-7)">
              <path id="Trazado_63433" data-name="Trazado 63433" d="M261.9,256.3l1.194.6,4.721-2.362-1.192-.6Z" transform="translate(-193.813 -236.961)" fill="#fff"/>
              <path id="Trazado_63434" data-name="Trazado 63434" d="M255.968,259.265l1.192.6,4.723-2.362-1.194-.6Z" transform="translate(-194.962 -236.386)" fill="#fff"/>
              <path id="Trazado_63435" data-name="Trazado 63435" d="M206.837,283.613l-1.978.988h2.386l.784-.392Z" transform="translate(-204.859 -231.214)" fill="#fff"/>
              <path id="Trazado_63436" data-name="Trazado 63436" d="M267.837,253.33l1.194.6,4.723-2.361-1.194-.6Z" transform="translate(-192.664 -237.535)" fill="#fff"/>
              <path id="Trazado_63437" data-name="Trazado 63437" d="M279.706,247.393l1.192.6,4.723-2.362-1.193-.6Z" transform="translate(-190.366 -238.685)" fill="#fff"/>
              <path id="Trazado_63438" data-name="Trazado 63438" d="M273.771,250.361l1.194.6,4.722-2.362-1.194-.6Z" transform="translate(-191.515 -238.11)" fill="#fff"/>
              <path id="Trazado_63439" data-name="Trazado 63439" d="M250.034,262.232l1.194.6,4.722-2.361-1.194-.6Z" transform="translate(-196.111 -235.811)" fill="#fff"/>
              <path id="Trazado_63440" data-name="Trazado 63440" d="M214.427,280.04l1.194.6,4.723-2.362-1.194-.6Z" transform="translate(-203.006 -232.363)" fill="#fff"/>
              <path id="Trazado_63441" data-name="Trazado 63441" d="M208.494,283.008l1.194.6,4.722-2.362-1.194-.6Z" transform="translate(-204.155 -231.789)" fill="#fff"/>
              <path id="Trazado_63442" data-name="Trazado 63442" d="M220.363,277.072l1.192.6,4.722-2.361-1.192-.6Z" transform="translate(-201.857 -232.938)" fill="#fff"/>
              <path id="Trazado_63443" data-name="Trazado 63443" d="M232.231,271.135l1.194.6,4.722-2.362-1.194-.6Z" transform="translate(-199.559 -234.087)" fill="#fff"/>
              <path id="Trazado_63444" data-name="Trazado 63444" d="M226.3,274.1l1.194.6,4.723-2.362-1.194-.6Z" transform="translate(-200.708 -233.513)" fill="#fff"/>
              <path id="Trazado_63445" data-name="Trazado 63445" d="M238.166,268.169l1.192.6,4.722-2.362-1.192-.6Z" transform="translate(-198.41 -234.662)" fill="#fff"/>
              <path id="Trazado_63446" data-name="Trazado 63446" d="M244.1,265.2l1.194.6,4.722-2.362-1.194-.6Z" transform="translate(-197.26 -235.237)" fill="#fff"/>
              <path id="Trazado_63447" data-name="Trazado 63447" d="M285.684,244.281l1.194.6,2.879-1.447-1.192-.6Z" transform="translate(-189.208 -239.11)" fill="#fff"/>
              <path id="Trazado_63448" data-name="Trazado 63448" d="M289.154,244.014l2.542,3.149,6.055-7.449-14.893,3.031Z" transform="translate(-189.755 -239.715)" fill="#fff"/>
            </g>
          </g>
        </g>
        <g id="Grupo_24822" data-name="Grupo 24822" transform="translate(307.432 181.475)" opacity="0.46" style="mix-blend-mode: multiply;isolation: isolate">
          <g id="Grupo_24821" data-name="Grupo 24821">
            <g id="Grupo_24820" data-name="Grupo 24820" clip-path="url(#clip-path-8)">
              <path id="Trazado_63449" data-name="Trazado 63449" d="M298.823,152.047a111.566,111.566,0,0,0-20.818,5.53c-5.936,2.193-23,11.005-20.124,13.627,1.5,1.362,14.831-.938,26.53-7.459,8.943-4.986,10.485-6.335,15.239-9.186s-.827-2.511-.827-2.511" transform="translate(-257.558 -152.035)" fill="#2096ba"/>
            </g>
          </g>
        </g>
        <path id="Trazado_63450" data-name="Trazado 63450" d="M290.183,133.193l-27.006-3a4.965,4.965,0,0,1-.09,3.106l8.78,7.613,14.469.154-.611,2.251,2.755,13.125s2.589,1.155,3.191.688c.544-.424.167-4.093.167-4.093l.544-17.814Z" transform="translate(50.944 25.211)" fill="#f9a873" fill-rule="evenodd"/>
        <path id="Trazado_63451" data-name="Trazado 63451" d="M292.642,148.94l-7.768,1.749-1.154,1.774-.547,3.347s1.541,1.949,2.412,1.992a5.878,5.878,0,0,0,2.806-.9l1.93-1.617,2.343-.542,2.117-1.46a2.85,2.85,0,0,0,.614-2.785,5.628,5.628,0,0,0-2.754-1.555" transform="translate(54.834 28.841)" fill="#002b6a" fill-rule="evenodd"/>
        <path id="Trazado_63452" data-name="Trazado 63452" d="M288.094,149.685a.615.615,0,0,0-.4-.745s.347,2.267-2.582,2.374c0,0-.794.008-1.091-.389a6.685,6.685,0,0,0-.044,1.62s1.635-.05,2.194.818a4.285,4.285,0,0,0,3.36-1.842s-1.646-1.1-1.44-1.836" transform="translate(54.983 28.841)" fill="#fff" fill-rule="evenodd"/>
        <path id="Trazado_63453" data-name="Trazado 63453" d="M264.55,130.367l-1.382,4.381-2.883,17.1-3.349,2.2-10.374,13.871,3.829,2.932,15.693-13.3,8.367-18.6,2.576-12.548-12.666-3.822Z" transform="translate(47.744 23.735)" fill="#ffc39e" fill-rule="evenodd"/>
        <path id="Trazado_63454" data-name="Trazado 63454" d="M248.52,158.159l-1.233,1.648,1.043.492s.266.144,1.245,2.318c.531,1.184,1.226,1.32,1.226,1.32s.544.259.5-.454,1.293-1.673,1.293-1.673l.189-.3c-3.54-.9-4.258-3.351-4.258-3.351" transform="translate(47.885 30.626)" fill="#fff"/>
        <path id="Trazado_63455" data-name="Trazado 63455" d="M264.327,127.827l-1.219,6.81c.2.215-3.495,15.071-3.495,15.071l-12.747,14.641,4.027,3.674,3.325,1.392,14.866-13.825,6.152-16.868,2.242-12.634-18.992-2.939Z" transform="translate(47.803 23.847)" fill="#11347f" fill-rule="evenodd"/>
        <path id="Trazado_63456" data-name="Trazado 63456" d="M288.288,126.307l-1.249,5.753,3.786-.862,2.915-13.027-3.818.6Z" transform="translate(55.582 22.883)" fill="#346995"/>
        <path id="Trazado_63457" data-name="Trazado 63457" d="M277.92,109.509l-.02,0-1.6,7.378,14.068,11.095L292,120.451l-.026-.016Z" transform="translate(53.503 21.205)" fill="#065487"/>
        <path id="Trazado_63458" data-name="Trazado 63458" d="M276.481,115.693l-1.12,5.155L289.3,132.541l1.249-5.753-.053-.031Z" transform="translate(53.321 22.403)" fill="#004277"/>
        <path id="Trazado_63459" data-name="Trazado 63459" d="M283.949,120.784l-.4,2.072,2.653,1.931.467-.026.468-2.042-2.609-2.049Z" transform="translate(54.907 23.367)" fill="#a4d6ea"/>
        <g id="Grupo_24825" data-name="Grupo 24825" transform="translate(338.855 144.037)" opacity="0.68">
          <g id="Grupo_24824" data-name="Grupo 24824">
            <g id="Grupo_24823" data-name="Grupo 24823" clip-path="url(#clip-path-9)">
              <path id="Trazado_63460" data-name="Trazado 63460" d="M283.884,120.784l2.621,1.972.568-.037-2.609-2.049Z" transform="translate(-283.884 -120.67)" fill="#d7f2ff"/>
            </g>
          </g>
        </g>
        <path id="Trazado_63461" data-name="Trazado 63461" d="M277.4,115.517l-.281,2.226,2.763,2.078.467-.029.351-2.2-2.726-2.2Z" transform="translate(53.661 22.345)" fill="#a4d6ea"/>
        <g id="Grupo_24828" data-name="Grupo 24828" transform="translate(331.061 137.738)" opacity="0.68">
          <g id="Grupo_24827" data-name="Grupo 24827">
            <g id="Grupo_24826" data-name="Grupo 24826" clip-path="url(#clip-path-10)">
              <path id="Trazado_63462" data-name="Trazado 63462" d="M277.353,115.517l2.735,2.12.566-.041-2.726-2.2Z" transform="translate(-277.354 -115.393)" fill="#d7f2ff"/>
            </g>
          </g>
        </g>
        <path id="Trazado_63463" data-name="Trazado 63463" d="M277.657,109.579l14.083,10.942,3.818-.6c-.093-.068-13.884-10.5-14.219-10.769Z" transform="translate(53.766 21.136)" fill="#4482ab"/>
        <path id="Trazado_63464" data-name="Trazado 63464" d="M285.807,108.422l-3.957,3.223,1.269,1.886,2.843-.414,2.34.193.347-3.33-1.176-1.023Z" transform="translate(54.578 20.995)" fill="#f59362" fill-rule="evenodd"/>
        <path id="Trazado_63465" data-name="Trazado 63465" d="M279.6,111.248l2.083,3.043,3.482-1.029-2.378-3.407Z" transform="translate(54.141 21.272)" fill="#fff" fill-rule="evenodd"/>
        <path id="Trazado_63466" data-name="Trazado 63466" d="M276.036,113.8l-13.254-8.782s-1.97,2.041-2.385,2.569l-.456,4.607,12.537,9.925,2.843-1.738,13.346-5.694-3.12-3.863Z" transform="translate(50.335 20.335)" fill="#002b6a" fill-rule="evenodd"/>
        <path id="Trazado_63467" data-name="Trazado 63467" d="M286.648,110.962a.9.9,0,0,1-.128.124s-.337.534-.079.869a.292.292,0,0,1,.039.048c.177.166.59.481.59.481-.086.4-.64,2.992-.682,3.146a3.892,3.892,0,0,0,.45.382,2.083,2.083,0,0,0,.715-.039c.076-.325.887-3.854.887-3.854s-1.551-1.027-1.793-1.157" transform="translate(55.448 21.487)" fill="#a4d6ea"/>
        <path id="Trazado_63468" data-name="Trazado 63468" d="M291.387,132.4l-12.147-.723-.312-.621.01-.377-5.716,1.258-11.762-3.478c0,.424-1.52,8.289-1.52,8.289l11.15,5.2,14.394-.112.671,13.522,5.682,1.244,2.232-2.539-.537-19.329Z" transform="translate(50.335 24.874)" fill="#06418e" fill-rule="evenodd"/>
        <path id="Trazado_63469" data-name="Trazado 63469" d="M251.617,162.542l-2.023-2.156-2.571-1.208-3.127,1.837.794,2.84,2.751,3.437,1.737,2.307,4.356,1.417,1.654-2.823-2-2.112s-1.293-2.964-1.566-3.539" transform="translate(47.228 30.823)" fill="#11487f" fill-rule="evenodd"/>
        <path id="Trazado_63470" data-name="Trazado 63470" d="M274.856,116.1l3.366,4.116c-.023-.186,1.124-5.587,1.124-5.587l-3.516-4.29Z" transform="translate(53.223 21.366)" fill="#a5003f"/>
        <path id="Trazado_63471" data-name="Trazado 63471" d="M264.524,103.14l-1.592,1.368-2.932.475-1.386,6.2,4.26,17.431-1.293,5.787c1.807,1.035,10.17,1.931,11.822,2.038l4.783-1.167,1.173-1.915.214-10.2.551-7.138-1.626-5.71Z" transform="translate(50.078 19.972)" fill="#fff" fill-rule="evenodd"/>
        <path id="Trazado_63472" data-name="Trazado 63472" d="M261.775,128.722l1.616,2.847,10.023.705-.843-8.509s.8-5,.843-5.145Z" transform="translate(50.69 22.97)" fill="#b5b5e2" fill-rule="evenodd"/>
        <path id="Trazado_63473" data-name="Trazado 63473" d="M273.61,98.021l-1.773,9.08,3.549-1.165,1.523-6.554-.033-6Z" transform="translate(52.639 18.082)" fill="#f09d67" fill-rule="evenodd"/>
        <path id="Trazado_63474" data-name="Trazado 63474" d="M272.479,106.279v0c0-.006,0-.006,0,0" transform="translate(52.762 20.578)" fill="#f09d67" fill-rule="evenodd"/>
        <path id="Trazado_63475" data-name="Trazado 63475" d="M274,107.537c0-.01,0-.01,0,0l.4-3.445.122-3.4s-6.949-1.142-7.227-.864c-.088.088-.426,3.545-.426,3.545l-1.176,1.274a6.37,6.37,0,0,0-1.091,2.232c0,.715,3.481,2.881,4.721,3.132,1.015.205,4.841-.183,5.285-.939,0,0-.561-1.444-.6-1.53Z" transform="translate(51.238 19.321)" fill="#f09d67" fill-rule="evenodd"/>
        <path id="Trazado_63476" data-name="Trazado 63476" d="M265.417,129.368l-4.321-1.919,0,2.245,2.862,1.418,10.118,1.159,4.635-1.4.161-2.22-5.14,1.309Z" transform="translate(50.559 24.679)" fill="#002b6a"/>
        <path id="Trazado_63477" data-name="Trazado 63477" d="M270.267,89.782l-2.479.736-.146,1.046-1.118.285-1.42,2.809-.434,4.394,1.282,4.709,1.075,1.085,4.813.684,3.575-3,.8-2.3L277.4,96.71l.68-.532.561-1.184.118-1.576V91.832l-1.012-.573Z" transform="translate(51.25 17.385)" fill="#601f08" fill-rule="evenodd"/>
        <path id="Trazado_63478" data-name="Trazado 63478" d="M247.371,162.163a13.45,13.45,0,0,0-2.556-1.407h-.92l.794,2.841,4.488,5.744,4.356,1.416-2.433-2.388s-3.627-5.907-3.729-6.2" transform="translate(47.228 31.129)" fill="#002b6a" fill-rule="evenodd"/>
        <path id="Trazado_63479" data-name="Trazado 63479" d="M266.1,103.39a18.629,18.629,0,0,1-2.415,1.773l11.1,4.906.266-3.044-2.113-1.179Z" transform="translate(51.06 20.02)" fill="#fff" fill-rule="evenodd"/>
        <path id="Trazado_63480" data-name="Trazado 63480" d="M277.72,107.16l-2.569-1.585-7.738-2.556-4.807.572-1.235,4.075-1.648,6.5-5.4,7.515L241.129,128l14.682,7.84,10.147-1.393,5.4-4.311,7.453-6.454,2.038-4.253,1.9-5.479-2.042-5.319Z" transform="translate(46.692 19.949)" fill="#06418e" fill-rule="evenodd"/>
        <path id="Trazado_63481" data-name="Trazado 63481" d="M279.247,116.839l-4.017,4.913-3.328,2.061L270.08,128.4l3.974.734,3.9-4.642,2.421-7.372-.109-3.186Z" transform="translate(52.298 22.062)" fill="#d6094d"/>
        <path id="Trazado_63482" data-name="Trazado 63482" d="M272.671,104.835l2.554-.838-2.387-.608Z" transform="translate(52.8 20.02)" fill="#e26d49"/>
        <path id="Trazado_63483" data-name="Trazado 63483" d="M264.9,128.623c.094.261-.423,5.295-.423,5.295l3.987,1.892,1.484-2.227L268.3,127.6Z" transform="translate(51.213 24.708)" fill="#f09d67" fill-rule="evenodd"/>
        <path id="Trazado_63484" data-name="Trazado 63484" d="M264.475,129.794v.881l2.17.341,2.63-1.069-.574-2Z" transform="translate(51.213 24.775)" fill="#fff" fill-rule="evenodd"/>
        <path id="Trazado_63485" data-name="Trazado 63485" d="M276.724,107.723l-4.136,1.2-10.22,8.963-.69,2.257,3.018,13.839,2.515.4,2.665-1.172-1.71-12.482,10.3-6.6a4.548,4.548,0,0,0-1.738-6.4" transform="translate(50.671 20.859)" fill="#0d5199" fill-rule="evenodd"/>
        <path id="Trazado_63486" data-name="Trazado 63486" d="M357.43,83.451l3.38.7,4.375-3.779,2.585-8.552V61.276l-12.728,2.684c0,.3,2.387,19.491,2.387,19.491" transform="translate(68.751 11.865)" fill="#c95a4b"/>
        <path id="Trazado_63487" data-name="Trazado 63487" d="M354.254,88.586a4.086,4.086,0,0,1,1.539-.375,1.719,1.719,0,0,1,1.15,1.32L372.4,58.775l-3.779.4Z" transform="translate(68.598 11.381)" fill="#a5003f"/>
        <path id="Trazado_63488" data-name="Trazado 63488" d="M425.072,37.817c.377,0,12.061,4.271,12.061,4.271l4.294-1.287,13.8-23.712L431.768,0h-26.36c6.731,13.153,19.388,37.817,19.664,37.817" transform="translate(78.503)" fill="#01366c"/>
        <path id="Trazado_63489" data-name="Trazado 63489" d="M422.741,42.716l11.194,1.161,6.268-10.96-6.658-22.235L417.871,0H396.925l-.882,1.763Z" transform="translate(76.69 0)" fill="#5cbac4"/>
        <path id="Trazado_63490" data-name="Trazado 63490" d="M358.394,70.117l-2.28-12.33,4.294-17.054L348.1,27.2l-7.669,26.677,2.824,21.443,6.292,10.287,1.8,4.307,7.865,3.6,3.532-6.144-.506-10.311Z" transform="translate(65.921 5.268)" fill="#f6a98b"/>
        <path id="Trazado_63491" data-name="Trazado 63491" d="M346.856,32.472l3.661,43.358,3.923-3.349,7.062,7.57,8.62,2.282,8.644,6.523,8.106-.721,6.47,5.314,21.3-11.6,1.571-11.153,16.015-15.409,6.92-14.35,29.89-21.862L438.593,0H402.561L371.034,17.389Z" transform="translate(67.165 0)" fill="#ffc39e"/>
        <path id="Trazado_63492" data-name="Trazado 63492" d="M430.383,29.809l-2.312,18.979L408.338,62.409H396.645l-5.727-8.264-11.585-.716-2.922-8.308-10.132-.572-5.284-7.137-8.579-1.8s-3.317-5.876-2.951-6.288l2.577-3.235-5.186,3.235,3.662,43.358,3.922-3.351L361.5,76.9l8.622,2.282,8.644,6.523,8.106-.721,6.47,5.313,21.3-11.6,1.571-11.153,16.014-15.409,6.921-14.35L456.8,24.873l2.994-8.611-17.3,2.584Z" transform="translate(67.165 3.149)" fill="#f6a98b"/>
        <path id="Trazado_63493" data-name="Trazado 63493" d="M416.961,62.652l-15.894,6.937-4.319,9.019-12.632-4.292c0-.35,2.488-15.27,2.488-15.27l-6.656,16.026-12.409-5.482,4.389-16.167-7.76,15.212-9.483-5.689,3.158-20.085-6.19,16.186,1.011,16.6L342.8,72.293l5.762,9.526.694,5.067,9.5,3.6,3.531-6.144-.506-10.311-2.221-5.207,2.727,2.924,8.622,2.282,8.644,6.523,5.956-.53,8.619,5.122,21.3-11.6,2.165-6.017-.667-4.612Z" transform="translate(66.379 8.299)" fill="#dd8064"/>
        <g id="Grupo_24831" data-name="Grupo 24831" transform="translate(415.184 87.675)" opacity="0.3">
          <g id="Grupo_24830" data-name="Grupo 24830">
            <g id="Grupo_24829" data-name="Grupo 24829" clip-path="url(#clip-path-11)">
              <path id="Trazado_63494" data-name="Trazado 63494" d="M352.391,75.131l-4.561-1.678v2.183l.88,5.578,5.646,2.176,1.445-1.36-1.445-4.752Z" transform="translate(-347.83 -73.452)" fill="#ffc39e"/>
            </g>
          </g>
        </g>
        <path id="Trazado_63495" data-name="Trazado 63495" d="M434.174,32.957l-2.385,10.919,9.306-5.6,25.938-21.727L452.56,0H407.128c9.752,6.606,23.7,16.169,23.7,16.169Z" transform="translate(78.836 0)" fill="#fff"/>
        <path id="Trazado_63496" data-name="Trazado 63496" d="M444.467,27.159,439.984,37.5,502.661,0h-79.61l13.486,8.969Z" transform="translate(81.92 0)" fill="#1e7b9b"/>
        <path id="Trazado_63497" data-name="Trazado 63497" d="M430.329,32l-2.385,10.919,17.539-10.456V4.951l-18.5,10.261Z" transform="translate(82.68 0.959)" fill="#ccfffe"/>
        <path id="Trazado_63498" data-name="Trazado 63498" d="M438.139,27.159,435.823,40.8,504.021,0h-54.88L434.349,8.969Z" transform="translate(84.107 0)" fill="#0a5b89"/>
        <g id="Grupo_24834" data-name="Grupo 24834" transform="translate(270.893 289.534)" opacity="0.46" style="mix-blend-mode: multiply;isolation: isolate">
          <g id="Grupo_24833" data-name="Grupo 24833">
            <g id="Grupo_24832" data-name="Grupo 24832" clip-path="url(#clip-path-12)">
              <path id="Trazado_63499" data-name="Trazado 63499" d="M250.3,244.6c-1.163.436-4.165,2.162-4.165,2.162l-6.2,5.142-12.747,5.343s-1.01,1.5,1.123,1.474c5.413-.07,14.9-3.1,19.364-4.715,4.41-1.6,2.492-2.372,9.984-8.252s-5.134-1.989-7.355-1.154" transform="translate(-226.947 -242.564)" fill="#2096ba"/>
            </g>
          </g>
        </g>
        <path id="Trazado_63500" data-name="Trazado 63500" d="M255.53,235.838l-2.279-.16-3.076.754-.528,2.02L251,239.9l.678.3.3.812.658-.087.125-.709,2.041-.858,3.033-.44.933-1.392.123-1.617-.827-.74Z" transform="translate(48.342 45.538)" fill="#002b6a"/>
        <path id="Trazado_63501" data-name="Trazado 63501" d="M243.422,207.554l1.3,13.227,5.727,5.143-.544,3.179,1.375,11.119.136,2.176a1.244,1.244,0,0,0,.79.6c.227.044,3.164-.218,2.81-1.775l-.569-.442,1.163-18.726Z" transform="translate(47.136 40.191)" fill="#ff9b64"/>
        <path id="Trazado_63502" data-name="Trazado 63502" d="M237.578,233.374a12.933,12.933,0,0,0-2.889,2.262c-1.214,1.349-4.661,10.078-6.935,14.092,1.172.035,1.03.59,2.086,1.955a22.89,22.89,0,0,0,1.831-2.5c1.885-3.675,9.273-11.112,10.021-13.6,1.234-.813,2.133-3.229,2.133-3.229l-5.92-1.49Z" transform="translate(44.102 44.704)" fill="#ffb080"/>
        <path id="Trazado_63503" data-name="Trazado 63503" d="M236.8,218.9s1.742,4.313,0,13.843c.393-.079,7.364-3.422,7.364-3.422l11.594-9.789-4.839-6S236.581,218.53,236.8,218.9" transform="translate(45.853 41.349)" fill="#002149"/>
        <path id="Trazado_63504" data-name="Trazado 63504" d="M238.526,208.708l-2.471,5.128a13.435,13.435,0,0,0-.254,3.655,6.631,6.631,0,0,0,.883,1.943c1.475,1.536,1.756,1.537,2.171,2.184.47.73.935,2.786.5,3.435a109.977,109.977,0,0,0-3.587,11.114,8.447,8.447,0,0,0,5.88,2.251c4.5-3.668,10.993-11.732,11.436-18,1.146-5.558.316-8.357.316-8.357Z" transform="translate(45.654 40.414)" fill="#002b6a"/>
        <path id="Trazado_63505" data-name="Trazado 63505" d="M243.47,212.053c-5.451-2.1-4.326-4.8-4.326-4.8l-1.059,1.733s-.822,1.651,4.548,4.057c7.756,3.124,10.327-.708,10.327-.708l-.356-1.814a8.781,8.781,0,0,1-9.135,1.528" transform="translate(46.094 40.133)" fill="#134184"/>
        <path id="Trazado_63506" data-name="Trazado 63506" d="M228.12,202.72s-4.425,7.818-5.546,9.131a21.626,21.626,0,0,0-.892,3.888l1.486.825,1.417-.069,1.252-2.287-.3-.611a8.865,8.865,0,0,1,.121-1.969c.346-.945,3.938-4.493,3.938-4.493l2.2-2.961,7.349-5.115-2.459-4.072Z" transform="translate(42.927 37.757)" fill="#ff9b64"/>
        <path id="Trazado_63507" data-name="Trazado 63507" d="M222.44,208.2l3.238,1.243L226,208.5l-3.068-.947Z" transform="translate(43.073 40.191)" fill="#fff"/>
        <path id="Trazado_63508" data-name="Trazado 63508" d="M246.425,192.391c.148-.283-6.682-1.124-6.682-1.124a1.549,1.549,0,0,1-.955,1.022s-.363,1.08,2.54,2.324c1.786.759,5.941-.109,5.941-.109a3.248,3.248,0,0,1-.844-2.113" transform="translate(46.236 37.037)" fill="#d7ad9b"/>
        <path id="Trazado_63509" data-name="Trazado 63509" d="M258.571,203.865l-2.336-6.369-5.961-3.537s-3.718.888-5.949,0-1.925-2.045-1.925-2.045h-5.192l-8.161,8.894-1.289,1.82-5.528,8.008,3.907,1.444,6.933-8.19,4.94-2.669.546.455,1.328,3.83,1.607,2.459.473,3.37s.125,1.954,3.792,3.551c6.931,2.84,9.912-1.392,9.912-1.392a34.918,34.918,0,0,0,.646-4.011l-1.6-2.11,1.226-.251Z" transform="translate(43.032 37.162)" fill="#002b6a"/>
        <path id="Trazado_63510" data-name="Trazado 63510" d="M230.409,247.518c-1.431-1.068-1.938-.955-2.125-.936-.846.981-3.814,1.981-3.952,3.484l2.35,2.554a1.25,1.25,0,0,0,.131.948c.389.565,1.33,2.388,2.86,2.88.359.08.744.118.961-.838.138-.587-.477-2.679-.088-4.485.129-.73.458-2.485.458-2.485s.291-.438-.6-1.123" transform="translate(43.44 47.746)" fill="#002b6a"/>
        <path id="Trazado_63511" data-name="Trazado 63511" d="M227.713,251.381c-1.719-2.534-3.38-1.868-3.38-1.868l.52.815-.469,1.231.315.309.339.045.949-.6.694.754s-.246,1.437.036,1.838a5.986,5.986,0,0,0,2.958,1.99c.423.208-.689-1.155-1.258-2.122-.424-.717-.271-1.753-.7-2.391" transform="translate(43.44 48.3)" fill="#002149"/>
        <path id="Trazado_63512" data-name="Trazado 63512" d="M248.745,182.865s-6.385,9.742-7.951,11.017c1.068,4.395,5.886,2.157,5.886,2.157l.452-1.726,2.686-.082,1.3-5.342-.179-7.713c.067-.113-2.2,1.689-2.2,1.689" transform="translate(46.627 35.082)" fill="#ffb080"/>
        <path id="Trazado_63513" data-name="Trazado 63513" d="M264.087,209.833l-7.627-.906-4.927-12.274-1.449-.384-2.8.924-.775,4.02L253,213.828l2.014,1.147s10.833-.609,10.718-1.007l-.475-2.372Z" transform="translate(47.735 38.005)" fill="#053772"/>
        <path id="Trazado_63514" data-name="Trazado 63514" d="M245.437,193.321l-2.218-.522-.711,1.361c.132.044,1.774.932,1.774.932l1.819-.466.709-.467-.341-.839Z" transform="translate(46.959 37.334)" fill="#fff"/>
        <path id="Trazado_63515" data-name="Trazado 63515" d="M250.652,179.207a10.421,10.421,0,0,0-3.194-.83c-7.744-.267-9.684,6.668-10.342,9.659a4.929,4.929,0,0,1-2.312,2.541c-3.808,2.437-5.29,6.27-2.356,8.1a10.708,10.708,0,0,0,11.174.462c2.051-1.007,6.5-10.035,9.492-12.792,1.319-1.216,2.042-2.245.667-5.259a7.636,7.636,0,0,0-3.129-1.881" transform="translate(44.711 34.54)" fill="#6b2b00"/>
        <path id="Trazado_63516" data-name="Trazado 63516" d="M224.333,249.553l.358.688-.307,1.36.363-.05.831-1.077.843-.587-.846-.665Z" transform="translate(43.44 48.259)" fill="#002b6a"/>
        <path id="Trazado_63517" data-name="Trazado 63517" d="M218.568,218.28l-2.828-1-.01-.008-.267-.1-.007,1.647.031,11.091,3.378,1.6.026-5.667.032-6.534v-.064l0-.824V218.4l-.341-.117Z" transform="translate(41.721 42.054)" fill="#346995"/>
        <path id="Trazado_63518" data-name="Trazado 63518" d="M218.4,219.408l-.026.008-.037,7.421,15.538-7.492.033-7.267-.017-.006Z" transform="translate(42.278 41.066)" fill="#065487"/>
        <path id="Trazado_63519" data-name="Trazado 63519" d="M218.339,225.657l-.026,5.669,15.54-8.081.024-5.079-15.482,7.473Z" transform="translate(42.274 42.246)" fill="#004277"/>
        <path id="Trazado_63520" data-name="Trazado 63520" d="M223.993,220.889l-.128,2.138.432.125,3.029-1.377.2-2.152-.514-.235Z" transform="translate(43.349 42.482)" fill="#a4d6ea"/>
        <g id="Grupo_24837" data-name="Grupo 24837" transform="translate(267.342 261.87)" opacity="0.68">
          <g id="Grupo_24836" data-name="Grupo 24836">
            <g id="Grupo_24835" data-name="Grupo 24835" clip-path="url(#clip-path-13)">
              <path id="Trazado_63521" data-name="Trazado 63521" d="M223.972,220.889l.523.158,3.012-1.424-.514-.235Z" transform="translate(-223.972 -219.387)" fill="#c6e9ff"/>
            </g>
          </g>
        </g>
        <path id="Trazado_63522" data-name="Trazado 63522" d="M215.463,218.244v.113l3.491,1.241,15.49-7.337-3.371-1.172c-.37.183-15.508,7.111-15.609,7.155" transform="translate(41.722 40.875)" fill="#4482ab"/>
        <path id="Trazado_63523" data-name="Trazado 63523" d="M222.972,211.571c-.255.073-1.924.713-1.924.713s.024,3.487.029,3.808a2,2,0,0,0,.662.185,3.606,3.606,0,0,0,.5-.264c-.007-.153.012-2.71.014-3.1,0,0,.455-.211.654-.328a.415.415,0,0,1,.049-.038c.312-.26.107-.833.107-.833a.842.842,0,0,1-.1-.142" transform="translate(42.8 40.969)" fill="#002b6a"/>
        <path id="Trazado_63524" data-name="Trazado 63524" d="M224.937,210.642l.3.611-.455.831.975-.363V214l.312.29.791-.4.023-3.373-.833-.277Z" transform="translate(43.527 40.712)" fill="#002b6a"/>
        <path id="Trazado_63525" data-name="Trazado 63525" d="M318.064,225.31l-4.366-.363-14.975-8.174L241,201.373c-1.138.254-1.779,2.064-.711,2.652l57.477,15.193,15.366,8.224,4.1.241c.834,0,2.933-2.547.832-2.373" transform="translate(46.424 38.994)" fill="#d6094d"/>
        <path id="Trazado_63526" data-name="Trazado 63526" d="M306.379,221.507l-4.634-.384h0a1.437,1.437,0,0,1,.776,1.613.991.991,0,0,1-1.038.9l3.982.307c1.444.032,2.651-2.494.917-2.43" transform="translate(58.379 42.818)" fill="#a5003f"/>
        <path id="Trazado_63527" data-name="Trazado 63527" d="M298.634,216.773l-57.722-15.4a.929.929,0,0,1,.5,1.326,2.776,2.776,0,0,1-1.216,1.326l57.477,15.194s-1.417-1.725.957-2.446" transform="translate(46.512 38.994)" fill="#a5003f"/>
        <path id="Trazado_63528" data-name="Trazado 63528" d="M269.238,209.352c-1.812-2.326-4.155-.269-4.155-.269l-4.315-.329-4.57-.716-1.379.56c.048-.122-1.465-6.083-1.465-6.083s-3.211-.337-4.556,1.17a76.672,76.672,0,0,0,3.932,7.909l1.675,1.545,5.8-2.318,4.4,1.368a7.4,7.4,0,0,1,2.184.135,7.377,7.377,0,0,0,1.648.337c.956-.217,1.691-.424,1.691-.424l-1.841-2.417Z" transform="translate(48.177 39.209)" fill="#ffb080"/>
        <path id="Trazado_63529" data-name="Trazado 63529" d="M259.965,207.78l2.767,3.855,1.066-.31v-2.306l-1.136-1.243Z" transform="translate(50.34 40.234)" fill="#fff"/>
        <path id="Trazado_63530" data-name="Trazado 63530" d="M264.087,209.754l-7.627-.907-4.927-12.273-1.449-.384-2.8.924-.775,4.02L253,213.749l2.014,1.147s10.833-.609,10.718-1.009l-.475-2.371Z" transform="translate(47.735 37.99)" fill="#053772"/>
      </g>
    </g>
  </g>
</svg>
