<svg xmlns="http://www.w3.org/2000/svg" width="640" height="358" viewBox="0 0 640 358">
  <g id="Grupo_26064" data-name="Grupo 26064" transform="translate(-380 -10313)">
    <rect id="Rectángulo_25609" data-name="Rectángulo 25609" width="209" height="36" transform="translate(381 10313)" fill="#d9a171"/>
    <rect id="Rectángulo_26268" data-name="Rectángulo 26268" width="209" height="36" transform="translate(596 10313)" fill="#d9a171"/>
    <rect id="Rectángulo_26269" data-name="Rectángulo 26269" width="209" height="36" transform="translate(811 10313)" fill="#d9a171"/>
    <g id="Rectángulo_25608" data-name="Rectángulo 25608" transform="translate(380 10353)" fill="#fdfbfa" stroke="#f2cbaa" stroke-width="1">
      <rect width="210" height="36" stroke="none"/>
      <rect x="0.5" y="0.5" width="209" height="35" fill="none"/>
    </g>
    <g id="Rectángulo_26265" data-name="Rectángulo 26265" transform="translate(380 10513)" fill="#fdfbfa" stroke="#f2cbaa" stroke-width="1">
      <rect width="210" height="36" stroke="none"/>
      <rect x="0.5" y="0.5" width="209" height="35" fill="none"/>
    </g>
    <g id="Rectángulo_26248" data-name="Rectángulo 26248" transform="translate(595 10353)" fill="#fdfbfa" stroke="#f2cbaa" stroke-width="1">
      <rect width="210" height="36" stroke="none"/>
      <rect x="0.5" y="0.5" width="209" height="35" fill="none"/>
    </g>
    <g id="Rectángulo_26266" data-name="Rectángulo 26266" transform="translate(595 10513)" fill="#fdfbfa" stroke="#f2cbaa" stroke-width="1">
      <rect width="210" height="36" stroke="none"/>
      <rect x="0.5" y="0.5" width="209" height="35" fill="none"/>
    </g>
    <g id="Rectángulo_26252" data-name="Rectángulo 26252" transform="translate(810 10353)" fill="#fdfbfa" stroke="#f2cbaa" stroke-width="1">
      <rect width="210" height="36" stroke="none"/>
      <rect x="0.5" y="0.5" width="209" height="35" fill="none"/>
    </g>
    <g id="Rectángulo_26267" data-name="Rectángulo 26267" transform="translate(810 10513)" fill="#fdfbfa" stroke="#f2cbaa" stroke-width="1">
      <rect width="210" height="36" stroke="none"/>
      <rect x="0.5" y="0.5" width="209" height="35" fill="none"/>
    </g>
    <g id="Rectángulo_25606" data-name="Rectángulo 25606" transform="translate(380 10433)" fill="#fdfbfa" stroke="#f2cbaa" stroke-width="1">
      <rect width="210" height="36" stroke="none"/>
      <rect x="0.5" y="0.5" width="209" height="35" fill="none"/>
    </g>
    <g id="Rectángulo_26262" data-name="Rectángulo 26262" transform="translate(380 10593)" fill="#fdfbfa" stroke="#f2cbaa" stroke-width="1">
      <rect width="210" height="36" stroke="none"/>
      <rect x="0.5" y="0.5" width="209" height="35" fill="none"/>
    </g>
    <g id="Rectángulo_26250" data-name="Rectángulo 26250" transform="translate(595 10433)" fill="#fdfbfa" stroke="#f2cbaa" stroke-width="1">
      <rect width="210" height="36" stroke="none"/>
      <rect x="0.5" y="0.5" width="209" height="35" fill="none"/>
    </g>
    <g id="Rectángulo_26257" data-name="Rectángulo 26257" transform="translate(595 10593)" fill="#fdfbfa" stroke="#f2cbaa" stroke-width="1">
      <rect width="210" height="36" stroke="none"/>
      <rect x="0.5" y="0.5" width="209" height="35" fill="none"/>
    </g>
    <g id="Rectángulo_26254" data-name="Rectángulo 26254" transform="translate(810 10433)" fill="#fdfbfa" stroke="#f2cbaa" stroke-width="1">
      <rect width="210" height="36" stroke="none"/>
      <rect x="0.5" y="0.5" width="209" height="35" fill="none"/>
    </g>
    <g id="Rectángulo_26258" data-name="Rectángulo 26258" transform="translate(810 10593)" fill="#fdfbfa" stroke="#f2cbaa" stroke-width="1">
      <rect width="210" height="36" stroke="none"/>
      <rect x="0.5" y="0.5" width="209" height="35" fill="none"/>
    </g>
    <g id="Rectángulo_25607" data-name="Rectángulo 25607" transform="translate(380 10393)" fill="#fdfbfa" stroke="#f2cbaa" stroke-width="1">
      <rect width="210" height="36" stroke="none"/>
      <rect x="0.5" y="0.5" width="209" height="35" fill="none"/>
    </g>
    <g id="Rectángulo_26263" data-name="Rectángulo 26263" transform="translate(380 10553)" fill="#fdfbfa" stroke="#f2cbaa" stroke-width="1">
      <rect width="210" height="36" stroke="none"/>
      <rect x="0.5" y="0.5" width="209" height="35" fill="none"/>
    </g>
    <g id="Rectángulo_26249" data-name="Rectángulo 26249" transform="translate(595 10393)" fill="#fdfbfa" stroke="#f2cbaa" stroke-width="1">
      <rect width="210" height="36" stroke="none"/>
      <rect x="0.5" y="0.5" width="209" height="35" fill="none"/>
    </g>
    <g id="Rectángulo_26259" data-name="Rectángulo 26259" transform="translate(595 10553)" fill="#fdfbfa" stroke="#f2cbaa" stroke-width="1">
      <rect width="210" height="36" stroke="none"/>
      <rect x="0.5" y="0.5" width="209" height="35" fill="none"/>
    </g>
    <g id="Rectángulo_26253" data-name="Rectángulo 26253" transform="translate(810 10393)" fill="#fdfbfa" stroke="#f2cbaa" stroke-width="1">
      <rect width="210" height="36" stroke="none"/>
      <rect x="0.5" y="0.5" width="209" height="35" fill="none"/>
    </g>
    <g id="Rectángulo_26260" data-name="Rectángulo 26260" transform="translate(810 10553)" fill="#fdfbfa" stroke="#f2cbaa" stroke-width="1">
      <rect width="210" height="36" stroke="none"/>
      <rect x="0.5" y="0.5" width="209" height="35" fill="none"/>
    </g>
    <g id="Rectángulo_25605" data-name="Rectángulo 25605" transform="translate(380 10473)" fill="#fdfbfa" stroke="#f2cbaa" stroke-width="1">
      <rect width="210" height="36" stroke="none"/>
      <rect x="0.5" y="0.5" width="209" height="35" fill="none"/>
    </g>
    <g id="Rectángulo_26264" data-name="Rectángulo 26264" transform="translate(380 10633)" fill="#fdfbfa" stroke="#f2cbaa" stroke-width="1">
      <rect width="210" height="36" stroke="none"/>
      <rect x="0.5" y="0.5" width="209" height="35" fill="none"/>
    </g>
    <g id="Rectángulo_26251" data-name="Rectángulo 26251" transform="translate(595 10473)" fill="#fdfbfa" stroke="#f2cbaa" stroke-width="1">
      <rect width="210" height="36" stroke="none"/>
      <rect x="0.5" y="0.5" width="209" height="35" fill="none"/>
    </g>
    <g id="Rectángulo_26261" data-name="Rectángulo 26261" transform="translate(595 10633)" fill="#fdfbfa" stroke="#f2cbaa" stroke-width="1">
      <rect width="210" height="36" stroke="none"/>
      <rect x="0.5" y="0.5" width="209" height="35" fill="none"/>
    </g>
    <g id="Rectángulo_26255" data-name="Rectángulo 26255" transform="translate(810 10473)" fill="#fdfbfa" stroke="#f2cbaa" stroke-width="1">
      <rect width="210" height="36" stroke="none"/>
      <rect x="0.5" y="0.5" width="209" height="35" fill="none"/>
    </g>
    <g id="Rectángulo_26256" data-name="Rectángulo 26256" transform="translate(810 10633)" fill="#fdfbfa" stroke="#f2cbaa" stroke-width="1">
      <rect width="210" height="36" stroke="none"/>
      <rect x="0.5" y="0.5" width="209" height="35" fill="none"/>
    </g>
    <text id="_1" data-name="1" transform="translate(380 10362)" fill="#00223d" font-size="14" font-family="OpenSans-Semibold, Open Sans" font-weight="600"><tspan x="101.004" y="15">1</tspan></text>
    <text id="_3" data-name="3" transform="translate(380 10522)" fill="#00223d" font-size="14" font-family="OpenSans-Semibold, Open Sans" font-weight="600"><tspan x="101.004" y="15">3</tspan></text>
    <text id="A" transform="translate(595 10362)" fill="#00223d" font-size="14" font-family="OpenSans-Semibold, Open Sans" font-weight="600"><tspan x="100.372" y="15">A</tspan></text>
    <text id="C" transform="translate(595 10522)" fill="#00223d" font-size="14" font-family="OpenSans-Semibold, Open Sans" font-weight="600"><tspan x="100.563" y="15">C</tspan></text>
    <text id="Anual" transform="translate(810 10362)" fill="#00223d" font-size="14" font-family="OpenSans-Semibold, Open Sans" font-weight="600"><tspan x="85.473" y="15">Anual</tspan></text>
    <text id="Cuatrimestral" transform="translate(810 10522)" fill="#00223d" font-size="14" font-family="OpenSans-Semibold, Open Sans" font-weight="600"><tspan x="58.423" y="15">Cuatrimestral</tspan></text>
    <text id="_6" data-name="6" transform="translate(380 10442)" fill="#00223d" font-size="14" font-family="OpenSans-Semibold, Open Sans" font-weight="600"><tspan x="101.004" y="15">6</tspan></text>
    <text id="_24" data-name="24" transform="translate(380 10602)" fill="#00223d" font-size="14" font-family="OpenSans-Semibold, Open Sans" font-weight="600"><tspan x="97.009" y="15">24</tspan></text>
    <text id="B" transform="translate(595 10442)" fill="#00223d" font-size="14" font-family="OpenSans-Semibold, Open Sans" font-weight="600"><tspan x="100.379" y="15">B</tspan></text>
    <text id="Q" transform="translate(595 10602)" fill="#00223d" font-size="14" font-family="OpenSans-Semibold, Open Sans" font-weight="600"><tspan x="99.49" y="15">Q</tspan></text>
    <text id="Bimestral" transform="translate(810 10442)" fill="#00223d" font-size="14" font-family="OpenSans-Semibold, Open Sans" font-weight="600"><tspan x="72.512" y="15">Bimestral</tspan></text>
    <text id="Quincenal" transform="translate(810 10602)" fill="#00223d" font-size="14" font-family="OpenSans-Semibold, Open Sans" font-weight="600"><tspan x="70.697" y="15">Quincenal</tspan></text>
    <text id="_12" data-name="12" transform="translate(380 10402)" fill="#00223d" font-size="14" font-family="OpenSans-Semibold, Open Sans" font-weight="600"><tspan x="97.009" y="15">12</tspan></text>
    <text id="_2" data-name="2" transform="translate(380 10562)" fill="#00223d" font-size="14" font-family="OpenSans-Semibold, Open Sans" font-weight="600"><tspan x="101.004" y="15">2</tspan></text>
    <text id="M" transform="translate(595 10402)" fill="#00223d" font-size="14" font-family="OpenSans-Semibold, Open Sans" font-weight="600"><tspan x="98.54" y="15">M</tspan></text>
    <text id="S" transform="translate(595 10562)" fill="#00223d" font-size="14" font-family="OpenSans-Semibold, Open Sans" font-weight="600"><tspan x="101.151" y="15">S</tspan></text>
    <text id="Mensual" transform="translate(810 10402)" fill="#00223d" font-size="14" font-family="OpenSans-Semibold, Open Sans" font-weight="600"><tspan x="76.2" y="15">Mensual</tspan></text>
    <text id="Semestral" transform="translate(810 10562)" fill="#00223d" font-size="14" font-family="OpenSans-Semibold, Open Sans" font-weight="600"><tspan x="71.203" y="15">Semestral</tspan></text>
    <text id="_4" data-name="4" transform="translate(380 10482)" fill="#00223d" font-size="14" font-family="OpenSans-Semibold, Open Sans" font-weight="600"><tspan x="101.004" y="15">4</tspan></text>
    <text id="_365" data-name="365" transform="translate(380 10642)" fill="#00223d" font-size="14" font-family="OpenSans-Semibold, Open Sans" font-weight="600"><tspan x="93.013" y="15">365</tspan></text>
    <text id="T" transform="translate(595 10482)" fill="#00223d" font-size="14" font-family="OpenSans-Semibold, Open Sans" font-weight="600"><tspan x="101.039" y="15">T</tspan></text>
    <text id="D" transform="translate(595 10642)" fill="#00223d" font-size="14" font-family="OpenSans-Semibold, Open Sans" font-weight="600"><tspan x="99.863" y="15">D</tspan></text>
    <text id="Trimestral" transform="translate(810 10482)" fill="#00223d" font-size="14" font-family="OpenSans-Semibold, Open Sans" font-weight="600"><tspan x="70.154" y="15">Trimestral</tspan></text>
    <text id="Diaria" transform="translate(810 10642)" fill="#00223d" font-size="14" font-family="OpenSans-Semibold, Open Sans" font-weight="600"><tspan x="84.82" y="15">Diaria</tspan></text>
    <text id="Frecuencia_de_capitalización" data-name="Frecuencia de capitalización" transform="translate(380 10322)" fill="#fff" font-size="14" font-family="OpenSans-Bold, Open Sans" font-weight="700"><tspan x="6.498" y="15">Frecuencia de capitalización</tspan></text>
    <text id="Abreviatura" transform="translate(595 10322)" fill="#fff" font-size="14" font-family="OpenSans-Bold, Open Sans" font-weight="700"><tspan x="63.034" y="15">Abreviatura</tspan></text>
    <text id="Capitalización_anual" data-name="Capitalización anual" transform="translate(810 10322)" fill="#fff" font-size="14" font-family="OpenSans-Bold, Open Sans" font-weight="700"><tspan x="34.282" y="15">Capitalización anual</tspan></text>
  </g>
</svg>
