<svg xmlns="http://www.w3.org/2000/svg" xmlns:xlink="http://www.w3.org/1999/xlink" width="115" height="115.988" viewBox="0 0 115 115.988">
  <defs>
    <filter id="Trazado_1178" x="2.367" y="6" width="109.987" height="109.988" filterUnits="userSpaceOnUse">
      <feOffset dy="3" input="SourceAlpha"/>
      <feGaussianBlur stdDeviation="3" result="blur"/>
      <feFlood flood-opacity="0.161"/>
      <feComposite operator="in" in2="blur"/>
      <feComposite in="SourceGraphic"/>
    </filter>
  </defs>
  <g id="Grupo_15887" data-name="Grupo 15887" transform="translate(-226 -1811)">
    <g id="Grupo_14736" data-name="Grupo 14736" transform="translate(-429 5966)">
      <circle id="Elipse_497" data-name="Elipse 497" cx="57.5" cy="57.5" r="57.5" transform="translate(655 -4155)" fill="#92934e" opacity="0.75"/>
      <g transform="matrix(1, 0, 0, 1, 655, -4155)" filter="url(#Trazado_1178)">
        <path id="Trazado_1178-2" data-name="Trazado 1178" d="M45.994,0A45.994,45.994,0,1,1,0,45.994,45.994,45.994,0,0,1,45.994,0Z" transform="translate(11.37 12)" fill="#fff"/>
      </g>
    </g>
    <g id="Grupo_14749" data-name="Grupo 14749" transform="translate(-108.18 -1763)">
      <g id="Grupo_14748" data-name="Grupo 14748">
        <g id="Grupo_14747" data-name="Grupo 14747">
          <path id="Trazado_30691" data-name="Trazado 30691" d="M399.654,3628.666a1.087,1.087,0,0,0-.121-.3,18.827,18.827,0,0,0-1.622-3.06l-.587-.9a1.039,1.039,0,0,0-.1-.128,3.013,3.013,0,0,0,.275-1.259,4.535,4.535,0,0,0-4.53-4.53h-2.508a5.081,5.081,0,0,0,.963-2.98,5.375,5.375,0,0,0-1.782-4l-10.3-9.248a1.066,1.066,0,0,0-1.425,1.586l10.3,9.248a3.24,3.24,0,0,1,1.074,2.409,2.984,2.984,0,0,1-2.98,2.98H386.2a1.068,1.068,0,0,0-.178.015l-10.623,1.8a.053.053,0,0,1-.049-.013.054.054,0,0,1-.021-.045V3608.8a1.065,1.065,0,0,0-2.131,0v11.458a2.19,2.19,0,0,0,2.557,2.16l10.535-1.787h6.678a2.4,2.4,0,0,1,2.4,2.4.907.907,0,0,1-.906.906h-8.046a1.069,1.069,0,0,0-.406.08l-11.441,4.7a6.706,6.706,0,0,1-9.256-6.2v-16.168a1.066,1.066,0,0,0-2.132,0v16.168a8.84,8.84,0,0,0,4.53,7.715v4.082a7.877,7.877,0,0,1-.4,2.492,30.934,30.934,0,0,0-.469,18.04l.253.919a1.066,1.066,0,1,0,2.055-.566l-.253-.92a28.806,28.806,0,0,1,.437-16.8,10.01,10.01,0,0,0,.513-3.164v-3.235a8.879,8.879,0,0,0,5.536-.389l11.247-4.624h7.836a3.022,3.022,0,0,0,1.226-.259l.441.673a17.044,17.044,0,0,1,1.416,2.641,2.774,2.774,0,0,1-2.762,2.565A4.91,4.91,0,0,0,390,3635.52c-.067,0-.134,0-.2.007a3.365,3.365,0,0,0-2.442,1.586.955.955,0,0,1-.737.3,4.918,4.918,0,1,0-7.963-.885,1.212,1.212,0,0,0-.031.123,9.632,9.632,0,0,0,.089,3.385,7.283,7.283,0,0,0,4.208,5.347,10.286,10.286,0,0,0,4.269,1.055,5.359,5.359,0,0,0,4.886-2.7,1.133,1.133,0,0,1,.158.263,1.607,1.607,0,0,0,1.87,1.031,2.806,2.806,0,0,0,2.467-2.8,5.006,5.006,0,0,0-2.15-3.945,3.96,3.96,0,0,0-1.979-.77,2.609,2.609,0,0,0-.428-1,2.773,2.773,0,0,1,2.768-2.705,4.894,4.894,0,0,0,3.717-1.711,16.685,16.685,0,0,1-4.22,15.076,7.668,7.668,0,0,0-2.109,5.293v3.007a1.065,1.065,0,1,0,2.131,0v-3.007a5.546,5.546,0,0,1,1.525-3.827,18.867,18.867,0,0,0,3.828-19.979Zm-16.7,2.685a2.786,2.786,0,1,1-2.787,2.787A2.79,2.79,0,0,1,382.952,3631.351Zm9.19,8.294a1.811,1.811,0,0,1,1.036.378,2.976,2.976,0,0,1,1.262,2.153.753.753,0,0,1-.229.577.693.693,0,0,1-.17.11,2.623,2.623,0,0,0-1.87-1.427,1.92,1.92,0,0,0-1.93,1.218c-.757,1.463-2.844,2.44-6.43.791a5.469,5.469,0,0,1-3.16-4.962,4.89,4.89,0,0,0,2.3.573,5.013,5.013,0,0,0,.818-.069c.518.213,3.8,1.458,5.312-.624a1.546,1.546,0,0,1,.884-.712.46.46,0,0,1,.338.14.964.964,0,0,1-.006.753c-.329.907-1.641,1.735-3.6,2.271a1.066,1.066,0,0,0,.281,2.094,1.1,1.1,0,0,0,.282-.038C390.283,3642.043,391.6,3640.758,392.142,3639.645Z" fill="#454546"/>
        </g>
      </g>
      <path id="Trazado_30692" data-name="Trazado 30692" d="M411,3625.075V3656h5v-30.925l6.758,2.871L413.5,3606l-9.258,21.946Z" fill="#92934e"/>
    </g>
  </g>
</svg>
