<svg xmlns="http://www.w3.org/2000/svg" xmlns:xlink="http://www.w3.org/1999/xlink" width="115" height="115.988" viewBox="0 0 115 115.988">
  <defs>
    <filter id="Trazado_1178" x="2.367" y="6" width="109.987" height="109.988" filterUnits="userSpaceOnUse">
      <feOffset dy="3" input="SourceAlpha"/>
      <feGaussianBlur stdDeviation="3" result="blur"/>
      <feFlood flood-opacity="0.161"/>
      <feComposite operator="in" in2="blur"/>
      <feComposite in="SourceGraphic"/>
    </filter>
  </defs>
  <g id="Grupo_15890" data-name="Grupo 15890" transform="translate(-150 -2521)">
    <g id="Grupo_14739" data-name="Grupo 14739" transform="translate(-505 6676)">
      <circle id="Elipse_497" data-name="Elipse 497" cx="57.5" cy="57.5" r="57.5" transform="translate(655 -4155)" fill="#415214" opacity="0.75"/>
      <g transform="matrix(1, 0, 0, 1, 655, -4155)" filter="url(#Trazado_1178)">
        <path id="Trazado_1178-2" data-name="Trazado 1178" d="M45.994,0A45.994,45.994,0,1,1,0,45.994,45.994,45.994,0,0,1,45.994,0Z" transform="translate(11.37 12)" fill="#fff"/>
      </g>
    </g>
    <g id="Grupo_14755" data-name="Grupo 14755" transform="translate(-22.233 -1390)">
      <path id="Trazado_30700" data-name="Trazado 30700" d="M214.606,3942h-10a1.373,1.373,0,0,0-1.372,1.373v52.7a1.372,1.372,0,0,0,1.372,1.372h10a1.372,1.372,0,0,0,1.373-1.372v-52.7A1.373,1.373,0,0,0,214.606,3942Zm-1.372,52.7h-7.256v-3.889h1.432a1.373,1.373,0,0,0,0-2.746h-1.432v-3.823h3.628a1.373,1.373,0,0,0,0-2.746h-3.628v-3.824h1.432a1.372,1.372,0,0,0,0-2.745h-1.432V3971.1h3.628a1.373,1.373,0,1,0,0-2.745h-3.628v-3.825h1.432a1.373,1.373,0,0,0,0-2.745h-1.432v-3.824h3.628a1.372,1.372,0,1,0,0-2.745h-3.628v-3.824h1.432a1.373,1.373,0,0,0,0-2.746h-1.432v-3.9h7.256Z" fill="#454546"/>
      <path id="Trazado_30701" data-name="Trazado 30701" d="M257.178,3980.945c-1.681-3.587-4.984-6.285-9.819-8.04.072-.11.151-.216.216-.332,1.7-3.035.338-6.884.009-7.713-.167-6.38-4.49-11.508-9.784-11.508-5.323,0-9.664,5.184-9.786,11.613-.389,1.021-1.586,4.693.05,7.608a5.863,5.863,0,0,0,.394.6c-4.441,1.757-7.495,4.363-9.09,7.767a14.708,14.708,0,0,0-.269,11.029,1.358,1.358,0,0,0,.183.314c.282.365,1.893,2.1,6.908,2.292,1.935,2.643,9.534,2.875,12.1,2.875s10.162-.232,12.1-2.875c4.995-.2,6.6-1.928,6.882-2.292a1.359,1.359,0,0,0,.183-.314A14.708,14.708,0,0,0,257.178,3980.945Zm-15.514-7.75a1.348,1.348,0,0,0-.708.219,5.617,5.617,0,0,1-6.289.015l0,0a1.359,1.359,0,0,0-.232-.119l-.014-.007a1.269,1.269,0,0,0-.217-.061c-.017,0-.033-.009-.05-.012s-.028-.009-.042-.011c-1.819-.25-3.045-.916-3.646-1.981-.778-1.376-.482-3.326-.127-4.565a19.821,19.821,0,0,1,8.362-1,1.364,1.364,0,0,0,1.242-.649l.979-1.586,1.023,1.745a1.373,1.373,0,0,0,1.023.669,7.566,7.566,0,0,1,1.567.348c.194.06.421.128.685.2.335,1.051.852,3.25-.035,4.83A4.529,4.529,0,0,1,241.664,3973.2Zm-3.864-17.1c3.4,0,6.238,3.134,6.9,7.29-.22-.059-.453-.113-.724-.162l-1.844-3.146a1.374,1.374,0,0,0-1.168-.678,1.342,1.342,0,0,0-1.184.652l-1.755,2.841a24.676,24.676,0,0,0-7.154.716C231.468,3959.345,234.344,3956.1,237.8,3956.1Zm17.2,34.569a7.989,7.989,0,0,1-4.167,1.14v-8.548a1.372,1.372,0,1,0-2.745,0v9.711c-.005.026-.005.053-.008.08-.666.621-3.989,1.661-9.8,1.661-5.827,0-9.155-1.047-9.8-1.667v-9.785a1.373,1.373,0,1,0-2.746,0v8.55a8.038,8.038,0,0,1-4.193-1.141,12.01,12.01,0,0,1,.325-8.584c1.459-3.09,4.533-5.408,9.129-6.9a9.745,9.745,0,0,0,2.425.7,8.279,8.279,0,0,0,8.742.01,9.344,9.344,0,0,0,2.854-.9,1.332,1.332,0,0,0,.2.083c4.785,1.484,7.969,3.841,9.464,7.007A12.008,12.008,0,0,1,255,3990.666Z" fill="#415214"/>
      <path id="Trazado_30702" data-name="Trazado 30702" d="M239.371,3970.5a4.98,4.98,0,0,1-3.074.037,1.373,1.373,0,0,0-1.925,1.958,4.946,4.946,0,0,0,3.361,1.013,5.416,5.416,0,0,0,3.522-1.013,1.373,1.373,0,0,0-1.884-1.995Z" fill="#415214"/>
      <path id="Trazado_30703" data-name="Trazado 30703" d="M245.871,3951.393h2.745a1.373,1.373,0,0,0,0-2.746h-2.745a1.373,1.373,0,0,0,0,2.746Z" fill="#454546"/>
      <path id="Trazado_30704" data-name="Trazado 30704" d="M237.085,3951.393h2.746a1.373,1.373,0,0,0,0-2.746h-2.746a1.373,1.373,0,0,0,0,2.746Z" fill="#454546"/>
      <path id="Trazado_30705" data-name="Trazado 30705" d="M254.656,3951.393h2.374a1.373,1.373,0,0,0,0-2.746h-2.374a1.373,1.373,0,0,0,0,2.746Z" fill="#454546"/>
      <path id="Trazado_30706" data-name="Trazado 30706" d="M219.515,3951.393h2.745a1.373,1.373,0,0,0,0-2.746h-2.745a1.373,1.373,0,0,0,0,2.746Z" fill="#454546"/>
      <path id="Trazado_30707" data-name="Trazado 30707" d="M228.3,3951.393h2.746a1.373,1.373,0,0,0,0-2.746H228.3a1.373,1.373,0,0,0,0,2.746Z" fill="#454546"/>
    </g>
  </g>
</svg>
